{
	"patcher" : 	{
		"fileversion" : 1,
		"appversion" : 		{
			"major" : 8,
			"minor" : 1,
			"revision" : 3,
			"architecture" : "x64",
			"modernui" : 1
		}
,
		"classnamespace" : "box",
		"rect" : [ 315.0, 108.0, 991.0, 908.0 ],
		"bglocked" : 0,
		"openinpresentation" : 1,
		"default_fontsize" : 12.0,
		"default_fontface" : 0,
		"default_fontname" : "Arial",
		"gridonopen" : 1,
		"gridsize" : [ 15.0, 15.0 ],
		"gridsnaponopen" : 1,
		"objectsnaponopen" : 1,
		"statusbarvisible" : 2,
		"toolbarvisible" : 1,
		"lefttoolbarpinned" : 0,
		"toptoolbarpinned" : 0,
		"righttoolbarpinned" : 0,
		"bottomtoolbarpinned" : 0,
		"toolbars_unpinned_last_save" : 0,
		"tallnewobj" : 0,
		"boxanimatetime" : 200,
		"enablehscroll" : 1,
		"enablevscroll" : 1,
		"devicewidth" : 0.0,
		"description" : "",
		"digest" : "",
		"tags" : "",
		"style" : "",
		"subpatcher_template" : "",
		"boxes" : [ 			{
				"box" : 				{
					"id" : "obj-10",
					"maxclass" : "newobj",
					"numinlets" : 1,
					"numoutlets" : 0,
					"patching_rect" : [ 207.0, 736.0, 119.0, 22.0 ],
					"text" : "midiout \"from Max 1\""
				}

			}
, 			{
				"box" : 				{
					"id" : "obj-6",
					"maxclass" : "newobj",
					"numinlets" : 7,
					"numoutlets" : 2,
					"outlettype" : [ "int", "" ],
					"patching_rect" : [ 207.0, 682.0, 82.0, 22.0 ],
					"text" : "midiformat"
				}

			}
, 			{
				"box" : 				{
					"id" : "obj-181",
					"maxclass" : "message",
					"numinlets" : 2,
					"numoutlets" : 1,
					"outlettype" : [ "" ],
					"patching_rect" : [ 163.5, 437.0, 49.0, 22.0 ],
					"text" : "$1 0 $2"
				}

			}
, 			{
				"box" : 				{
					"id" : "obj-180",
					"maxclass" : "message",
					"numinlets" : 2,
					"numoutlets" : 1,
					"outlettype" : [ "" ],
					"patching_rect" : [ 166.0, 326.000030517578125, 49.0, 22.0 ],
					"text" : "$1 1 $2"
				}

			}
, 			{
				"box" : 				{
					"id" : "obj-173",
					"maxclass" : "message",
					"numinlets" : 2,
					"numoutlets" : 1,
					"outlettype" : [ "" ],
					"patching_rect" : [ 72.0, 491.0, 50.0, 22.0 ],
					"text" : "4 0"
				}

			}
, 			{
				"box" : 				{
					"id" : "obj-171",
					"maxclass" : "newobj",
					"numinlets" : 2,
					"numoutlets" : 1,
					"outlettype" : [ "" ],
					"patcher" : 					{
						"fileversion" : 1,
						"appversion" : 						{
							"major" : 8,
							"minor" : 1,
							"revision" : 3,
							"architecture" : "x64",
							"modernui" : 1
						}
,
						"classnamespace" : "box",
						"rect" : [ 59.0, 81.0, 640.0, 480.0 ],
						"bglocked" : 0,
						"openinpresentation" : 0,
						"default_fontsize" : 12.0,
						"default_fontface" : 0,
						"default_fontname" : "Arial",
						"gridonopen" : 1,
						"gridsize" : [ 15.0, 15.0 ],
						"gridsnaponopen" : 1,
						"objectsnaponopen" : 1,
						"statusbarvisible" : 2,
						"toolbarvisible" : 1,
						"lefttoolbarpinned" : 0,
						"toptoolbarpinned" : 0,
						"righttoolbarpinned" : 0,
						"bottomtoolbarpinned" : 0,
						"toolbars_unpinned_last_save" : 0,
						"tallnewobj" : 0,
						"boxanimatetime" : 200,
						"enablehscroll" : 1,
						"enablevscroll" : 1,
						"devicewidth" : 0.0,
						"description" : "",
						"digest" : "",
						"tags" : "",
						"style" : "",
						"subpatcher_template" : "",
						"boxes" : [ 							{
								"box" : 								{
									"id" : "obj-7",
									"maxclass" : "newobj",
									"numinlets" : 4,
									"numoutlets" : 4,
									"outlettype" : [ "", "", "", "" ],
									"patching_rect" : [ 120.0, 105.0, 78.0, 22.0 ],
									"text" : "route 9 10 11"
								}

							}
, 							{
								"box" : 								{
									"id" : "obj-5",
									"maxclass" : "newobj",
									"numinlets" : 4,
									"numoutlets" : 4,
									"outlettype" : [ "", "", "", "" ],
									"patching_rect" : [ 51.0, 105.0, 78.0, 22.0 ],
									"text" : "route 9 10 11"
								}

							}
, 							{
								"box" : 								{
									"id" : "obj-166",
									"maxclass" : "newobj",
									"numinlets" : 2,
									"numoutlets" : 2,
									"outlettype" : [ "bang", "" ],
									"patching_rect" : [ 96.0, 275.0, 34.0, 22.0 ],
									"text" : "sel 1"
								}

							}
, 							{
								"box" : 								{
									"id" : "obj-167",
									"maxclass" : "message",
									"numinlets" : 2,
									"numoutlets" : 1,
									"outlettype" : [ "" ],
									"patching_rect" : [ 97.0, 244.0, 29.5, 22.0 ],
									"text" : "$2"
								}

							}
, 							{
								"box" : 								{
									"id" : "obj-165",
									"maxclass" : "newobj",
									"numinlets" : 2,
									"numoutlets" : 2,
									"outlettype" : [ "bang", "" ],
									"patching_rect" : [ 50.0, 278.333343505859375, 34.0, 22.0 ],
									"text" : "sel 1"
								}

							}
, 							{
								"box" : 								{
									"id" : "obj-164",
									"maxclass" : "message",
									"numinlets" : 2,
									"numoutlets" : 1,
									"outlettype" : [ "" ],
									"patching_rect" : [ 51.0, 247.333343505859375, 29.5, 22.0 ],
									"text" : "$2"
								}

							}
, 							{
								"box" : 								{
									"id" : "obj-146",
									"maxclass" : "message",
									"numinlets" : 2,
									"numoutlets" : 1,
									"outlettype" : [ "" ],
									"patching_rect" : [ 86.5, 307.333343505859375, 29.5, 22.0 ],
									"text" : "1"
								}

							}
, 							{
								"box" : 								{
									"id" : "obj-144",
									"maxclass" : "message",
									"numinlets" : 2,
									"numoutlets" : 1,
									"outlettype" : [ "" ],
									"patching_rect" : [ 50.0, 307.333343505859375, 29.5, 22.0 ],
									"text" : "2"
								}

							}
, 							{
								"box" : 								{
									"comment" : "",
									"id" : "obj-168",
									"index" : 1,
									"maxclass" : "inlet",
									"numinlets" : 0,
									"numoutlets" : 1,
									"outlettype" : [ "" ],
									"patching_rect" : [ 51.0, 58.999999505859364, 30.0, 30.0 ]
								}

							}
, 							{
								"box" : 								{
									"comment" : "",
									"id" : "obj-169",
									"index" : 2,
									"maxclass" : "inlet",
									"numinlets" : 0,
									"numoutlets" : 1,
									"outlettype" : [ "" ],
									"patching_rect" : [ 97.0, 58.999999505859364, 30.0, 30.0 ]
								}

							}
, 							{
								"box" : 								{
									"comment" : "",
									"id" : "obj-170",
									"index" : 1,
									"maxclass" : "outlet",
									"numinlets" : 1,
									"numoutlets" : 0,
									"patching_rect" : [ 50.0, 360.333343505859375, 30.0, 30.0 ]
								}

							}
 ],
						"lines" : [ 							{
								"patchline" : 								{
									"destination" : [ "obj-170", 0 ],
									"source" : [ "obj-144", 0 ]
								}

							}
, 							{
								"patchline" : 								{
									"destination" : [ "obj-170", 0 ],
									"source" : [ "obj-146", 0 ]
								}

							}
, 							{
								"patchline" : 								{
									"destination" : [ "obj-165", 0 ],
									"source" : [ "obj-164", 0 ]
								}

							}
, 							{
								"patchline" : 								{
									"destination" : [ "obj-144", 0 ],
									"source" : [ "obj-165", 0 ]
								}

							}
, 							{
								"patchline" : 								{
									"destination" : [ "obj-146", 0 ],
									"source" : [ "obj-166", 0 ]
								}

							}
, 							{
								"patchline" : 								{
									"destination" : [ "obj-166", 0 ],
									"source" : [ "obj-167", 0 ]
								}

							}
, 							{
								"patchline" : 								{
									"destination" : [ "obj-5", 0 ],
									"source" : [ "obj-168", 0 ]
								}

							}
, 							{
								"patchline" : 								{
									"destination" : [ "obj-7", 0 ],
									"source" : [ "obj-169", 0 ]
								}

							}
, 							{
								"patchline" : 								{
									"destination" : [ "obj-164", 0 ],
									"source" : [ "obj-5", 3 ]
								}

							}
, 							{
								"patchline" : 								{
									"destination" : [ "obj-167", 0 ],
									"source" : [ "obj-7", 3 ]
								}

							}
 ]
					}
,
					"patching_rect" : [ 82.0, 395.666655999999989, 71.0, 22.0 ],
					"saved_object_attributes" : 					{
						"description" : "",
						"digest" : "",
						"globalpatchername" : "",
						"tags" : ""
					}
,
					"text" : "p directPlay"
				}

			}
, 			{
				"box" : 				{
					"id" : "obj-154",
					"maxclass" : "button",
					"numinlets" : 1,
					"numoutlets" : 1,
					"outlettype" : [ "bang" ],
					"parameter_enable" : 0,
					"patching_rect" : [ 191.0, 195.0, 24.0, 24.0 ]
				}

			}
, 			{
				"box" : 				{
					"id" : "obj-139",
					"maxclass" : "newobj",
					"numinlets" : 4,
					"numoutlets" : 4,
					"outlettype" : [ "", "", "", "" ],
					"patching_rect" : [ 82.0, 355.0, 66.0, 22.0 ],
					"text" : "route 7 6 8"
				}

			}
, 			{
				"box" : 				{
					"id" : "obj-138",
					"maxclass" : "newobj",
					"numinlets" : 0,
					"numoutlets" : 1,
					"outlettype" : [ "" ],
					"patching_rect" : [ 82.0, 321.000030517578125, 59.0, 22.0 ],
					"text" : "r #0direct"
				}

			}
, 			{
				"box" : 				{
					"id" : "obj-134",
					"maxclass" : "newobj",
					"numinlets" : 1,
					"numoutlets" : 0,
					"patching_rect" : [ 284.133331298828125, 127.000030517578125, 61.0, 22.0 ],
					"text" : "s #0direct"
				}

			}
, 			{
				"box" : 				{
					"id" : "obj-106",
					"maxclass" : "newobj",
					"numinlets" : 1,
					"numoutlets" : 1,
					"outlettype" : [ "" ],
					"patching_rect" : [ 363.666656494140625, -76.0, 70.0, 22.0 ],
					"text" : "loadmess 1"
				}

			}
, 			{
				"box" : 				{
					"id" : "obj-104",
					"maxclass" : "message",
					"numinlets" : 2,
					"numoutlets" : 1,
					"outlettype" : [ "" ],
					"patching_rect" : [ 369.0, 52.0, 50.0, 22.0 ],
					"text" : "1"
				}

			}
, 			{
				"box" : 				{
					"id" : "obj-51",
					"maxclass" : "newobj",
					"numinlets" : 2,
					"numoutlets" : 1,
					"outlettype" : [ "int" ],
					"patching_rect" : [ 367.0, -20.0, 33.0, 22.0 ],
					"text" : "== 0"
				}

			}
, 			{
				"box" : 				{
					"id" : "obj-49",
					"maxclass" : "newobj",
					"numinlets" : 2,
					"numoutlets" : 1,
					"outlettype" : [ "int" ],
					"patching_rect" : [ 368.0, 9.0, 29.5, 22.0 ],
					"text" : "+ 1"
				}

			}
, 			{
				"box" : 				{
					"bgcolor" : [ 0.43921568627451, 0.333333333333333, 0.0, 1.0 ],
					"bgoncolor" : [ 0.007843137254902, 0.47843137254902, 0.0, 1.0 ],
					"id" : "obj-43",
					"maxclass" : "textbutton",
					"mode" : 1,
					"numinlets" : 1,
					"numoutlets" : 3,
					"outlettype" : [ "", "", "int" ],
					"parameter_enable" : 0,
					"patching_rect" : [ 368.0, -45.0, 100.0, 20.0 ],
					"presentation" : 1,
					"presentation_rect" : [ 471.0, 248.0, 100.0, 20.0 ],
					"text" : "Direct Play",
					"textcolor" : [ 0.901960784313726, 0.901960784313726, 0.901960784313726, 1.0 ],
					"texton" : "InstaSeq",
					"textoncolor" : [ 0.941176470588235, 0.941176470588235, 0.941176470588235, 1.0 ],
					"usebgoncolor" : 1
				}

			}
, 			{
				"box" : 				{
					"id" : "obj-2",
					"maxclass" : "newobj",
					"numinlets" : 2,
					"numoutlets" : 2,
					"outlettype" : [ "", "" ],
					"patching_rect" : [ 251.133331298828125, 90.0, 52.0, 22.0 ],
					"text" : "gate 2 1"
				}

			}
, 			{
				"box" : 				{
					"id" : "obj-33",
					"maxclass" : "message",
					"numinlets" : 2,
					"numoutlets" : 1,
					"outlettype" : [ "" ],
					"patching_rect" : [ 280.633331298828125, 34.0, 50.0, 22.0 ],
					"text" : "8 1 0"
				}

			}
, 			{
				"box" : 				{
					"id" : "obj-7",
					"maxclass" : "newobj",
					"numinlets" : 1,
					"numoutlets" : 1,
					"outlettype" : [ "" ],
					"patching_rect" : [ 190.0, -81.0, 70.0, 22.0 ],
					"text" : "loadmess 1"
				}

			}
, 			{
				"box" : 				{
					"id" : "obj-4",
					"maxclass" : "toggle",
					"numinlets" : 1,
					"numoutlets" : 1,
					"outlettype" : [ "int" ],
					"parameter_enable" : 0,
					"patching_rect" : [ 190.0, -45.0, 24.0, 24.0 ]
				}

			}
, 			{
				"box" : 				{
					"id" : "obj-34",
					"maxclass" : "newobj",
					"numinlets" : 0,
					"numoutlets" : 1,
					"outlettype" : [ "" ],
					"patcher" : 					{
						"fileversion" : 1,
						"appversion" : 						{
							"major" : 8,
							"minor" : 1,
							"revision" : 3,
							"architecture" : "x64",
							"modernui" : 1
						}
,
						"classnamespace" : "box",
						"rect" : [ 674.0, 107.0, 640.0, 480.0 ],
						"bglocked" : 0,
						"openinpresentation" : 0,
						"default_fontsize" : 12.0,
						"default_fontface" : 0,
						"default_fontname" : "Arial",
						"gridonopen" : 1,
						"gridsize" : [ 15.0, 15.0 ],
						"gridsnaponopen" : 1,
						"objectsnaponopen" : 1,
						"statusbarvisible" : 2,
						"toolbarvisible" : 1,
						"lefttoolbarpinned" : 0,
						"toptoolbarpinned" : 0,
						"righttoolbarpinned" : 0,
						"bottomtoolbarpinned" : 0,
						"toolbars_unpinned_last_save" : 0,
						"tallnewobj" : 0,
						"boxanimatetime" : 200,
						"enablehscroll" : 1,
						"enablevscroll" : 1,
						"devicewidth" : 0.0,
						"description" : "",
						"digest" : "",
						"tags" : "",
						"style" : "",
						"subpatcher_template" : "",
						"boxes" : [ 							{
								"box" : 								{
									"format" : 6,
									"id" : "obj-11",
									"maxclass" : "flonum",
									"numinlets" : 1,
									"numoutlets" : 2,
									"outlettype" : [ "", "bang" ],
									"parameter_enable" : 0,
									"patching_rect" : [ -13.600000202655792, 246.400003671646118, 50.0, 22.0 ]
								}

							}
, 							{
								"box" : 								{
									"id" : "obj-9",
									"maxclass" : "message",
									"numinlets" : 2,
									"numoutlets" : 1,
									"outlettype" : [ "" ],
									"patching_rect" : [ 189.0, 351.0, 49.0, 22.0 ],
									"text" : "$1 $2 0"
								}

							}
, 							{
								"box" : 								{
									"id" : "obj-5",
									"maxclass" : "newobj",
									"numinlets" : 2,
									"numoutlets" : 1,
									"outlettype" : [ "" ],
									"patching_rect" : [ 193.0, 305.0, 34.0, 22.0 ],
									"text" : "pack"
								}

							}
, 							{
								"box" : 								{
									"id" : "obj-3",
									"maxclass" : "newobj",
									"numinlets" : 2,
									"numoutlets" : 3,
									"outlettype" : [ "bang", "bang", "int" ],
									"patching_rect" : [ 202.0, 200.0, 40.0, 22.0 ],
									"text" : "uzi 2"
								}

							}
, 							{
								"box" : 								{
									"id" : "obj-1",
									"maxclass" : "newobj",
									"numinlets" : 2,
									"numoutlets" : 3,
									"outlettype" : [ "bang", "bang", "int" ],
									"patching_rect" : [ 171.0, 266.0, 41.0, 22.0 ],
									"text" : "uzi 16"
								}

							}
, 							{
								"box" : 								{
									"id" : "obj-21",
									"maxclass" : "message",
									"numinlets" : 2,
									"numoutlets" : 1,
									"outlettype" : [ "" ],
									"patching_rect" : [ 55.0, 204.20001220703125, 35.0, 22.0 ],
									"text" : "2 2 0"
								}

							}
, 							{
								"box" : 								{
									"id" : "obj-7",
									"maxclass" : "message",
									"numinlets" : 2,
									"numoutlets" : 1,
									"outlettype" : [ "" ],
									"patching_rect" : [ 59.0, 166.20001220703125, 35.0, 22.0 ],
									"text" : "1 1 0"
								}

							}
, 							{
								"box" : 								{
									"id" : "obj-4",
									"maxclass" : "newobj",
									"numinlets" : 1,
									"numoutlets" : 1,
									"outlettype" : [ "" ],
									"patching_rect" : [ 50.0, 134.0, 54.0, 22.0 ],
									"text" : "deferlow"
								}

							}
, 							{
								"box" : 								{
									"id" : "obj-2",
									"maxclass" : "newobj",
									"numinlets" : 1,
									"numoutlets" : 1,
									"outlettype" : [ "bang" ],
									"patching_rect" : [ 50.0, 100.0, 58.0, 22.0 ],
									"text" : "loadbang"
								}

							}
, 							{
								"box" : 								{
									"comment" : "",
									"id" : "obj-33",
									"index" : 1,
									"maxclass" : "outlet",
									"numinlets" : 1,
									"numoutlets" : 0,
									"patching_rect" : [ 51.0, 286.200012000000015, 30.0, 30.0 ]
								}

							}
 ],
						"lines" : [ 							{
								"patchline" : 								{
									"destination" : [ "obj-5", 0 ],
									"source" : [ "obj-1", 2 ]
								}

							}
, 							{
								"patchline" : 								{
									"destination" : [ "obj-4", 0 ],
									"source" : [ "obj-2", 0 ]
								}

							}
, 							{
								"patchline" : 								{
									"destination" : [ "obj-1", 0 ],
									"source" : [ "obj-3", 0 ]
								}

							}
, 							{
								"patchline" : 								{
									"destination" : [ "obj-5", 1 ],
									"source" : [ "obj-3", 2 ]
								}

							}
, 							{
								"patchline" : 								{
									"destination" : [ "obj-21", 0 ],
									"order" : 2,
									"source" : [ "obj-4", 0 ]
								}

							}
, 							{
								"patchline" : 								{
									"destination" : [ "obj-3", 0 ],
									"order" : 0,
									"source" : [ "obj-4", 0 ]
								}

							}
, 							{
								"patchline" : 								{
									"destination" : [ "obj-7", 0 ],
									"order" : 1,
									"source" : [ "obj-4", 0 ]
								}

							}
, 							{
								"patchline" : 								{
									"destination" : [ "obj-9", 0 ],
									"source" : [ "obj-5", 0 ]
								}

							}
, 							{
								"patchline" : 								{
									"destination" : [ "obj-33", 0 ],
									"source" : [ "obj-9", 0 ]
								}

							}
 ]
					}
,
					"patching_rect" : [ 7.0, 182.0, 87.0, 22.0 ],
					"saved_object_attributes" : 					{
						"description" : "",
						"digest" : "",
						"globalpatchername" : "",
						"tags" : ""
					}
,
					"text" : "p clearOnLoad"
				}

			}
, 			{
				"box" : 				{
					"id" : "obj-89",
					"maxclass" : "message",
					"numinlets" : 2,
					"numoutlets" : 1,
					"outlettype" : [ "" ],
					"patching_rect" : [ 313.0, 603.0, 29.5, 22.0 ],
					"text" : "36"
				}

			}
, 			{
				"box" : 				{
					"id" : "obj-98",
					"maxclass" : "newobj",
					"numinlets" : 2,
					"numoutlets" : 1,
					"outlettype" : [ "" ],
					"patching_rect" : [ 313.0, 632.0, 74.0, 22.0 ],
					"text" : "pack 50 127"
				}

			}
, 			{
				"box" : 				{
					"id" : "obj-82",
					"maxclass" : "message",
					"numinlets" : 2,
					"numoutlets" : 1,
					"outlettype" : [ "" ],
					"patching_rect" : [ 208.0, 603.0, 29.5, 22.0 ],
					"text" : "38"
				}

			}
, 			{
				"box" : 				{
					"id" : "obj-40",
					"maxclass" : "newobj",
					"numinlets" : 2,
					"numoutlets" : 1,
					"outlettype" : [ "" ],
					"patching_rect" : [ 208.0, 632.0, 74.0, 22.0 ],
					"text" : "pack 50 127"
				}

			}
, 			{
				"box" : 				{
					"id" : "obj-36",
					"maxclass" : "newobj",
					"numinlets" : 1,
					"numoutlets" : 1,
					"outlettype" : [ "" ],
					"patching_rect" : [ 363.666656494140625, 697.0, 80.0, 22.0 ],
					"text" : "loadmess 0.5"
				}

			}
, 			{
				"box" : 				{
					"id" : "obj-84",
					"maxclass" : "message",
					"numinlets" : 2,
					"numoutlets" : 1,
					"outlettype" : [ "" ],
					"patching_rect" : [ 81.833332061767578, 245.000030517578125, 50.0, 22.0 ],
					"text" : "8"
				}

			}
, 			{
				"box" : 				{
					"id" : "obj-83",
					"maxclass" : "comment",
					"numinlets" : 1,
					"numoutlets" : 0,
					"patching_rect" : [ 811.66668701171875, -60.0, 150.0, 20.0 ],
					"presentation" : 1,
					"presentation_rect" : [ 246.483322143554688, 186.288909912109375, 150.0, 20.0 ],
					"text" : "Current Preset:"
				}

			}
, 			{
				"box" : 				{
					"id" : "obj-55",
					"maxclass" : "number",
					"numinlets" : 1,
					"numoutlets" : 2,
					"outlettype" : [ "", "bang" ],
					"parameter_enable" : 0,
					"patching_rect" : [ 508.0, 176.0, 50.0, 22.0 ],
					"presentation" : 1,
					"presentation_rect" : [ 338.483322143554688, 186.288909912109375, 50.0, 22.0 ]
				}

			}
, 			{
				"box" : 				{
					"id" : "obj-31",
					"linecount" : 2,
					"maxclass" : "comment",
					"numinlets" : 1,
					"numoutlets" : 0,
					"patching_rect" : [ 669.0, -100.133331298828125, 150.0, 33.0 ],
					"presentation" : 1,
					"presentation_rect" : [ 246.483322143554688, 234.288909912109375, 167.0, 20.0 ],
					"text" : "Store user presets (shift-click)"
				}

			}
, 			{
				"box" : 				{
					"id" : "obj-13",
					"maxclass" : "newobj",
					"numinlets" : 1,
					"numoutlets" : 1,
					"outlettype" : [ "" ],
					"patching_rect" : [ 549.0, 5.0, 70.0, 22.0 ],
					"text" : "loadmess 0"
				}

			}
, 			{
				"box" : 				{
					"id" : "obj-85",
					"maxclass" : "newobj",
					"numinlets" : 2,
					"numoutlets" : 1,
					"outlettype" : [ "int" ],
					"patching_rect" : [ 112.833332061767578, 209.0, 29.5, 22.0 ],
					"text" : "+ 1"
				}

			}
, 			{
				"box" : 				{
					"id" : "obj-81",
					"maxclass" : "newobj",
					"numinlets" : 2,
					"numoutlets" : 1,
					"outlettype" : [ "int" ],
					"patching_rect" : [ 549.0, 69.0, 29.5, 22.0 ],
					"text" : "+ 1"
				}

			}
, 			{
				"box" : 				{
					"id" : "obj-77",
					"maxclass" : "newobj",
					"numinlets" : 2,
					"numoutlets" : 1,
					"outlettype" : [ "int" ],
					"patching_rect" : [ 508.0, 99.0, 29.5, 22.0 ],
					"text" : "* 1"
				}

			}
, 			{
				"box" : 				{
					"id" : "obj-72",
					"maxclass" : "newobj",
					"numinlets" : 1,
					"numoutlets" : 2,
					"outlettype" : [ "", "" ],
					"patching_rect" : [ 642.20001220703125, 871.83331298828125, 132.0, 22.0 ],
					"text" : "MLE.pattrLocal instaKit"
				}

			}
, 			{
				"box" : 				{
					"id" : "obj-5",
					"maxclass" : "newobj",
					"numinlets" : 1,
					"numoutlets" : 4,
					"outlettype" : [ "", "", "", "" ],
					"patching_rect" : [ 784.70001220703125, 969.0, 56.0, 22.0 ],
					"restore" : 					{
						"live.grid" : [ 3, 10, 2, 0, 0, 2, 2, 2, 2, 2, 2, 2, 2, 2, 2 ]
					}
,
					"text" : "autopattr",
					"varname" : "u955001289"
				}

			}
, 			{
				"box" : 				{
					"id" : "obj-105",
					"maxclass" : "newobj",
					"numinlets" : 1,
					"numoutlets" : 1,
					"outlettype" : [ "" ],
					"patcher" : 					{
						"fileversion" : 1,
						"appversion" : 						{
							"major" : 8,
							"minor" : 1,
							"revision" : 3,
							"architecture" : "x64",
							"modernui" : 1
						}
,
						"classnamespace" : "box",
						"rect" : [ 0.0, 0.0, 640.0, 480.0 ],
						"bglocked" : 0,
						"openinpresentation" : 0,
						"default_fontsize" : 12.0,
						"default_fontface" : 0,
						"default_fontname" : "Arial",
						"gridonopen" : 1,
						"gridsize" : [ 15.0, 15.0 ],
						"gridsnaponopen" : 1,
						"objectsnaponopen" : 1,
						"statusbarvisible" : 2,
						"toolbarvisible" : 1,
						"lefttoolbarpinned" : 0,
						"toptoolbarpinned" : 0,
						"righttoolbarpinned" : 0,
						"bottomtoolbarpinned" : 0,
						"toolbars_unpinned_last_save" : 0,
						"tallnewobj" : 0,
						"boxanimatetime" : 200,
						"enablehscroll" : 1,
						"enablevscroll" : 1,
						"devicewidth" : 0.0,
						"description" : "",
						"digest" : "",
						"tags" : "",
						"style" : "",
						"subpatcher_template" : "",
						"boxes" : [ 							{
								"box" : 								{
									"id" : "obj-21",
									"maxclass" : "message",
									"numinlets" : 2,
									"numoutlets" : 1,
									"outlettype" : [ "" ],
									"patching_rect" : [ 50.0, 166.0, 65.0, 22.0 ],
									"text" : "append $1"
								}

							}
, 							{
								"box" : 								{
									"id" : "obj-19",
									"maxclass" : "newobj",
									"numinlets" : 2,
									"numoutlets" : 2,
									"outlettype" : [ "bang", "" ],
									"patching_rect" : [ 50.0, 127.0, 54.0, 22.0 ],
									"text" : "sel done"
								}

							}
, 							{
								"box" : 								{
									"id" : "obj-18",
									"maxclass" : "newobj",
									"numinlets" : 2,
									"numoutlets" : 2,
									"outlettype" : [ "", "" ],
									"patching_rect" : [ 50.0, 100.0, 82.0, 22.0 ],
									"text" : "route clientlist"
								}

							}
, 							{
								"box" : 								{
									"comment" : "",
									"id" : "obj-103",
									"index" : 1,
									"maxclass" : "inlet",
									"numinlets" : 0,
									"numoutlets" : 1,
									"outlettype" : [ "" ],
									"patching_rect" : [ 50.0, 40.0, 30.0, 30.0 ]
								}

							}
, 							{
								"box" : 								{
									"comment" : "",
									"id" : "obj-104",
									"index" : 1,
									"maxclass" : "outlet",
									"numinlets" : 1,
									"numoutlets" : 0,
									"patching_rect" : [ 50.0, 248.0, 30.0, 30.0 ]
								}

							}
 ],
						"lines" : [ 							{
								"patchline" : 								{
									"destination" : [ "obj-18", 0 ],
									"source" : [ "obj-103", 0 ]
								}

							}
, 							{
								"patchline" : 								{
									"destination" : [ "obj-19", 0 ],
									"source" : [ "obj-18", 0 ]
								}

							}
, 							{
								"patchline" : 								{
									"destination" : [ "obj-21", 0 ],
									"source" : [ "obj-19", 1 ]
								}

							}
, 							{
								"patchline" : 								{
									"destination" : [ "obj-104", 0 ],
									"source" : [ "obj-21", 0 ]
								}

							}
 ]
					}
,
					"patching_rect" : [ 475.0, 989.3333740234375, 55.0, 22.0 ],
					"saved_object_attributes" : 					{
						"description" : "",
						"digest" : "",
						"globalpatchername" : "",
						"tags" : ""
					}
,
					"text" : "p umenu"
				}

			}
, 			{
				"box" : 				{
					"id" : "obj-137",
					"maxclass" : "message",
					"numinlets" : 2,
					"numoutlets" : 1,
					"outlettype" : [ "" ],
					"patching_rect" : [ 510.166664123535156, 838.3333740234375, 77.0, 22.0 ],
					"text" : "clientwindow"
				}

			}
, 			{
				"box" : 				{
					"id" : "obj-142",
					"maxclass" : "message",
					"numinlets" : 2,
					"numoutlets" : 1,
					"outlettype" : [ "" ],
					"patching_rect" : [ 516.166664123535156, 899.3333740234375, 33.0, 22.0 ],
					"text" : "read"
				}

			}
, 			{
				"box" : 				{
					"id" : "obj-18",
					"maxclass" : "message",
					"numinlets" : 2,
					"numoutlets" : 1,
					"outlettype" : [ "" ],
					"patching_rect" : [ 510.166664123535156, 868.0, 89.0, 22.0 ],
					"text" : "storagewindow"
				}

			}
, 			{
				"box" : 				{
					"id" : "obj-57",
					"maxclass" : "newobj",
					"numinlets" : 1,
					"numoutlets" : 2,
					"outlettype" : [ "", "clear" ],
					"patching_rect" : [ 475.0, 933.3333740234375, 104.0, 22.0 ],
					"text" : "t getclientlist clear"
				}

			}
, 			{
				"box" : 				{
					"id" : "obj-61",
					"maxclass" : "button",
					"numinlets" : 1,
					"numoutlets" : 1,
					"outlettype" : [ "bang" ],
					"parameter_enable" : 0,
					"patching_rect" : [ 475.0, 899.3333740234375, 24.0, 24.0 ]
				}

			}
, 			{
				"box" : 				{
					"id" : "obj-62",
					"items" : [ "filename", ",", "Arate", ",", "Brate", ",", "Crate", ",", "source[1]", ",", "dest[1]", ",", "decay", ",", "decay[1]", ",", "decay[2]", ",", "dest", ",", "dest[10]", ",", "dest[11]", ",", "dest[12]", ",", "dest[3]", ",", "dest[4]", ",", "dest[5]", ",", "dest[6]", ",", "dest[7]", ",", "dest[8]", ",", "dest[9]", ",", "filter", ",", "filter[1]", ",", "filter[2]", ",", "gain", ",", "gain[1]", ",", "gain[2]", ",", "octave", ",", "octave[1]", ",", "octave[2]", ",", "pitch", ",", "pitch[1]", ",", "pitch[2]", ",", "source[10]", ",", "source[11]", ",", "source[12]", ",", "source[2]", ",", "source[3]", ",", "source[4]", ",", "source[5]", ",", "source[6]", ",", "source[7]", ",", "source[8]", ",", "source[9]", ",", "step", ",", "step[1]", ",", "step[2]", ",", "updateRate", ",", "MLE.paramScale::minVal", ",", "MLE.paramScale::maxVal", ",", "MLE.paramScale::exponent", ",", "MLE.paramScale::clipMode", ",", "MLE.paramScale[1]::minVal", ",", "MLE.paramScale[1]::maxVal", ",", "MLE.paramScale[1]::exponent", ",", "MLE.paramScale[1]::clipMode", ",", "MLE.paramScale[2]::minVal", ",", "MLE.paramScale[2]::maxVal", ",", "MLE.paramScale[2]::exponent", ",", "MLE.paramScale[2]::clipMode", ",", "MLE.paramScale[4]::minVal", ",", "MLE.paramScale[4]::maxVal", ",", "MLE.paramScale[4]::exponent", ",", "MLE.paramScale[4]::clipMode", ",", "MLE.paramScale[3]::minVal", ",", "MLE.paramScale[3]::maxVal", ",", "MLE.paramScale[3]::exponent", ",", "MLE.paramScale[3]::clipMode", ",", "MLE.paramScale[6]::minVal", ",", "MLE.paramScale[6]::maxVal", ",", "MLE.paramScale[6]::exponent", ",", "MLE.paramScale[6]::clipMode", ",", "MLE.paramScale[5]::minVal", ",", "MLE.paramScale[5]::maxVal", ",", "MLE.paramScale[5]::exponent", ",", "MLE.paramScale[5]::clipMode", ",", "MLE.paramScale[8]::minVal", ",", "MLE.paramScale[8]::maxVal", ",", "MLE.paramScale[8]::exponent", ",", "MLE.paramScale[8]::clipMode", ",", "MLE.paramScale[7]::minVal", ",", "MLE.paramScale[7]::maxVal", ",", "MLE.paramScale[7]::exponent", ",", "MLE.paramScale[7]::clipMode", ",", "MLE.paramScale[10]::minVal", ",", "MLE.paramScale[10]::maxVal", ",", "MLE.paramScale[10]::exponent", ",", "MLE.paramScale[10]::clipMode", ",", "MLE.paramScale[9]::minVal", ",", "MLE.paramScale[9]::maxVal", ",", "MLE.paramScale[9]::exponent", ",", "MLE.paramScale[9]::clipMode", ",", "MLE.paramScale[11]::minVal", ",", "MLE.paramScale[11]::maxVal", ",", "MLE.paramScale[11]::exponent", ",", "MLE.paramScale[11]::clipMode", ",", "MLE.arpeggio[1]::arpeggioMode", ",", "MLE.arpeggio[1]::octaveRange", ",", "MLE.bassline::2nd_wave", ",", "MLE.bassline::amplitude", ",", "MLE.bassline::attack", ",", "MLE.bassline::attack_filt", ",", "MLE.bassline::ctl_attack", ",", "MLE.bassline::ctl_cutoff", ",", "MLE.bassline::ctl_decay", ",", "MLE.bassline::ctl_env", ",", "MLE.bassline::ctl_filt_attack", ",", "MLE.bassline::ctl_filt_decay", ",", "MLE.bassline::ctl_filt_release", ",", "MLE.bassline::ctl_filt_sustain", ",", "MLE.bassline::ctl_glide", ",", "MLE.bassline::ctl_key", ",", "MLE.bassline::ctl_modfilt", ",", "MLE.bassline::ctl_modwave", ",", "MLE.bassline::ctl_release", ",", "MLE.bassline::ctl_res", ",", "MLE.bassline::ctl_subosc", ",", "MLE.bassline::ctl_sustain", ",", "MLE.bassline::ctl_vib_speed", ",", "MLE.bassline::cut", ",", "MLE.bassline::decay", ",", "MLE.bassline::decay_filt", ",", "MLE.bassline::env", ",", "MLE.bassline::filt_type", ",", "MLE.bassline::glide", ",", "MLE.bassline::key", ",", "MLE.bassline::mod_attack", ",", "MLE.bassline::mod_cutoff", ",", "MLE.bassline::mod_decay", ",", "MLE.bassline::mod_env", ",", "MLE.bassline::mod_filt", ",", "MLE.bassline::mod_filt_attack", ",", "MLE.bassline::mod_filt_decay", ",", "MLE.bassline::mod_filt_release", ",", "MLE.bassline::mod_filt_sustain", ",", "MLE.bassline::mod_glide", ",", "MLE.bassline::mod_key", ",", "MLE.bassline::mod_modfilt", ",", "MLE.bassline::mod_modwave", ",", "MLE.bassline::mod_pitch", ",", "MLE.bassline::mod_release", ",", "MLE.bassline::mod_res", ",", "MLE.bassline::mod_subosc", ",", "MLE.bassline::mod_sustain", ",", "MLE.bassline::mod_vib_speed", ",", "MLE.bassline::polyphony", ",", "MLE.bassline::release", ",", "MLE.bassline::release_filt", ",", "MLE.bassline::res", ",", "MLE.bassline::speed", ",", "MLE.bassline::subosc", ",", "MLE.bassline::sustain", ",", "MLE.bassline::sustain_filt", ",", "MLE.bassline::wave", ",", "MLE.bassline[1]::2nd_wave", ",", "MLE.bassline[1]::amplitude", ",", "MLE.bassline[1]::attack", ",", "MLE.bassline[1]::attack_filt", ",", "MLE.bassline[1]::ctl_attack", ",", "MLE.bassline[1]::ctl_cutoff", ",", "MLE.bassline[1]::ctl_decay", ",", "MLE.bassline[1]::ctl_env", ",", "MLE.bassline[1]::ctl_filt_attack", ",", "MLE.bassline[1]::ctl_filt_decay", ",", "MLE.bassline[1]::ctl_filt_release", ",", "MLE.bassline[1]::ctl_filt_sustain", ",", "MLE.bassline[1]::ctl_glide", ",", "MLE.bassline[1]::ctl_key", ",", "MLE.bassline[1]::ctl_modfilt", ",", "MLE.bassline[1]::ctl_modwave", ",", "MLE.bassline[1]::ctl_release", ",", "MLE.bassline[1]::ctl_res", ",", "MLE.bassline[1]::ctl_subosc", ",", "MLE.bassline[1]::ctl_sustain", ",", "MLE.bassline[1]::ctl_vib_speed", ",", "MLE.bassline[1]::cut", ",", "MLE.bassline[1]::decay", ",", "MLE.bassline[1]::decay_filt", ",", "MLE.bassline[1]::env", ",", "MLE.bassline[1]::filt_type", ",", "MLE.bassline[1]::glide", ",", "MLE.bassline[1]::key", ",", "MLE.bassline[1]::mod_attack", ",", "MLE.bassline[1]::mod_cutoff", ",", "MLE.bassline[1]::mod_decay", ",", "MLE.bassline[1]::mod_env", ",", "MLE.bassline[1]::mod_filt", ",", "MLE.bassline[1]::mod_filt_attack", ",", "MLE.bassline[1]::mod_filt_decay", ",", "MLE.bassline[1]::mod_filt_release", ",", "MLE.bassline[1]::mod_filt_sustain", ",", "MLE.bassline[1]::mod_glide", ",", "MLE.bassline[1]::mod_key", ",", "MLE.bassline[1]::mod_modfilt", ",", "MLE.bassline[1]::mod_modwave", ",", "MLE.bassline[1]::mod_pitch", ",", "MLE.bassline[1]::mod_release", ",", "MLE.bassline[1]::mod_res", ",", "MLE.bassline[1]::mod_subosc", ",", "MLE.bassline[1]::mod_sustain", ",", "MLE.bassline[1]::mod_vib_speed", ",", "MLE.bassline[1]::polyphony", ",", "MLE.bassline[1]::release", ",", "MLE.bassline[1]::release_filt", ",", "MLE.bassline[1]::res", ",", "MLE.bassline[1]::speed", ",", "MLE.bassline[1]::subosc", ",", "MLE.bassline[1]::sustain", ",", "MLE.bassline[1]::sustain_filt", ",", "MLE.bassline[1]::wave", ",", "MLE.bassline[2]::2nd_wave", ",", "MLE.bassline[2]::amplitude", ",", "MLE.bassline[2]::attack", ",", "MLE.bassline[2]::attack_filt", ",", "MLE.bassline[2]::ctl_attack", ",", "MLE.bassline[2]::ctl_cutoff", ",", "MLE.bassline[2]::ctl_decay", ",", "MLE.bassline[2]::ctl_env", ",", "MLE.bassline[2]::ctl_filt_attack", ",", "MLE.bassline[2]::ctl_filt_decay", ",", "MLE.bassline[2]::ctl_filt_release", ",", "MLE.bassline[2]::ctl_filt_sustain", ",", "MLE.bassline[2]::ctl_glide", ",", "MLE.bassline[2]::ctl_key", ",", "MLE.bassline[2]::ctl_modfilt", ",", "MLE.bassline[2]::ctl_modwave", ",", "MLE.bassline[2]::ctl_release", ",", "MLE.bassline[2]::ctl_res", ",", "MLE.bassline[2]::ctl_subosc", ",", "MLE.bassline[2]::ctl_sustain", ",", "MLE.bassline[2]::ctl_vib_speed", ",", "MLE.bassline[2]::cut", ",", "MLE.bassline[2]::decay", ",", "MLE.bassline[2]::decay_filt", ",", "MLE.bassline[2]::env", ",", "MLE.bassline[2]::filt_type", ",", "MLE.bassline[2]::glide", ",", "MLE.bassline[2]::key", ",", "MLE.bassline[2]::mod_attack", ",", "MLE.bassline[2]::mod_cutoff", ",", "MLE.bassline[2]::mod_decay", ",", "MLE.bassline[2]::mod_env", ",", "MLE.bassline[2]::mod_filt", ",", "MLE.bassline[2]::mod_filt_attack", ",", "MLE.bassline[2]::mod_filt_decay", ",", "MLE.bassline[2]::mod_filt_release", ",", "MLE.bassline[2]::mod_filt_sustain", ",", "MLE.bassline[2]::mod_glide", ",", "MLE.bassline[2]::mod_key", ",", "MLE.bassline[2]::mod_modfilt", ",", "MLE.bassline[2]::mod_modwave", ",", "MLE.bassline[2]::mod_pitch", ",", "MLE.bassline[2]::mod_release", ",", "MLE.bassline[2]::mod_res", ",", "MLE.bassline[2]::mod_subosc", ",", "MLE.bassline[2]::mod_sustain", ",", "MLE.bassline[2]::mod_vib_speed", ",", "MLE.bassline[2]::polyphony", ",", "MLE.bassline[2]::release", ",", "MLE.bassline[2]::release_filt", ",", "MLE.bassline[2]::res", ",", "MLE.bassline[2]::speed", ",", "MLE.bassline[2]::subosc", ",", "MLE.bassline[2]::sustain", ",", "MLE.bassline[2]::sustain_filt", ",", "MLE.bassline[2]::wave" ],
					"maxclass" : "umenu",
					"numinlets" : 1,
					"numoutlets" : 3,
					"outlettype" : [ "int", "", "" ],
					"parameter_enable" : 0,
					"patching_rect" : [ 475.0, 1019.3333740234375, 100.0, 22.0 ]
				}

			}
, 			{
				"box" : 				{
					"id" : "obj-69",
					"maxclass" : "preset",
					"numinlets" : 1,
					"numoutlets" : 4,
					"outlettype" : [ "preset", "int", "preset", "int" ],
					"patching_rect" : [ 755.20001220703125, 904.0, 100.0, 40.0 ],
					"pattrstorage" : "instaKit",
					"presentation" : 1,
					"presentation_rect" : [ 246.483322143554688, 253.499969482421875, 165.0, 18.0 ]
				}

			}
, 			{
				"box" : 				{
					"autorestore" : "instaKit.json",
					"id" : "obj-70",
					"maxclass" : "newobj",
					"numinlets" : 1,
					"numoutlets" : 1,
					"outlettype" : [ "" ],
					"patching_rect" : [ 475.0, 958.2000732421875, 258.0, 22.0 ],
					"saved_object_attributes" : 					{
						"client_rect" : [ 4, 44, 358, 172 ],
						"parameter_enable" : 0,
						"parameter_mappable" : 0,
						"storage_rect" : [ 365, 79, 816, 207 ]
					}
,
					"text" : "pattrstorage instaKit @savemode 1 @greedy 1",
					"varname" : "instaKit[1]"
				}

			}
, 			{
				"box" : 				{
					"id" : "obj-60",
					"maxclass" : "newobj",
					"numinlets" : 2,
					"numoutlets" : 2,
					"outlettype" : [ "", "" ],
					"patching_rect" : [ 508.0, 147.0, 104.0, 22.0 ],
					"text" : "gate 2"
				}

			}
, 			{
				"box" : 				{
					"id" : "obj-58",
					"maxclass" : "newobj",
					"numinlets" : 1,
					"numoutlets" : 2,
					"outlettype" : [ "int", "int" ],
					"patching_rect" : [ 480.0, 57.0, 47.0, 22.0 ],
					"text" : "unpack"
				}

			}
, 			{
				"box" : 				{
					"id" : "obj-53",
					"maxclass" : "preset",
					"numinlets" : 1,
					"numoutlets" : 4,
					"outlettype" : [ "preset", "int", "preset", "int" ],
					"patching_rect" : [ 821.70001220703125, -107.133331298828125, 100.0, 40.0 ],
					"preset_data" : [ 						{
							"number" : 1,
							"data" : [ 5, "<invalid>", "slider", "float", 85.0, 5, "<invalid>", "slider", "float", 79.0, 5, "<invalid>", "slider", "float", 45.0, 5, "<invalid>", "slider", "float", 51.0, 5, "<invalid>", "slider", "float", 0.0, 5, "<invalid>", "slider", "float", 30.0 ]
						}
, 						{
							"number" : 2,
							"data" : [ 5, "<invalid>", "slider", "float", 85.0, 5, "<invalid>", "slider", "float", 75.0, 5, "<invalid>", "slider", "float", 31.0, 5, "<invalid>", "slider", "float", 62.0, 5, "<invalid>", "slider", "float", 0.0, 5, "<invalid>", "slider", "float", 58.0 ]
						}
, 						{
							"number" : 3,
							"data" : [ 5, "<invalid>", "slider", "float", 85.0, 5, "<invalid>", "slider", "float", 67.0, 5, "<invalid>", "slider", "float", 23.0, 5, "<invalid>", "slider", "float", 66.0, 5, "<invalid>", "slider", "float", 0.0, 5, "<invalid>", "slider", "float", 95.0 ]
						}
, 						{
							"number" : 4,
							"data" : [ 5, "<invalid>", "slider", "float", 73.0, 5, "<invalid>", "slider", "float", 67.0, 5, "<invalid>", "slider", "float", 72.0, 5, "<invalid>", "slider", "float", 86.0, 5, "<invalid>", "slider", "float", 0.0, 5, "<invalid>", "slider", "float", 109.0 ]
						}
, 						{
							"number" : 5,
							"data" : [ 5, "<invalid>", "slider", "float", 85.0, 5, "<invalid>", "slider", "float", 22.0, 5, "<invalid>", "slider", "float", 85.0, 5, "<invalid>", "slider", "float", 28.0, 5, "<invalid>", "slider", "float", 62.0 ]
						}
, 						{
							"number" : 6,
							"data" : [ 5, "<invalid>", "slider", "float", 70.0, 5, "<invalid>", "slider", "float", 22.0, 5, "<invalid>", "slider", "float", 85.0, 5, "<invalid>", "slider", "float", 54.0, 5, "<invalid>", "slider", "float", 75.0 ]
						}
, 						{
							"number" : 7,
							"data" : [ 5, "<invalid>", "slider", "float", 66.0, 5, "<invalid>", "slider", "float", 47.0, 5, "<invalid>", "slider", "float", 64.0, 5, "<invalid>", "slider", "float", 95.0, 5, "<invalid>", "slider", "float", 84.0 ]
						}
, 						{
							"number" : 8,
							"data" : [ 5, "<invalid>", "slider", "float", 72.0, 5, "<invalid>", "slider", "float", 18.0, 5, "<invalid>", "slider", "float", 82.0, 5, "<invalid>", "slider", "float", 109.0, 5, "<invalid>", "slider", "float", 44.0 ]
						}
, 						{
							"number" : 9,
							"data" : [ 5, "<invalid>", "slider", "float", 74.0, 5, "<invalid>", "slider", "float", 12.0, 5, "<invalid>", "slider", "float", 67.0, 5, "<invalid>", "slider", "float", 109.0, 5, "<invalid>", "slider", "float", 63.0 ]
						}
, 						{
							"number" : 10,
							"data" : [ 5, "<invalid>", "slider", "float", 78.0, 5, "<invalid>", "slider", "float", 12.0, 5, "<invalid>", "slider", "float", 106.0, 5, "<invalid>", "slider", "float", 116.0, 5, "<invalid>", "slider", "float", 83.0 ]
						}
 ]
				}

			}
, 			{
				"box" : 				{
					"fontname" : "Courier",
					"fontsize" : 24.0,
					"id" : "obj-120",
					"maxclass" : "comment",
					"numinlets" : 1,
					"numoutlets" : 0,
					"patching_rect" : [ -0.666667938232422, 1.0, 164.0, 30.0 ],
					"presentation" : 1,
					"presentation_rect" : [ 139.083328247070312, -2.000005722045898, 138.0, 30.0 ],
					"text" : "instaSeq8",
					"textcolor" : [ 0.462745100259781, 0.462745100259781, 0.462745100259781, 1.0 ]
				}

			}
, 			{
				"box" : 				{
					"bgcolor" : [ 0.301960784313725, 0.301960784313725, 0.301960784313725, 1.0 ],
					"fontname" : "Courier",
					"fontsize" : 12.0,
					"id" : "obj-119",
					"maxclass" : "comment",
					"numinlets" : 1,
					"numoutlets" : 0,
					"patching_rect" : [ 389.0, 518.666656494140625, 108.0, 18.0 ],
					"presentation" : 1,
					"presentation_rect" : [ 243.000015258789062, 84.333328247070312, 59.0, 18.0 ],
					"text" : "ratchet",
					"textcolor" : [ 0.847058832645416, 0.847058832645416, 0.847058832645416, 1.0 ]
				}

			}
, 			{
				"box" : 				{
					"bgcolor" : [ 0.301960784313725, 0.301960784313725, 0.301960784313725, 1.0 ],
					"fontname" : "Courier",
					"fontsize" : 12.0,
					"id" : "obj-118",
					"maxclass" : "comment",
					"numinlets" : 1,
					"numoutlets" : 0,
					"patching_rect" : [ 332.166656494140625, 166.0, 108.0, 18.0 ],
					"presentation" : 1,
					"presentation_rect" : [ 246.483322143554688, 158.0, 52.033355712890625, 18.0 ],
					"text" : "pitch",
					"textcolor" : [ 0.847058832645416, 0.847058832645416, 0.847058832645416, 1.0 ]
				}

			}
, 			{
				"box" : 				{
					"fontname" : "Courier",
					"fontsize" : 24.0,
					"id" : "obj-116",
					"maxclass" : "comment",
					"numinlets" : 1,
					"numoutlets" : 0,
					"patching_rect" : [ 600.00006103515625, 265.0, 23.0, 30.0 ],
					"presentation" : 1,
					"presentation_rect" : [ 277.999969482421875, 54.333332061767578, 25.0, 30.0 ],
					"text" : ";",
					"textcolor" : [ 0.847058832645416, 0.847058832645416, 0.847058832645416, 1.0 ]
				}

			}
, 			{
				"box" : 				{
					"fontname" : "Courier",
					"fontsize" : 24.0,
					"id" : "obj-117",
					"maxclass" : "comment",
					"numinlets" : 1,
					"numoutlets" : 0,
					"patching_rect" : [ 559.0, 265.0, 23.0, 30.0 ],
					"presentation" : 1,
					"presentation_rect" : [ 243.000015258789062, 54.333332061767578, 25.0, 30.0 ],
					"text" : "l",
					"textcolor" : [ 0.847058832645416, 0.847058832645416, 0.847058832645416, 1.0 ]
				}

			}
, 			{
				"box" : 				{
					"fontname" : "Courier",
					"fontsize" : 24.0,
					"id" : "obj-115",
					"maxclass" : "comment",
					"numinlets" : 1,
					"numoutlets" : 0,
					"patching_rect" : [ 600.00006103515625, 355.0, 23.0, 30.0 ],
					"presentation" : 1,
					"presentation_rect" : [ 277.999969482421875, 127.0, 25.0, 30.0 ],
					"text" : "/",
					"textcolor" : [ 0.847058832645416, 0.847058832645416, 0.847058832645416, 1.0 ]
				}

			}
, 			{
				"box" : 				{
					"fontname" : "Courier",
					"fontsize" : 24.0,
					"id" : "obj-114",
					"maxclass" : "comment",
					"numinlets" : 1,
					"numoutlets" : 0,
					"patching_rect" : [ 564.3333740234375, 355.0, 23.0, 30.0 ],
					"presentation" : 1,
					"presentation_rect" : [ 243.000015258789062, 127.0, 25.0, 30.0 ],
					"text" : ".",
					"textcolor" : [ 0.847058832645416, 0.847058832645416, 0.847058832645416, 1.0 ]
				}

			}
, 			{
				"box" : 				{
					"fontname" : "Courier",
					"fontsize" : 24.0,
					"id" : "obj-112",
					"maxclass" : "comment",
					"numinlets" : 1,
					"numoutlets" : 0,
					"patching_rect" : [ 417.0, 358.666656494140625, 23.0, 30.0 ],
					"presentation" : 1,
					"presentation_rect" : [ 120.999992370605469, 147.0, 25.0, 30.0 ],
					"text" : "b",
					"textcolor" : [ 0.847058832645416, 0.847058832645416, 0.847058832645416, 1.0 ]
				}

			}
, 			{
				"box" : 				{
					"fontname" : "Courier",
					"fontsize" : 24.0,
					"id" : "obj-111",
					"maxclass" : "comment",
					"numinlets" : 1,
					"numoutlets" : 0,
					"patching_rect" : [ 411.0, 270.333343505859375, 23.0, 30.0 ],
					"presentation" : 1,
					"presentation_rect" : [ 120.999992370605469, 74.333328247070312, 25.0, 30.0 ],
					"text" : "g",
					"textcolor" : [ 0.847058832645416, 0.847058832645416, 0.847058832645416, 1.0 ]
				}

			}
, 			{
				"box" : 				{
					"fontname" : "Courier",
					"fontsize" : 24.0,
					"id" : "obj-110",
					"maxclass" : "comment",
					"numinlets" : 1,
					"numoutlets" : 0,
					"patching_rect" : [ 255.0, 270.333343505859375, 23.0, 30.0 ],
					"presentation" : 1,
					"presentation_rect" : [ 2.999993801116943, 74.333328247070312, 25.0, 30.0 ],
					"text" : "a",
					"textcolor" : [ 0.847058832645416, 0.847058832645416, 0.847058832645416, 1.0 ]
				}

			}
, 			{
				"box" : 				{
					"fontname" : "Courier",
					"fontsize" : 24.0,
					"id" : "obj-109",
					"maxclass" : "comment",
					"numinlets" : 1,
					"numoutlets" : 0,
					"patching_rect" : [ 255.0, 358.666656494140625, 193.0, 30.0 ],
					"presentation" : 1,
					"presentation_rect" : [ 2.999993801116943, 147.0, 25.0, 30.0 ],
					"text" : "z",
					"textcolor" : [ 0.847058832645416, 0.847058832645416, 0.847058832645416, 1.0 ]
				}

			}
, 			{
				"box" : 				{
					"id" : "obj-91",
					"maxclass" : "message",
					"numinlets" : 2,
					"numoutlets" : 1,
					"outlettype" : [ "" ],
					"patching_rect" : [ 313.0, 186.000030517578125, 49.0, 22.0 ],
					"text" : "$1 1 $2"
				}

			}
, 			{
				"box" : 				{
					"id" : "obj-86",
					"maxclass" : "comment",
					"numinlets" : 1,
					"numoutlets" : 0,
					"patching_rect" : [ 6.333332061767578, 104.666679382324219, 42.0, 20.0 ],
					"presentation" : 1,
					"presentation_rect" : [ 54.999992370605469, 2.999994277954102, 42.0, 20.0 ],
					"text" : "tempo"
				}

			}
, 			{
				"box" : 				{
					"id" : "obj-80",
					"maxclass" : "comment",
					"numinlets" : 1,
					"numoutlets" : 0,
					"patching_rect" : [ 363.666656494140625, 728.66668701171875, 45.0, 20.0 ],
					"presentation" : 1,
					"presentation_rect" : [ 2.999993801116943, 180.66668701171875, 45.0, 20.0 ],
					"text" : "Master"
				}

			}
, 			{
				"box" : 				{
					"floatoutput" : 1,
					"id" : "obj-74",
					"maxclass" : "dial",
					"numinlets" : 1,
					"numoutlets" : 1,
					"outlettype" : [ "float" ],
					"parameter_enable" : 0,
					"patching_rect" : [ 363.666656494140625, 750.66668701171875, 40.0, 40.0 ],
					"presentation" : 1,
					"presentation_rect" : [ 2.999993801116943, 202.66668701171875, 44.866668701171875, 44.866668701171875 ],
					"size" : 1.0
				}

			}
, 			{
				"box" : 				{
					"id" : "obj-38",
					"maxclass" : "message",
					"numinlets" : 2,
					"numoutlets" : 1,
					"outlettype" : [ "" ],
					"patching_rect" : [ 1087.8333740234375, -149.0, 89.0, 22.0 ],
					"text" : "storagewindow"
				}

			}
, 			{
				"box" : 				{
					"id" : "obj-37",
					"maxclass" : "message",
					"numinlets" : 2,
					"numoutlets" : 1,
					"outlettype" : [ "" ],
					"patching_rect" : [ 1003.8333740234375, -149.0, 77.0, 22.0 ],
					"text" : "clientwindow"
				}

			}
, 			{
				"box" : 				{
					"autorestore" : "instaKit.json",
					"id" : "obj-14",
					"maxclass" : "newobj",
					"numinlets" : 1,
					"numoutlets" : 1,
					"outlettype" : [ "" ],
					"patching_rect" : [ 1003.8333740234375, -112.5, 258.0, 22.0 ],
					"saved_object_attributes" : 					{
						"client_rect" : [ 4, 44, 358, 172 ],
						"parameter_enable" : 0,
						"parameter_mappable" : 0,
						"storage_rect" : [ 365, 79, 816, 207 ]
					}
,
					"text" : "pattrstorage instaKit @savemode 1 @greedy 1",
					"varname" : "instaKit"
				}

			}
, 			{
				"box" : 				{
					"id" : "obj-3",
					"maxclass" : "newobj",
					"numinlets" : 2,
					"numoutlets" : 2,
					"outlettype" : [ "bang", "" ],
					"patching_rect" : [ 128.0, 486.5333251953125, 34.0, 22.0 ],
					"text" : "sel 0"
				}

			}
, 			{
				"box" : 				{
					"id" : "obj-122",
					"maxclass" : "newobj",
					"numinlets" : 2,
					"numoutlets" : 2,
					"outlettype" : [ "", "" ],
					"patching_rect" : [ 143.0, 558.0, 84.0, 22.0 ],
					"text" : "gate 2"
				}

			}
, 			{
				"box" : 				{
					"id" : "obj-121",
					"maxclass" : "message",
					"numinlets" : 2,
					"numoutlets" : 1,
					"outlettype" : [ "" ],
					"patching_rect" : [ 56.333332061767578, 73.5, 41.0, 22.0 ],
					"text" : "set $1"
				}

			}
, 			{
				"box" : 				{
					"id" : "obj-108",
					"maxclass" : "newobj",
					"numinlets" : 3,
					"numoutlets" : 1,
					"outlettype" : [ "bang" ],
					"patcher" : 					{
						"fileversion" : 1,
						"appversion" : 						{
							"major" : 8,
							"minor" : 1,
							"revision" : 3,
							"architecture" : "x64",
							"modernui" : 1
						}
,
						"classnamespace" : "box",
						"rect" : [ 698.0, 332.0, 640.0, 480.0 ],
						"bglocked" : 0,
						"openinpresentation" : 0,
						"default_fontsize" : 12.0,
						"default_fontface" : 0,
						"default_fontname" : "Arial",
						"gridonopen" : 1,
						"gridsize" : [ 15.0, 15.0 ],
						"gridsnaponopen" : 1,
						"objectsnaponopen" : 1,
						"statusbarvisible" : 2,
						"toolbarvisible" : 1,
						"lefttoolbarpinned" : 0,
						"toptoolbarpinned" : 0,
						"righttoolbarpinned" : 0,
						"bottomtoolbarpinned" : 0,
						"toolbars_unpinned_last_save" : 0,
						"tallnewobj" : 0,
						"boxanimatetime" : 200,
						"enablehscroll" : 1,
						"enablevscroll" : 1,
						"devicewidth" : 0.0,
						"description" : "",
						"digest" : "",
						"tags" : "",
						"style" : "",
						"subpatcher_template" : "",
						"boxes" : [ 							{
								"box" : 								{
									"id" : "obj-16",
									"maxclass" : "button",
									"numinlets" : 1,
									"numoutlets" : 1,
									"outlettype" : [ "bang" ],
									"parameter_enable" : 0,
									"patching_rect" : [ 344.0, 214.0, 24.0, 24.0 ]
								}

							}
, 							{
								"box" : 								{
									"id" : "obj-10",
									"maxclass" : "button",
									"numinlets" : 1,
									"numoutlets" : 1,
									"outlettype" : [ "bang" ],
									"parameter_enable" : 0,
									"patching_rect" : [ 342.0, 49.0, 24.0, 24.0 ]
								}

							}
, 							{
								"box" : 								{
									"id" : "obj-7",
									"maxclass" : "message",
									"numinlets" : 2,
									"numoutlets" : 1,
									"outlettype" : [ "" ],
									"patching_rect" : [ 264.0, 224.0, 50.0, 22.0 ],
									"text" : "0"
								}

							}
, 							{
								"box" : 								{
									"id" : "obj-11",
									"maxclass" : "message",
									"numinlets" : 2,
									"numoutlets" : 1,
									"outlettype" : [ "" ],
									"patching_rect" : [ 237.0, 123.333328247070312, 50.0, 22.0 ],
									"text" : "3 2 0"
								}

							}
, 							{
								"box" : 								{
									"id" : "obj-81",
									"maxclass" : "newobj",
									"numinlets" : 8,
									"numoutlets" : 1,
									"outlettype" : [ "bang" ],
									"patcher" : 									{
										"fileversion" : 1,
										"appversion" : 										{
											"major" : 8,
											"minor" : 1,
											"revision" : 3,
											"architecture" : "x64",
											"modernui" : 1
										}
,
										"classnamespace" : "box",
										"rect" : [ 59.0, 104.0, 640.0, 480.0 ],
										"bglocked" : 0,
										"openinpresentation" : 0,
										"default_fontsize" : 12.0,
										"default_fontface" : 0,
										"default_fontname" : "Arial",
										"gridonopen" : 1,
										"gridsize" : [ 15.0, 15.0 ],
										"gridsnaponopen" : 1,
										"objectsnaponopen" : 1,
										"statusbarvisible" : 2,
										"toolbarvisible" : 1,
										"lefttoolbarpinned" : 0,
										"toptoolbarpinned" : 0,
										"righttoolbarpinned" : 0,
										"bottomtoolbarpinned" : 0,
										"toolbars_unpinned_last_save" : 0,
										"tallnewobj" : 0,
										"boxanimatetime" : 200,
										"enablehscroll" : 1,
										"enablevscroll" : 1,
										"devicewidth" : 0.0,
										"description" : "",
										"digest" : "",
										"tags" : "",
										"style" : "",
										"subpatcher_template" : "",
										"boxes" : [ 											{
												"box" : 												{
													"id" : "obj-44",
													"maxclass" : "newobj",
													"numinlets" : 2,
													"numoutlets" : 1,
													"outlettype" : [ "bang" ],
													"patching_rect" : [ 291.666656494140625, 100.0, 37.0, 22.0 ],
													"text" : "delay"
												}

											}
, 											{
												"box" : 												{
													"id" : "obj-43",
													"maxclass" : "newobj",
													"numinlets" : 2,
													"numoutlets" : 1,
													"outlettype" : [ "bang" ],
													"patching_rect" : [ 291.666656494140625, 139.33331298828125, 37.0, 22.0 ],
													"text" : "delay"
												}

											}
, 											{
												"box" : 												{
													"id" : "obj-40",
													"maxclass" : "newobj",
													"numinlets" : 2,
													"numoutlets" : 1,
													"outlettype" : [ "bang" ],
													"patching_rect" : [ 291.666656494140625, 182.0, 37.0, 22.0 ],
													"text" : "delay"
												}

											}
, 											{
												"box" : 												{
													"id" : "obj-41",
													"maxclass" : "newobj",
													"numinlets" : 2,
													"numoutlets" : 1,
													"outlettype" : [ "bang" ],
													"patching_rect" : [ 291.666656494140625, 223.0, 37.0, 22.0 ],
													"text" : "delay"
												}

											}
, 											{
												"box" : 												{
													"id" : "obj-42",
													"maxclass" : "newobj",
													"numinlets" : 2,
													"numoutlets" : 1,
													"outlettype" : [ "bang" ],
													"patching_rect" : [ 291.666656494140625, 268.0, 37.0, 22.0 ],
													"text" : "delay"
												}

											}
, 											{
												"box" : 												{
													"id" : "obj-19",
													"maxclass" : "newobj",
													"numinlets" : 2,
													"numoutlets" : 1,
													"outlettype" : [ "bang" ],
													"patching_rect" : [ 227.0, 182.0, 37.0, 22.0 ],
													"text" : "delay"
												}

											}
, 											{
												"box" : 												{
													"id" : "obj-17",
													"maxclass" : "newobj",
													"numinlets" : 2,
													"numoutlets" : 1,
													"outlettype" : [ "bang" ],
													"patching_rect" : [ 227.0, 223.0, 37.0, 22.0 ],
													"text" : "delay"
												}

											}
, 											{
												"box" : 												{
													"id" : "obj-18",
													"maxclass" : "newobj",
													"numinlets" : 2,
													"numoutlets" : 1,
													"outlettype" : [ "bang" ],
													"patching_rect" : [ 227.0, 268.0, 37.0, 22.0 ],
													"text" : "delay"
												}

											}
, 											{
												"box" : 												{
													"id" : "obj-16",
													"maxclass" : "newobj",
													"numinlets" : 2,
													"numoutlets" : 1,
													"outlettype" : [ "bang" ],
													"patching_rect" : [ 148.0, 223.0, 37.0, 22.0 ],
													"text" : "delay"
												}

											}
, 											{
												"box" : 												{
													"id" : "obj-15",
													"maxclass" : "newobj",
													"numinlets" : 2,
													"numoutlets" : 1,
													"outlettype" : [ "bang" ],
													"patching_rect" : [ 148.0, 268.0, 37.0, 22.0 ],
													"text" : "delay"
												}

											}
, 											{
												"box" : 												{
													"id" : "obj-77",
													"maxclass" : "newobj",
													"numinlets" : 2,
													"numoutlets" : 1,
													"outlettype" : [ "bang" ],
													"patching_rect" : [ 50.0, 268.0, 37.0, 22.0 ],
													"text" : "delay"
												}

											}
, 											{
												"box" : 												{
													"comment" : "",
													"id" : "obj-67",
													"index" : 1,
													"maxclass" : "inlet",
													"numinlets" : 0,
													"numoutlets" : 1,
													"outlettype" : [ "" ],
													"patching_rect" : [ 50.0, 40.0, 30.0, 30.0 ]
												}

											}
, 											{
												"box" : 												{
													"comment" : "",
													"id" : "obj-68",
													"index" : 5,
													"maxclass" : "inlet",
													"numinlets" : 0,
													"numoutlets" : 1,
													"outlettype" : [ "int" ],
													"patching_rect" : [ 387.5, 40.0, 30.0, 30.0 ]
												}

											}
, 											{
												"box" : 												{
													"comment" : "",
													"id" : "obj-69",
													"index" : 2,
													"maxclass" : "inlet",
													"numinlets" : 0,
													"numoutlets" : 1,
													"outlettype" : [ "" ],
													"patching_rect" : [ 82.0, 40.0, 30.0, 30.0 ]
												}

											}
, 											{
												"box" : 												{
													"comment" : "",
													"id" : "obj-70",
													"index" : 6,
													"maxclass" : "inlet",
													"numinlets" : 0,
													"numoutlets" : 1,
													"outlettype" : [ "int" ],
													"patching_rect" : [ 419.5, 40.0, 30.0, 30.0 ]
												}

											}
, 											{
												"box" : 												{
													"comment" : "",
													"id" : "obj-71",
													"index" : 3,
													"maxclass" : "inlet",
													"numinlets" : 0,
													"numoutlets" : 1,
													"outlettype" : [ "" ],
													"patching_rect" : [ 119.5, 40.0, 30.0, 30.0 ]
												}

											}
, 											{
												"box" : 												{
													"comment" : "",
													"id" : "obj-72",
													"index" : 7,
													"maxclass" : "inlet",
													"numinlets" : 0,
													"numoutlets" : 1,
													"outlettype" : [ "int" ],
													"patching_rect" : [ 457.0, 40.0, 30.0, 30.0 ]
												}

											}
, 											{
												"box" : 												{
													"comment" : "",
													"id" : "obj-74",
													"index" : 4,
													"maxclass" : "inlet",
													"numinlets" : 0,
													"numoutlets" : 1,
													"outlettype" : [ "" ],
													"patching_rect" : [ 151.5, 40.0, 30.0, 30.0 ]
												}

											}
, 											{
												"box" : 												{
													"comment" : "",
													"id" : "obj-75",
													"index" : 8,
													"maxclass" : "inlet",
													"numinlets" : 0,
													"numoutlets" : 1,
													"outlettype" : [ "int" ],
													"patching_rect" : [ 492.0, 40.0, 30.0, 30.0 ]
												}

											}
, 											{
												"box" : 												{
													"comment" : "",
													"id" : "obj-78",
													"index" : 1,
													"maxclass" : "outlet",
													"numinlets" : 1,
													"numoutlets" : 0,
													"patching_rect" : [ 219.93939208984375, 350.0, 30.0, 30.0 ]
												}

											}
 ],
										"lines" : [ 											{
												"patchline" : 												{
													"destination" : [ "obj-78", 0 ],
													"source" : [ "obj-15", 0 ]
												}

											}
, 											{
												"patchline" : 												{
													"destination" : [ "obj-15", 0 ],
													"order" : 1,
													"source" : [ "obj-16", 0 ]
												}

											}
, 											{
												"patchline" : 												{
													"destination" : [ "obj-78", 0 ],
													"order" : 0,
													"source" : [ "obj-16", 0 ]
												}

											}
, 											{
												"patchline" : 												{
													"destination" : [ "obj-18", 0 ],
													"order" : 0,
													"source" : [ "obj-17", 0 ]
												}

											}
, 											{
												"patchline" : 												{
													"destination" : [ "obj-78", 0 ],
													"order" : 1,
													"source" : [ "obj-17", 0 ]
												}

											}
, 											{
												"patchline" : 												{
													"destination" : [ "obj-78", 0 ],
													"source" : [ "obj-18", 0 ]
												}

											}
, 											{
												"patchline" : 												{
													"destination" : [ "obj-17", 0 ],
													"order" : 0,
													"source" : [ "obj-19", 0 ]
												}

											}
, 											{
												"patchline" : 												{
													"destination" : [ "obj-78", 0 ],
													"order" : 1,
													"source" : [ "obj-19", 0 ]
												}

											}
, 											{
												"patchline" : 												{
													"destination" : [ "obj-41", 0 ],
													"order" : 0,
													"source" : [ "obj-40", 0 ]
												}

											}
, 											{
												"patchline" : 												{
													"destination" : [ "obj-78", 0 ],
													"order" : 1,
													"source" : [ "obj-40", 0 ]
												}

											}
, 											{
												"patchline" : 												{
													"destination" : [ "obj-42", 0 ],
													"order" : 0,
													"source" : [ "obj-41", 0 ]
												}

											}
, 											{
												"patchline" : 												{
													"destination" : [ "obj-78", 0 ],
													"order" : 1,
													"source" : [ "obj-41", 0 ]
												}

											}
, 											{
												"patchline" : 												{
													"destination" : [ "obj-78", 0 ],
													"source" : [ "obj-42", 0 ]
												}

											}
, 											{
												"patchline" : 												{
													"destination" : [ "obj-40", 0 ],
													"order" : 0,
													"source" : [ "obj-43", 0 ]
												}

											}
, 											{
												"patchline" : 												{
													"destination" : [ "obj-78", 0 ],
													"order" : 1,
													"source" : [ "obj-43", 0 ]
												}

											}
, 											{
												"patchline" : 												{
													"destination" : [ "obj-43", 0 ],
													"order" : 0,
													"source" : [ "obj-44", 0 ]
												}

											}
, 											{
												"patchline" : 												{
													"destination" : [ "obj-78", 0 ],
													"order" : 1,
													"source" : [ "obj-44", 0 ]
												}

											}
, 											{
												"patchline" : 												{
													"destination" : [ "obj-77", 0 ],
													"source" : [ "obj-67", 0 ]
												}

											}
, 											{
												"patchline" : 												{
													"destination" : [ "obj-77", 1 ],
													"source" : [ "obj-68", 0 ]
												}

											}
, 											{
												"patchline" : 												{
													"destination" : [ "obj-16", 0 ],
													"source" : [ "obj-69", 0 ]
												}

											}
, 											{
												"patchline" : 												{
													"destination" : [ "obj-15", 1 ],
													"order" : 0,
													"source" : [ "obj-70", 0 ]
												}

											}
, 											{
												"patchline" : 												{
													"destination" : [ "obj-16", 1 ],
													"order" : 1,
													"source" : [ "obj-70", 0 ]
												}

											}
, 											{
												"patchline" : 												{
													"destination" : [ "obj-19", 0 ],
													"source" : [ "obj-71", 0 ]
												}

											}
, 											{
												"patchline" : 												{
													"destination" : [ "obj-17", 1 ],
													"order" : 1,
													"source" : [ "obj-72", 0 ]
												}

											}
, 											{
												"patchline" : 												{
													"destination" : [ "obj-18", 1 ],
													"order" : 0,
													"source" : [ "obj-72", 0 ]
												}

											}
, 											{
												"patchline" : 												{
													"destination" : [ "obj-19", 1 ],
													"order" : 2,
													"source" : [ "obj-72", 0 ]
												}

											}
, 											{
												"patchline" : 												{
													"destination" : [ "obj-40", 0 ],
													"order" : 2,
													"source" : [ "obj-74", 0 ]
												}

											}
, 											{
												"patchline" : 												{
													"destination" : [ "obj-41", 0 ],
													"order" : 1,
													"source" : [ "obj-74", 0 ]
												}

											}
, 											{
												"patchline" : 												{
													"destination" : [ "obj-42", 0 ],
													"order" : 0,
													"source" : [ "obj-74", 0 ]
												}

											}
, 											{
												"patchline" : 												{
													"destination" : [ "obj-43", 0 ],
													"order" : 3,
													"source" : [ "obj-74", 0 ]
												}

											}
, 											{
												"patchline" : 												{
													"destination" : [ "obj-44", 0 ],
													"order" : 4,
													"source" : [ "obj-74", 0 ]
												}

											}
, 											{
												"patchline" : 												{
													"destination" : [ "obj-40", 1 ],
													"order" : 2,
													"source" : [ "obj-75", 0 ]
												}

											}
, 											{
												"patchline" : 												{
													"destination" : [ "obj-41", 1 ],
													"order" : 1,
													"source" : [ "obj-75", 0 ]
												}

											}
, 											{
												"patchline" : 												{
													"destination" : [ "obj-42", 1 ],
													"order" : 0,
													"source" : [ "obj-75", 0 ]
												}

											}
, 											{
												"patchline" : 												{
													"destination" : [ "obj-43", 1 ],
													"order" : 3,
													"source" : [ "obj-75", 0 ]
												}

											}
, 											{
												"patchline" : 												{
													"destination" : [ "obj-44", 1 ],
													"order" : 4,
													"source" : [ "obj-75", 0 ]
												}

											}
, 											{
												"patchline" : 												{
													"destination" : [ "obj-78", 0 ],
													"source" : [ "obj-77", 0 ]
												}

											}
 ]
									}
,
									"patching_rect" : [ 234.166656494140625, 386.833343505859375, 432.5, 22.0 ],
									"saved_object_attributes" : 									{
										"description" : "",
										"digest" : "",
										"globalpatchername" : "",
										"tags" : ""
									}
,
									"text" : "p delays"
								}

							}
, 							{
								"box" : 								{
									"id" : "obj-64",
									"maxclass" : "newobj",
									"numinlets" : 1,
									"numoutlets" : 1,
									"outlettype" : [ "" ],
									"patcher" : 									{
										"fileversion" : 1,
										"appversion" : 										{
											"major" : 8,
											"minor" : 1,
											"revision" : 3,
											"architecture" : "x64",
											"modernui" : 1
										}
,
										"classnamespace" : "box",
										"rect" : [ 59.0, 104.0, 640.0, 480.0 ],
										"bglocked" : 0,
										"openinpresentation" : 0,
										"default_fontsize" : 12.0,
										"default_fontface" : 0,
										"default_fontname" : "Arial",
										"gridonopen" : 1,
										"gridsize" : [ 15.0, 15.0 ],
										"gridsnaponopen" : 1,
										"objectsnaponopen" : 1,
										"statusbarvisible" : 2,
										"toolbarvisible" : 1,
										"lefttoolbarpinned" : 0,
										"toptoolbarpinned" : 0,
										"righttoolbarpinned" : 0,
										"bottomtoolbarpinned" : 0,
										"toolbars_unpinned_last_save" : 0,
										"tallnewobj" : 0,
										"boxanimatetime" : 200,
										"enablehscroll" : 1,
										"enablevscroll" : 1,
										"devicewidth" : 0.0,
										"description" : "",
										"digest" : "",
										"tags" : "",
										"style" : "",
										"subpatcher_template" : "",
										"boxes" : [ 											{
												"box" : 												{
													"id" : "obj-8",
													"maxclass" : "message",
													"numinlets" : 2,
													"numoutlets" : 1,
													"outlettype" : [ "" ],
													"patching_rect" : [ 52.0, 77.0, 39.0, 22.0 ],
													"text" : "$1 $3"
												}

											}
, 											{
												"box" : 												{
													"id" : "obj-6",
													"maxclass" : "message",
													"numinlets" : 2,
													"numoutlets" : 1,
													"outlettype" : [ "" ],
													"patching_rect" : [ 227.0, 109.0, 50.0, 22.0 ],
													"text" : "3 2 0"
												}

											}
, 											{
												"box" : 												{
													"id" : "obj-4",
													"maxclass" : "message",
													"numinlets" : 2,
													"numoutlets" : 1,
													"outlettype" : [ "" ],
													"patching_rect" : [ 127.0, 147.0, 35.0, 22.0 ],
													"text" : "clear"
												}

											}
, 											{
												"box" : 												{
													"id" : "obj-2",
													"maxclass" : "message",
													"numinlets" : 2,
													"numoutlets" : 1,
													"outlettype" : [ "" ],
													"patching_rect" : [ 142.0, 268.0, 50.0, 22.0 ],
													"text" : "0"
												}

											}
, 											{
												"box" : 												{
													"id" : "obj-61",
													"maxclass" : "message",
													"numinlets" : 2,
													"numoutlets" : 1,
													"outlettype" : [ "" ],
													"patching_rect" : [ 54.5, 217.333328247070312, 29.5, 22.0 ],
													"text" : "0"
												}

											}
, 											{
												"box" : 												{
													"id" : "obj-59",
													"maxclass" : "newobj",
													"numinlets" : 2,
													"numoutlets" : 2,
													"outlettype" : [ "bang", "" ],
													"patching_rect" : [ 54.5, 189.333343505859375, 34.0, 22.0 ],
													"text" : "sel 0"
												}

											}
, 											{
												"box" : 												{
													"id" : "obj-58",
													"maxclass" : "newobj",
													"numinlets" : 4,
													"numoutlets" : 4,
													"outlettype" : [ "", "", "", "" ],
													"patching_rect" : [ 50.0, 100.0, 104.0, 22.0 ],
													"text" : "routepass 9 10 11"
												}

											}
, 											{
												"box" : 												{
													"id" : "obj-55",
													"maxclass" : "newobj",
													"numinlets" : 1,
													"numoutlets" : 2,
													"outlettype" : [ "sum", "" ],
													"patching_rect" : [ 50.0, 130.666671752929688, 44.0, 22.0 ],
													"text" : "t sum l"
												}

											}
, 											{
												"box" : 												{
													"editor_rect" : [ 100.0, 100.0, 300.0, 300.0 ],
													"embed" : 0,
													"id" : "obj-54",
													"maxclass" : "newobj",
													"numinlets" : 2,
													"numoutlets" : 2,
													"outlettype" : [ "int", "bang" ],
													"patching_rect" : [ 54.5, 159.333328247070312, 35.0, 22.0 ],
													"saved_object_attributes" : 													{
														"embed" : 0,
														"name" : "",
														"parameter_enable" : 0,
														"parameter_mappable" : 0,
														"range" : 128,
														"showeditor" : 0,
														"size" : 128
													}
,
													"showeditor" : 0,
													"text" : "table"
												}

											}
, 											{
												"box" : 												{
													"comment" : "",
													"id" : "obj-62",
													"index" : 1,
													"maxclass" : "inlet",
													"numinlets" : 0,
													"numoutlets" : 1,
													"outlettype" : [ "" ],
													"patching_rect" : [ 50.0, 40.0, 30.0, 30.0 ]
												}

											}
, 											{
												"box" : 												{
													"comment" : "",
													"id" : "obj-63",
													"index" : 1,
													"maxclass" : "outlet",
													"numinlets" : 1,
													"numoutlets" : 0,
													"patching_rect" : [ 54.5, 299.333343505859375, 30.0, 30.0 ]
												}

											}
 ],
										"lines" : [ 											{
												"patchline" : 												{
													"destination" : [ "obj-54", 0 ],
													"source" : [ "obj-4", 0 ]
												}

											}
, 											{
												"patchline" : 												{
													"destination" : [ "obj-2", 1 ],
													"order" : 0,
													"source" : [ "obj-54", 0 ]
												}

											}
, 											{
												"patchline" : 												{
													"destination" : [ "obj-59", 0 ],
													"order" : 1,
													"source" : [ "obj-54", 0 ]
												}

											}
, 											{
												"patchline" : 												{
													"destination" : [ "obj-54", 0 ],
													"source" : [ "obj-55", 1 ]
												}

											}
, 											{
												"patchline" : 												{
													"destination" : [ "obj-54", 0 ],
													"source" : [ "obj-55", 0 ]
												}

											}
, 											{
												"patchline" : 												{
													"destination" : [ "obj-55", 0 ],
													"source" : [ "obj-58", 2 ]
												}

											}
, 											{
												"patchline" : 												{
													"destination" : [ "obj-55", 0 ],
													"source" : [ "obj-58", 1 ]
												}

											}
, 											{
												"patchline" : 												{
													"destination" : [ "obj-55", 0 ],
													"source" : [ "obj-58", 0 ]
												}

											}
, 											{
												"patchline" : 												{
													"destination" : [ "obj-61", 0 ],
													"source" : [ "obj-59", 0 ]
												}

											}
, 											{
												"patchline" : 												{
													"destination" : [ "obj-63", 0 ],
													"source" : [ "obj-61", 0 ]
												}

											}
, 											{
												"patchline" : 												{
													"destination" : [ "obj-6", 1 ],
													"order" : 0,
													"source" : [ "obj-62", 0 ]
												}

											}
, 											{
												"patchline" : 												{
													"destination" : [ "obj-8", 0 ],
													"order" : 1,
													"source" : [ "obj-62", 0 ]
												}

											}
, 											{
												"patchline" : 												{
													"destination" : [ "obj-58", 0 ],
													"source" : [ "obj-8", 0 ]
												}

											}
 ]
									}
,
									"patching_rect" : [ 234.0, 188.666671752929688, 96.0, 22.0 ],
									"saved_object_attributes" : 									{
										"description" : "",
										"digest" : "",
										"globalpatchername" : "",
										"tags" : ""
									}
,
									"text" : "p turnOffRatchet"
								}

							}
, 							{
								"box" : 								{
									"id" : "obj-45",
									"maxclass" : "message",
									"numinlets" : 2,
									"numoutlets" : 1,
									"outlettype" : [ "" ],
									"patching_rect" : [ 198.500007629394531, 220.666671752929688, 29.5, 22.0 ],
									"text" : "4"
								}

							}
, 							{
								"box" : 								{
									"id" : "obj-39",
									"maxclass" : "newobj",
									"numinlets" : 2,
									"numoutlets" : 1,
									"outlettype" : [ "int" ],
									"patching_rect" : [ 745.0, 211.0, 29.5, 22.0 ],
									"text" : "/ 4"
								}

							}
, 							{
								"box" : 								{
									"id" : "obj-14",
									"maxclass" : "newobj",
									"numinlets" : 2,
									"numoutlets" : 1,
									"outlettype" : [ "int" ],
									"patching_rect" : [ 713.5, 211.0, 29.5, 22.0 ],
									"text" : "/ 4"
								}

							}
, 							{
								"box" : 								{
									"id" : "obj-13",
									"maxclass" : "newobj",
									"numinlets" : 2,
									"numoutlets" : 1,
									"outlettype" : [ "int" ],
									"patching_rect" : [ 682.0, 211.0, 29.5, 22.0 ],
									"text" : "/ 3"
								}

							}
, 							{
								"box" : 								{
									"id" : "obj-12",
									"maxclass" : "newobj",
									"numinlets" : 2,
									"numoutlets" : 1,
									"outlettype" : [ "int" ],
									"patching_rect" : [ 650.5, 211.0, 29.5, 22.0 ],
									"text" : "/ 2"
								}

							}
, 							{
								"box" : 								{
									"id" : "obj-1",
									"maxclass" : "message",
									"numinlets" : 2,
									"numoutlets" : 1,
									"outlettype" : [ "" ],
									"patching_rect" : [ 140.166662216186523, 215.666671752929688, 29.5, 22.0 ],
									"text" : "3"
								}

							}
, 							{
								"box" : 								{
									"id" : "obj-2",
									"maxclass" : "message",
									"numinlets" : 2,
									"numoutlets" : 1,
									"outlettype" : [ "" ],
									"patching_rect" : [ 104.166662216186523, 215.666671752929688, 29.5, 22.0 ],
									"text" : "2"
								}

							}
, 							{
								"box" : 								{
									"id" : "obj-3",
									"maxclass" : "message",
									"numinlets" : 2,
									"numoutlets" : 1,
									"outlettype" : [ "" ],
									"patching_rect" : [ 69.666664123535156, 215.666671752929688, 29.5, 22.0 ],
									"text" : "1"
								}

							}
, 							{
								"box" : 								{
									"id" : "obj-4",
									"maxclass" : "newobj",
									"numinlets" : 4,
									"numoutlets" : 4,
									"outlettype" : [ "bang", "bang", "bang", "" ],
									"patching_rect" : [ 69.666664123535156, 185.166671752929688, 66.0, 22.0 ],
									"text" : "sel 9 10 11"
								}

							}
, 							{
								"box" : 								{
									"id" : "obj-97",
									"maxclass" : "newobj",
									"numinlets" : 3,
									"numoutlets" : 3,
									"outlettype" : [ "", "", "" ],
									"patching_rect" : [ 48.666664123535156, 151.833328247070312, 56.0, 22.0 ],
									"text" : "route 0 1"
								}

							}
, 							{
								"box" : 								{
									"id" : "obj-96",
									"maxclass" : "message",
									"numinlets" : 2,
									"numoutlets" : 1,
									"outlettype" : [ "" ],
									"patching_rect" : [ 48.666664123535156, 123.333328247070312, 39.0, 22.0 ],
									"text" : "$3 $1"
								}

							}
, 							{
								"box" : 								{
									"id" : "obj-80",
									"maxclass" : "newobj",
									"numinlets" : 2,
									"numoutlets" : 4,
									"outlettype" : [ "", "", "", "" ],
									"patching_rect" : [ 234.166656494140625, 252.0, 361.16668701171875, 22.0 ],
									"text" : "gate 4"
								}

							}
, 							{
								"box" : 								{
									"id" : "obj-79",
									"maxclass" : "button",
									"numinlets" : 1,
									"numoutlets" : 1,
									"outlettype" : [ "bang" ],
									"parameter_enable" : 0,
									"patching_rect" : [ 576.333343505859375, 202.333358764648438, 24.0, 24.0 ]
								}

							}
, 							{
								"box" : 								{
									"id" : "obj-76",
									"maxclass" : "newobj",
									"numinlets" : 2,
									"numoutlets" : 1,
									"outlettype" : [ "int" ],
									"patching_rect" : [ 650.5, 183.000030517578125, 52.0, 22.0 ],
									"text" : "!/ 15000"
								}

							}
, 							{
								"box" : 								{
									"id" : "obj-73",
									"maxclass" : "newobj",
									"numinlets" : 2,
									"numoutlets" : 1,
									"outlettype" : [ "float" ],
									"patching_rect" : [ 650.5, 153.0, 36.0, 22.0 ],
									"text" : "+ 0.5"
								}

							}
, 							{
								"box" : 								{
									"comment" : "",
									"id" : "obj-104",
									"index" : 2,
									"maxclass" : "inlet",
									"numinlets" : 0,
									"numoutlets" : 1,
									"outlettype" : [ "" ],
									"patching_rect" : [ 268.0, 42.0, 30.0, 30.0 ]
								}

							}
, 							{
								"box" : 								{
									"comment" : "",
									"id" : "obj-105",
									"index" : 3,
									"maxclass" : "inlet",
									"numinlets" : 0,
									"numoutlets" : 1,
									"outlettype" : [ "bang" ],
									"patching_rect" : [ 576.333343505859375, 165.666664123535156, 30.0, 30.0 ]
								}

							}
, 							{
								"box" : 								{
									"comment" : "",
									"id" : "obj-106",
									"index" : 1,
									"maxclass" : "inlet",
									"numinlets" : 0,
									"numoutlets" : 1,
									"outlettype" : [ "" ],
									"patching_rect" : [ 133.166664123535156, 56.0, 30.0, 30.0 ]
								}

							}
, 							{
								"box" : 								{
									"comment" : "",
									"id" : "obj-107",
									"index" : 1,
									"maxclass" : "outlet",
									"numinlets" : 1,
									"numoutlets" : 0,
									"patching_rect" : [ 234.166656494140625, 422.166656494140625, 30.0, 30.0 ]
								}

							}
 ],
						"lines" : [ 							{
								"patchline" : 								{
									"destination" : [ "obj-80", 0 ],
									"source" : [ "obj-1", 0 ]
								}

							}
, 							{
								"patchline" : 								{
									"destination" : [ "obj-10", 0 ],
									"order" : 0,
									"source" : [ "obj-104", 0 ]
								}

							}
, 							{
								"patchline" : 								{
									"destination" : [ "obj-11", 1 ],
									"order" : 1,
									"source" : [ "obj-104", 0 ]
								}

							}
, 							{
								"patchline" : 								{
									"destination" : [ "obj-64", 0 ],
									"order" : 2,
									"source" : [ "obj-104", 0 ]
								}

							}
, 							{
								"patchline" : 								{
									"destination" : [ "obj-96", 0 ],
									"order" : 3,
									"source" : [ "obj-104", 0 ]
								}

							}
, 							{
								"patchline" : 								{
									"destination" : [ "obj-79", 0 ],
									"source" : [ "obj-105", 0 ]
								}

							}
, 							{
								"patchline" : 								{
									"destination" : [ "obj-73", 0 ],
									"source" : [ "obj-106", 0 ]
								}

							}
, 							{
								"patchline" : 								{
									"destination" : [ "obj-81", 4 ],
									"source" : [ "obj-12", 0 ]
								}

							}
, 							{
								"patchline" : 								{
									"destination" : [ "obj-81", 5 ],
									"source" : [ "obj-13", 0 ]
								}

							}
, 							{
								"patchline" : 								{
									"destination" : [ "obj-81", 6 ],
									"source" : [ "obj-14", 0 ]
								}

							}
, 							{
								"patchline" : 								{
									"destination" : [ "obj-80", 0 ],
									"source" : [ "obj-2", 0 ]
								}

							}
, 							{
								"patchline" : 								{
									"destination" : [ "obj-80", 0 ],
									"source" : [ "obj-3", 0 ]
								}

							}
, 							{
								"patchline" : 								{
									"destination" : [ "obj-81", 7 ],
									"source" : [ "obj-39", 0 ]
								}

							}
, 							{
								"patchline" : 								{
									"destination" : [ "obj-1", 0 ],
									"source" : [ "obj-4", 2 ]
								}

							}
, 							{
								"patchline" : 								{
									"destination" : [ "obj-2", 0 ],
									"source" : [ "obj-4", 1 ]
								}

							}
, 							{
								"patchline" : 								{
									"destination" : [ "obj-3", 0 ],
									"source" : [ "obj-4", 0 ]
								}

							}
, 							{
								"patchline" : 								{
									"destination" : [ "obj-80", 0 ],
									"source" : [ "obj-45", 0 ]
								}

							}
, 							{
								"patchline" : 								{
									"destination" : [ "obj-16", 0 ],
									"order" : 0,
									"source" : [ "obj-64", 0 ]
								}

							}
, 							{
								"patchline" : 								{
									"destination" : [ "obj-7", 1 ],
									"midpoints" : [ 295.0, 223.0 ],
									"order" : 1,
									"source" : [ "obj-64", 0 ]
								}

							}
, 							{
								"patchline" : 								{
									"destination" : [ "obj-80", 0 ],
									"order" : 2,
									"source" : [ "obj-64", 0 ]
								}

							}
, 							{
								"patchline" : 								{
									"destination" : [ "obj-76", 0 ],
									"source" : [ "obj-73", 0 ]
								}

							}
, 							{
								"patchline" : 								{
									"destination" : [ "obj-12", 0 ],
									"order" : 3,
									"source" : [ "obj-76", 0 ]
								}

							}
, 							{
								"patchline" : 								{
									"destination" : [ "obj-13", 0 ],
									"order" : 2,
									"source" : [ "obj-76", 0 ]
								}

							}
, 							{
								"patchline" : 								{
									"destination" : [ "obj-14", 0 ],
									"order" : 1,
									"source" : [ "obj-76", 0 ]
								}

							}
, 							{
								"patchline" : 								{
									"destination" : [ "obj-39", 0 ],
									"order" : 0,
									"source" : [ "obj-76", 0 ]
								}

							}
, 							{
								"patchline" : 								{
									"destination" : [ "obj-80", 1 ],
									"source" : [ "obj-79", 0 ]
								}

							}
, 							{
								"patchline" : 								{
									"destination" : [ "obj-81", 3 ],
									"source" : [ "obj-80", 3 ]
								}

							}
, 							{
								"patchline" : 								{
									"destination" : [ "obj-81", 2 ],
									"source" : [ "obj-80", 2 ]
								}

							}
, 							{
								"patchline" : 								{
									"destination" : [ "obj-81", 1 ],
									"source" : [ "obj-80", 1 ]
								}

							}
, 							{
								"patchline" : 								{
									"destination" : [ "obj-81", 0 ],
									"source" : [ "obj-80", 0 ]
								}

							}
, 							{
								"patchline" : 								{
									"destination" : [ "obj-107", 0 ],
									"source" : [ "obj-81", 0 ]
								}

							}
, 							{
								"patchline" : 								{
									"destination" : [ "obj-97", 0 ],
									"source" : [ "obj-96", 0 ]
								}

							}
, 							{
								"patchline" : 								{
									"destination" : [ "obj-4", 0 ],
									"source" : [ "obj-97", 1 ]
								}

							}
 ]
					}
,
					"patching_rect" : [ 208.0, 518.9000244140625, 172.133331298828125, 22.0 ],
					"saved_object_attributes" : 					{
						"description" : "",
						"digest" : "",
						"globalpatchername" : "",
						"tags" : ""
					}
,
					"text" : "p ratchet"
				}

			}
, 			{
				"box" : 				{
					"id" : "obj-59",
					"maxclass" : "number",
					"numinlets" : 1,
					"numoutlets" : 2,
					"outlettype" : [ "", "bang" ],
					"parameter_enable" : 0,
					"patching_rect" : [ 112.666679382324219, 99.0, 50.0, 22.0 ]
				}

			}
, 			{
				"box" : 				{
					"id" : "obj-45",
					"maxclass" : "newobj",
					"numinlets" : 3,
					"numoutlets" : 3,
					"outlettype" : [ "bang", "bang", "" ],
					"patching_rect" : [ 259.133331298828125, 440.666656494140625, 163.0, 22.0 ],
					"text" : "sel 2 1"
				}

			}
, 			{
				"box" : 				{
					"id" : "obj-44",
					"maxclass" : "newobj",
					"numinlets" : 2,
					"numoutlets" : 2,
					"outlettype" : [ "", "" ],
					"patching_rect" : [ 259.133331298828125, 411.13330078125, 47.0, 22.0 ],
					"text" : "zl.iter 1"
				}

			}
, 			{
				"box" : 				{
					"id" : "obj-32",
					"maxclass" : "number",
					"numinlets" : 1,
					"numoutlets" : 2,
					"outlettype" : [ "", "bang" ],
					"parameter_enable" : 0,
					"patching_rect" : [ 56.333332061767578, 99.0, 50.0, 22.0 ],
					"presentation" : 1,
					"presentation_rect" : [ 2.999993801116943, 2.999994277954102, 50.0, 22.0 ]
				}

			}
, 			{
				"box" : 				{
					"id" : "obj-27",
					"maxclass" : "newobj",
					"numinlets" : 3,
					"numoutlets" : 3,
					"outlettype" : [ "", "", "" ],
					"patching_rect" : [ 56.333332061767578, 134.0, 132.0, 22.0 ],
					"text" : "MLE.beat 2 4"
				}

			}
, 			{
				"box" : 				{
					"id" : "obj-26",
					"maxclass" : "message",
					"numinlets" : 2,
					"numoutlets" : 1,
					"outlettype" : [ "" ],
					"patching_rect" : [ 255.0, 195.0, 49.0, 22.0 ],
					"text" : "$1 2 $2"
				}

			}
, 			{
				"box" : 				{
					"id" : "obj-16",
					"maxclass" : "newobj",
					"numinlets" : 4,
					"numoutlets" : 4,
					"outlettype" : [ "", "", "", "" ],
					"patching_rect" : [ 255.0, 157.0, 66.0, 22.0 ],
					"text" : "route 7 6 8"
				}

			}
, 			{
				"box" : 				{
					"id" : "obj-15",
					"maxclass" : "message",
					"numinlets" : 2,
					"numoutlets" : 1,
					"outlettype" : [ "" ],
					"patching_rect" : [ 208.0, 57.0, 55.0, 22.0 ],
					"text" : "$2 $1 $3"
				}

			}
, 			{
				"box" : 				{
					"columns" : 10,
					"direction" : 0,
					"id" : "obj-9",
					"matrixmode" : 1,
					"maxclass" : "live.grid",
					"numinlets" : 2,
					"numoutlets" : 6,
					"outlettype" : [ "", "", "", "", "", "" ],
					"parameter_enable" : 1,
					"patching_rect" : [ 259.133331298828125, 245.000030517578125, 379.333343505859375, 154.0 ],
					"presentation" : 1,
					"presentation_rect" : [ 2.999993801116943, 26.999994277954102, 300.0, 150.0 ],
					"rows" : 2,
					"saved_attribute_attributes" : 					{
						"valueof" : 						{
							"parameter_shortname" : "live.grid",
							"parameter_type" : 3,
							"parameter_longname" : "live.grid",
							"parameter_invisible" : 1
						}

					}
,
					"varname" : "live.grid"
				}

			}
, 			{
				"box" : 				{
					"id" : "obj-8",
					"maxclass" : "newobj",
					"numinlets" : 2,
					"numoutlets" : 2,
					"outlettype" : [ "", "" ],
					"patching_rect" : [ 208.0, 26.0, 55.0, 22.0 ],
					"text" : "zl.slice 2"
				}

			}
, 			{
				"box" : 				{
					"id" : "obj-1",
					"maxclass" : "newobj",
					"numinlets" : 2,
					"numoutlets" : 3,
					"outlettype" : [ "", "", "" ],
					"patching_rect" : [ 190.0, -8.666667938232422, 78.0, 22.0 ],
					"text" : "MLE.keyGrid"
				}

			}
 ],
		"lines" : [ 			{
				"patchline" : 				{
					"destination" : [ "obj-8", 0 ],
					"source" : [ "obj-1", 1 ]
				}

			}
, 			{
				"patchline" : 				{
					"destination" : [ "obj-62", 0 ],
					"source" : [ "obj-105", 0 ]
				}

			}
, 			{
				"patchline" : 				{
					"destination" : [ "obj-43", 0 ],
					"source" : [ "obj-106", 0 ]
				}

			}
, 			{
				"patchline" : 				{
					"destination" : [ "obj-122", 1 ],
					"source" : [ "obj-108", 0 ]
				}

			}
, 			{
				"patchline" : 				{
					"destination" : [ "obj-32", 0 ],
					"source" : [ "obj-121", 0 ]
				}

			}
, 			{
				"patchline" : 				{
					"destination" : [ "obj-82", 0 ],
					"source" : [ "obj-122", 1 ]
				}

			}
, 			{
				"patchline" : 				{
					"destination" : [ "obj-89", 0 ],
					"source" : [ "obj-122", 0 ]
				}

			}
, 			{
				"patchline" : 				{
					"destination" : [ "obj-70", 0 ],
					"source" : [ "obj-137", 0 ]
				}

			}
, 			{
				"patchline" : 				{
					"destination" : [ "obj-139", 0 ],
					"source" : [ "obj-138", 0 ]
				}

			}
, 			{
				"patchline" : 				{
					"destination" : [ "obj-171", 1 ],
					"order" : 1,
					"source" : [ "obj-139", 2 ]
				}

			}
, 			{
				"patchline" : 				{
					"destination" : [ "obj-171", 0 ],
					"order" : 2,
					"source" : [ "obj-139", 0 ]
				}

			}
, 			{
				"patchline" : 				{
					"destination" : [ "obj-173", 1 ],
					"order" : 1,
					"source" : [ "obj-139", 0 ]
				}

			}
, 			{
				"patchline" : 				{
					"destination" : [ "obj-180", 0 ],
					"order" : 0,
					"source" : [ "obj-139", 2 ]
				}

			}
, 			{
				"patchline" : 				{
					"destination" : [ "obj-181", 0 ],
					"order" : 0,
					"source" : [ "obj-139", 0 ]
				}

			}
, 			{
				"patchline" : 				{
					"destination" : [ "obj-58", 0 ],
					"source" : [ "obj-139", 1 ]
				}

			}
, 			{
				"patchline" : 				{
					"destination" : [ "obj-70", 0 ],
					"source" : [ "obj-142", 0 ]
				}

			}
, 			{
				"patchline" : 				{
					"destination" : [ "obj-2", 1 ],
					"order" : 1,
					"source" : [ "obj-15", 0 ]
				}

			}
, 			{
				"patchline" : 				{
					"destination" : [ "obj-33", 1 ],
					"order" : 0,
					"source" : [ "obj-15", 0 ]
				}

			}
, 			{
				"patchline" : 				{
					"destination" : [ "obj-26", 0 ],
					"source" : [ "obj-16", 0 ]
				}

			}
, 			{
				"patchline" : 				{
					"destination" : [ "obj-58", 0 ],
					"source" : [ "obj-16", 1 ]
				}

			}
, 			{
				"patchline" : 				{
					"destination" : [ "obj-91", 0 ],
					"source" : [ "obj-16", 2 ]
				}

			}
, 			{
				"patchline" : 				{
					"destination" : [ "obj-44", 0 ],
					"source" : [ "obj-171", 0 ]
				}

			}
, 			{
				"patchline" : 				{
					"destination" : [ "obj-70", 0 ],
					"source" : [ "obj-18", 0 ]
				}

			}
, 			{
				"patchline" : 				{
					"destination" : [ "obj-108", 1 ],
					"source" : [ "obj-181", 0 ]
				}

			}
, 			{
				"patchline" : 				{
					"destination" : [ "obj-134", 0 ],
					"source" : [ "obj-2", 1 ]
				}

			}
, 			{
				"patchline" : 				{
					"destination" : [ "obj-16", 0 ],
					"source" : [ "obj-2", 0 ]
				}

			}
, 			{
				"patchline" : 				{
					"destination" : [ "obj-108", 1 ],
					"order" : 0,
					"source" : [ "obj-26", 0 ]
				}

			}
, 			{
				"patchline" : 				{
					"destination" : [ "obj-9", 0 ],
					"order" : 1,
					"source" : [ "obj-26", 0 ]
				}

			}
, 			{
				"patchline" : 				{
					"destination" : [ "obj-108", 0 ],
					"order" : 0,
					"source" : [ "obj-27", 2 ]
				}

			}
, 			{
				"patchline" : 				{
					"destination" : [ "obj-121", 0 ],
					"order" : 1,
					"source" : [ "obj-27", 2 ]
				}

			}
, 			{
				"patchline" : 				{
					"destination" : [ "obj-85", 0 ],
					"source" : [ "obj-27", 1 ]
				}

			}
, 			{
				"patchline" : 				{
					"destination" : [ "obj-122", 0 ],
					"source" : [ "obj-3", 1 ]
				}

			}
, 			{
				"patchline" : 				{
					"destination" : [ "obj-27", 0 ],
					"source" : [ "obj-32", 0 ]
				}

			}
, 			{
				"patchline" : 				{
					"destination" : [ "obj-9", 0 ],
					"source" : [ "obj-34", 0 ]
				}

			}
, 			{
				"patchline" : 				{
					"destination" : [ "obj-74", 0 ],
					"source" : [ "obj-36", 0 ]
				}

			}
, 			{
				"patchline" : 				{
					"destination" : [ "obj-14", 0 ],
					"source" : [ "obj-37", 0 ]
				}

			}
, 			{
				"patchline" : 				{
					"destination" : [ "obj-14", 0 ],
					"source" : [ "obj-38", 0 ]
				}

			}
, 			{
				"patchline" : 				{
					"destination" : [ "obj-1", 0 ],
					"source" : [ "obj-4", 0 ]
				}

			}
, 			{
				"patchline" : 				{
					"destination" : [ "obj-6", 0 ],
					"source" : [ "obj-40", 0 ]
				}

			}
, 			{
				"patchline" : 				{
					"destination" : [ "obj-51", 0 ],
					"source" : [ "obj-43", 0 ]
				}

			}
, 			{
				"patchline" : 				{
					"destination" : [ "obj-3", 0 ],
					"order" : 1,
					"source" : [ "obj-44", 0 ]
				}

			}
, 			{
				"patchline" : 				{
					"destination" : [ "obj-45", 0 ],
					"order" : 0,
					"source" : [ "obj-44", 0 ]
				}

			}
, 			{
				"patchline" : 				{
					"destination" : [ "obj-108", 2 ],
					"order" : 0,
					"source" : [ "obj-45", 1 ]
				}

			}
, 			{
				"patchline" : 				{
					"destination" : [ "obj-108", 2 ],
					"order" : 0,
					"source" : [ "obj-45", 0 ]
				}

			}
, 			{
				"patchline" : 				{
					"destination" : [ "obj-82", 0 ],
					"order" : 1,
					"source" : [ "obj-45", 0 ]
				}

			}
, 			{
				"patchline" : 				{
					"destination" : [ "obj-89", 0 ],
					"order" : 1,
					"source" : [ "obj-45", 1 ]
				}

			}
, 			{
				"patchline" : 				{
					"destination" : [ "obj-104", 1 ],
					"order" : 0,
					"source" : [ "obj-49", 0 ]
				}

			}
, 			{
				"patchline" : 				{
					"destination" : [ "obj-2", 0 ],
					"order" : 1,
					"source" : [ "obj-49", 0 ]
				}

			}
, 			{
				"patchline" : 				{
					"destination" : [ "obj-49", 0 ],
					"source" : [ "obj-51", 0 ]
				}

			}
, 			{
				"patchline" : 				{
					"destination" : [ "obj-62", 0 ],
					"source" : [ "obj-57", 1 ]
				}

			}
, 			{
				"patchline" : 				{
					"destination" : [ "obj-70", 0 ],
					"source" : [ "obj-57", 0 ]
				}

			}
, 			{
				"patchline" : 				{
					"destination" : [ "obj-60", 1 ],
					"source" : [ "obj-58", 0 ]
				}

			}
, 			{
				"patchline" : 				{
					"destination" : [ "obj-77", 0 ],
					"source" : [ "obj-58", 1 ]
				}

			}
, 			{
				"patchline" : 				{
					"destination" : [ "obj-27", 1 ],
					"source" : [ "obj-59", 0 ]
				}

			}
, 			{
				"patchline" : 				{
					"destination" : [ "obj-10", 0 ],
					"source" : [ "obj-6", 0 ]
				}

			}
, 			{
				"patchline" : 				{
					"destination" : [ "obj-53", 0 ],
					"order" : 0,
					"source" : [ "obj-60", 0 ]
				}

			}
, 			{
				"patchline" : 				{
					"destination" : [ "obj-55", 0 ],
					"order" : 1,
					"source" : [ "obj-60", 0 ]
				}

			}
, 			{
				"patchline" : 				{
					"destination" : [ "obj-69", 0 ],
					"source" : [ "obj-60", 1 ]
				}

			}
, 			{
				"patchline" : 				{
					"destination" : [ "obj-57", 0 ],
					"source" : [ "obj-61", 0 ]
				}

			}
, 			{
				"patchline" : 				{
					"destination" : [ "obj-4", 0 ],
					"source" : [ "obj-7", 0 ]
				}

			}
, 			{
				"patchline" : 				{
					"destination" : [ "obj-105", 0 ],
					"source" : [ "obj-70", 0 ]
				}

			}
, 			{
				"patchline" : 				{
					"destination" : [ "obj-69", 0 ],
					"source" : [ "obj-72", 1 ]
				}

			}
, 			{
				"patchline" : 				{
					"destination" : [ "obj-70", 0 ],
					"source" : [ "obj-72", 0 ]
				}

			}
, 			{
				"patchline" : 				{
					"destination" : [ "obj-60", 0 ],
					"source" : [ "obj-77", 0 ]
				}

			}
, 			{
				"patchline" : 				{
					"destination" : [ "obj-15", 0 ],
					"source" : [ "obj-8", 1 ]
				}

			}
, 			{
				"patchline" : 				{
					"destination" : [ "obj-77", 1 ],
					"source" : [ "obj-81", 0 ]
				}

			}
, 			{
				"patchline" : 				{
					"destination" : [ "obj-40", 0 ],
					"source" : [ "obj-82", 0 ]
				}

			}
, 			{
				"patchline" : 				{
					"destination" : [ "obj-84", 1 ],
					"order" : 1,
					"source" : [ "obj-85", 0 ]
				}

			}
, 			{
				"patchline" : 				{
					"destination" : [ "obj-9", 0 ],
					"order" : 0,
					"source" : [ "obj-85", 0 ]
				}

			}
, 			{
				"patchline" : 				{
					"destination" : [ "obj-98", 0 ],
					"source" : [ "obj-89", 0 ]
				}

			}
, 			{
				"patchline" : 				{
					"destination" : [ "obj-44", 0 ],
					"source" : [ "obj-9", 0 ]
				}

			}
, 			{
				"patchline" : 				{
					"destination" : [ "obj-154", 0 ],
					"order" : 1,
					"source" : [ "obj-91", 0 ]
				}

			}
, 			{
				"patchline" : 				{
					"destination" : [ "obj-9", 0 ],
					"order" : 0,
					"source" : [ "obj-91", 0 ]
				}

			}
, 			{
				"patchline" : 				{
					"destination" : [ "obj-6", 0 ],
					"source" : [ "obj-98", 0 ]
				}

			}
 ],
		"parameters" : 		{
			"obj-27::obj-46::obj-2" : [ "live.grid[10]", "live.grid", 0 ],
			"obj-9" : [ "live.grid", "live.grid", 0 ],
			"parameterbanks" : 			{

			}

		}
,
		"dependency_cache" : [ 			{
				"name" : "MLE.keyGrid.maxpat",
				"bootpath" : "/Users/famle/CML/MLE/patchers/controllers",
				"patcherrelativepath" : "../../controllers",
				"type" : "JSON",
				"implicit" : 1
			}
, 			{
				"name" : "asciiLinearMapping.txt",
				"bootpath" : "/Users/famle/CML/MLE/code",
				"patcherrelativepath" : "../../../code",
				"type" : "TEXT",
				"implicit" : 1
			}
, 			{
				"name" : "MLE.beat.maxpat",
				"bootpath" : "/Users/famle/CML/MLE/patchers/network",
				"patcherrelativepath" : "../../network",
				"type" : "JSON",
				"implicit" : 1
			}
, 			{
				"name" : "init.maxpat",
				"bootpath" : "/Users/famle/CML/MLE/patchers/utilities",
				"patcherrelativepath" : "../../utilities",
				"type" : "JSON",
				"implicit" : 1
			}
, 			{
				"name" : "MLE.swing.maxpat",
				"bootpath" : "/Users/famle/CML/MLE/patchers/utilities",
				"patcherrelativepath" : "../../utilities",
				"type" : "JSON",
				"implicit" : 1
			}
, 			{
				"name" : "instaKit.json",
				"bootpath" : "/Users/famle/CML/MLE/patchers/Instruments/instaInstruments",
				"patcherrelativepath" : ".",
				"type" : "JSON",
				"implicit" : 1
			}
, 			{
				"name" : "MLE.pattrLocal.maxpat",
				"bootpath" : "/Users/famle/CML/MLE/patchers/utilities",
				"patcherrelativepath" : "../../utilities",
				"type" : "JSON",
				"implicit" : 1
			}
, 			{
				"name" : "link.phasor~.mxo",
				"type" : "iLaX"
			}
 ],
		"autosave" : 0
	}

}
