{
	"patcher" : 	{
		"fileversion" : 1,
		"appversion" : 		{
			"major" : 8,
			"minor" : 0,
			"revision" : 6,
			"architecture" : "x64",
			"modernui" : 1
		}
,
		"classnamespace" : "box",
		"rect" : [ 59.0, 104.0, 640.0, 480.0 ],
		"bglocked" : 0,
		"openinpresentation" : 1,
		"default_fontsize" : 12.0,
		"default_fontface" : 0,
		"default_fontname" : "Arial",
		"gridonopen" : 1,
		"gridsize" : [ 15.0, 15.0 ],
		"gridsnaponopen" : 1,
		"objectsnaponopen" : 1,
		"statusbarvisible" : 2,
		"toolbarvisible" : 1,
		"lefttoolbarpinned" : 0,
		"toptoolbarpinned" : 0,
		"righttoolbarpinned" : 0,
		"bottomtoolbarpinned" : 0,
		"toolbars_unpinned_last_save" : 0,
		"tallnewobj" : 0,
		"boxanimatetime" : 200,
		"enablehscroll" : 1,
		"enablevscroll" : 1,
		"devicewidth" : 0.0,
		"description" : "",
		"digest" : "",
		"tags" : "",
		"style" : "",
		"subpatcher_template" : "",
		"boxes" : [ 			{
				"box" : 				{
					"comment" : "reverb timw",
					"id" : "obj-97",
					"index" : 0,
					"maxclass" : "inlet",
					"numinlets" : 0,
					"numoutlets" : 1,
					"outlettype" : [ "" ],
					"patching_rect" : [ 928.683342218399048, 35.782204269351951, 30.0, 30.0 ]
				}

			}
, 			{
				"box" : 				{
					"comment" : "diffusion",
					"id" : "obj-96",
					"index" : 0,
					"maxclass" : "inlet",
					"numinlets" : 0,
					"numoutlets" : 1,
					"outlettype" : [ "" ],
					"patching_rect" : [ 1036.733385443687439, 35.782204269351951, 30.0, 30.0 ]
				}

			}
, 			{
				"box" : 				{
					"comment" : "early reflections:tail ratio",
					"id" : "obj-325",
					"index" : 0,
					"maxclass" : "inlet",
					"numinlets" : 0,
					"numoutlets" : 1,
					"outlettype" : [ "" ],
					"patching_rect" : [ 965.666696190834045, 35.782204269351951, 30.0, 30.0 ]
				}

			}
, 			{
				"box" : 				{
					"comment" : "Damping",
					"id" : "obj-94",
					"index" : 0,
					"maxclass" : "inlet",
					"numinlets" : 0,
					"numoutlets" : 1,
					"outlettype" : [ "" ],
					"patching_rect" : [ 1002.833345890045166, 35.782204269351951, 30.0, 30.0 ]
				}

			}
, 			{
				"box" : 				{
					"fontface" : 1,
					"fontname" : "Lantinghei SC Extralight",
					"fontsize" : 11.0,
					"id" : "obj-348",
					"maxclass" : "comment",
					"numinlets" : 1,
					"numoutlets" : 0,
					"patching_rect" : [ 1036.733385443687439, 88.486712803132832, 116.0, 22.0 ],
					"presentation" : 1,
					"presentation_rect" : [ 216.83997875964269, 80.846644531004131, 63.0, 22.0 ],
					"text" : "Diffusion",
					"textcolor" : [ 0.113725490196078, 0.113725490196078, 0.113725490196078, 1.0 ]
				}

			}
, 			{
				"box" : 				{
					"bgcolor" : [ 0.0, 0.0, 0.0, 1.0 ],
					"degrees" : 320,
					"floatoutput" : 1,
					"id" : "obj-347",
					"maxclass" : "dial",
					"mode" : 5,
					"needlecolor" : [ 0.850980392156863, 0.92156862745098, 0.313725490196078, 1.0 ],
					"numinlets" : 1,
					"numoutlets" : 1,
					"outlettype" : [ "float" ],
					"outlinecolor" : [ 0.337254901960784, 0.341176470588235, 0.349019607843137, 1.0 ],
					"parameter_enable" : 0,
					"patching_rect" : [ 1040.116714417934418, 128.733346581459045, 34.359915038570762, 34.359915038570762 ],
					"presentation" : 1,
					"presentation_rect" : [ 231.16002124035731, 43.713257011718724, 34.359915038570762, 34.359915038570762 ],
					"size" : 1.0
				}

			}
, 			{
				"box" : 				{
					"id" : "obj-343",
					"maxclass" : "newobj",
					"numinlets" : 1,
					"numoutlets" : 1,
					"outlettype" : [ "" ],
					"patching_rect" : [ 918.683342218399048, 182.66667366027832, 92.0, 22.0 ],
					"text" : "expr pow($f1\\,2)"
				}

			}
, 			{
				"box" : 				{
					"fontface" : 1,
					"fontname" : "Lantinghei SC Extralight",
					"fontsize" : 11.0,
					"id" : "obj-344",
					"maxclass" : "comment",
					"numinlets" : 1,
					"numoutlets" : 0,
					"patching_rect" : [ 918.683342218399048, 88.306755283847451, 112.0, 22.0 ],
					"presentation" : 1,
					"presentation_rect" : [ 80.380728026852012, 80.846644531004131, 46.320042480714619, 22.0 ],
					"text" : "Shape",
					"textcolor" : [ 0.113725490196078, 0.113725490196078, 0.113725490196078, 1.0 ]
				}

			}
, 			{
				"box" : 				{
					"bgcolor" : [ 0.0, 0.0, 0.0, 1.0 ],
					"degrees" : 320,
					"floatoutput" : 1,
					"id" : "obj-345",
					"maxclass" : "dial",
					"mode" : 5,
					"needlecolor" : [ 0.850980392156863, 0.92156862745098, 0.313725490196078, 1.0 ],
					"numinlets" : 1,
					"numoutlets" : 1,
					"outlettype" : [ "float" ],
					"outlinecolor" : [ 0.337254901960784, 0.341176470588235, 0.349019607843137, 1.0 ],
					"parameter_enable" : 0,
					"patching_rect" : [ 918.683342218399048, 128.733346581459045, 34.359915038570762, 34.359915038570762 ],
					"presentation" : 1,
					"presentation_rect" : [ 86.36079174792394, 43.713257011718724, 34.359915038570762, 34.359915038570762 ],
					"size" : 1.0
				}

			}
, 			{
				"box" : 				{
					"id" : "obj-338",
					"maxclass" : "newobj",
					"numinlets" : 1,
					"numoutlets" : 1,
					"outlettype" : [ "" ],
					"patching_rect" : [ 423.833342313766479, 172.448861359539023, 110.0, 22.0 ],
					"text" : "expr pow($f1\\,2)*10"
				}

			}
, 			{
				"box" : 				{
					"fontface" : 1,
					"fontname" : "Lantinghei SC Extralight",
					"fontsize" : 11.0,
					"id" : "obj-339",
					"maxclass" : "comment",
					"numinlets" : 1,
					"numoutlets" : 0,
					"patching_rect" : [ 418.583342373371124, 97.306755283847451, 75.0, 22.0 ],
					"presentation" : 1,
					"presentation_rect" : [ 142.621499278928127, 80.846644531004131, 63.0, 22.0 ],
					"text" : "Damping",
					"textcolor" : [ 0.113725490196078, 0.113725490196078, 0.113725490196078, 1.0 ]
				}

			}
, 			{
				"box" : 				{
					"bgcolor" : [ 0.0, 0.0, 0.0, 1.0 ],
					"degrees" : 320,
					"floatoutput" : 1,
					"id" : "obj-340",
					"maxclass" : "dial",
					"mode" : 5,
					"needlecolor" : [ 0.850980392156863, 0.92156862745098, 0.313725490196078, 1.0 ],
					"numinlets" : 1,
					"numoutlets" : 1,
					"outlettype" : [ "float" ],
					"outlinecolor" : [ 0.337254901960784, 0.341176470588235, 0.349019607843137, 1.0 ],
					"parameter_enable" : 0,
					"patching_rect" : [ 423.833342313766479, 128.733346581459045, 34.359915038570762, 34.359915038570762 ],
					"presentation" : 1,
					"presentation_rect" : [ 156.941541759642746, 43.713257011718724, 34.359915038570762, 34.359915038570762 ],
					"size" : 1.0
				}

			}
, 			{
				"box" : 				{
					"id" : "obj-341",
					"maxclass" : "newobj",
					"numinlets" : 5,
					"numoutlets" : 1,
					"outlettype" : [ "" ],
					"patching_rect" : [ 423.833342313766479, 224.666673719882965, 131.0, 22.0 ],
					"text" : "zmap 1. 10. 20. 12000."
				}

			}
, 			{
				"box" : 				{
					"format" : 6,
					"id" : "obj-342",
					"maxclass" : "flonum",
					"numinlets" : 1,
					"numoutlets" : 2,
					"outlettype" : [ "", "bang" ],
					"parameter_enable" : 0,
					"patching_rect" : [ 423.833342313766479, 198.733334064483643, 50.0, 22.0 ]
				}

			}
, 			{
				"box" : 				{
					"id" : "obj-336",
					"maxclass" : "newobj",
					"numinlets" : 5,
					"numoutlets" : 1,
					"outlettype" : [ "" ],
					"patching_rect" : [ 597.962529361248016, 233.266674101352692, 131.0, 22.0 ],
					"text" : "zmap 1. 10. 100. 8000."
				}

			}
, 			{
				"box" : 				{
					"id" : "obj-335",
					"maxclass" : "newobj",
					"numinlets" : 1,
					"numoutlets" : 1,
					"outlettype" : [ "" ],
					"patching_rect" : [ 597.962529361248016, 176.448865233840934, 127.0, 22.0 ],
					"text" : "expr pow($f1\\,0.75)*10"
				}

			}
, 			{
				"box" : 				{
					"fontface" : 1,
					"fontname" : "Lantinghei SC Extralight",
					"fontsize" : 11.0,
					"id" : "obj-334",
					"maxclass" : "comment",
					"numinlets" : 1,
					"numoutlets" : 0,
					"patching_rect" : [ 592.333342313766479, 97.306755283847451, 113.0, 22.0 ],
					"presentation" : 1,
					"presentation_rect" : [ 15.463231457277175, 80.846644531004131, 39.822269786494758, 22.0 ],
					"text" : "Size",
					"textcolor" : [ 0.113725490196078, 0.113725490196078, 0.113725490196078, 1.0 ]
				}

			}
, 			{
				"box" : 				{
					"bgcolor" : [ 0.0, 0.0, 0.0, 1.0 ],
					"degrees" : 320,
					"floatoutput" : 1,
					"id" : "obj-333",
					"maxclass" : "dial",
					"mode" : 5,
					"needlecolor" : [ 0.850980392156863, 0.92156862745098, 0.313725490196078, 1.0 ],
					"numinlets" : 1,
					"numoutlets" : 1,
					"outlettype" : [ "float" ],
					"outlinecolor" : [ 0.337254901960784, 0.341176470588235, 0.349019607843137, 1.0 ],
					"parameter_enable" : 0,
					"patching_rect" : [ 597.962529361248016, 128.733346581459045, 34.359915038570762, 34.359915038570762 ],
					"presentation" : 1,
					"presentation_rect" : [ 16.18083422863856, 43.713257011718724, 34.359915038570762, 34.359915038570762 ],
					"size" : 1.0
				}

			}
, 			{
				"box" : 				{
					"id" : "obj-332",
					"maxclass" : "newobj",
					"numinlets" : 5,
					"numoutlets" : 1,
					"outlettype" : [ "" ],
					"patching_rect" : [ 757.250033378601074, 233.266674101352692, 105.0, 22.0 ],
					"text" : "zmap 1. 10. 1. 76."
				}

			}
, 			{
				"box" : 				{
					"format" : 6,
					"id" : "obj-331",
					"maxclass" : "flonum",
					"numinlets" : 1,
					"numoutlets" : 2,
					"outlettype" : [ "", "bang" ],
					"parameter_enable" : 0,
					"patching_rect" : [ 597.962529361248016, 202.848865269603721, 50.0, 22.0 ]
				}

			}
, 			{
				"box" : 				{
					"id" : "obj-140",
					"maxclass" : "newobj",
					"numinlets" : 2,
					"numoutlets" : 1,
					"outlettype" : [ "float" ],
					"patching_rect" : [ 270.773484326087782, 488.666678190231323, 31.0, 22.0 ],
					"text" : "* -1."
				}

			}
, 			{
				"box" : 				{
					"id" : "obj-138",
					"maxclass" : "newobj",
					"numinlets" : 2,
					"numoutlets" : 1,
					"outlettype" : [ "float" ],
					"patching_rect" : [ 270.773484326087782, 459.000011324882507, 29.5, 22.0 ],
					"text" : "- 1."
				}

			}
, 			{
				"box" : 				{
					"format" : 6,
					"id" : "obj-82",
					"maxclass" : "flonum",
					"numinlets" : 1,
					"numoutlets" : 2,
					"outlettype" : [ "", "bang" ],
					"parameter_enable" : 0,
					"patching_rect" : [ 339.915170403297225, 519.588988284744346, 50.0, 22.0 ]
				}

			}
, 			{
				"box" : 				{
					"format" : 6,
					"id" : "obj-80",
					"maxclass" : "flonum",
					"numinlets" : 1,
					"numoutlets" : 2,
					"outlettype" : [ "", "bang" ],
					"parameter_enable" : 0,
					"patching_rect" : [ 270.773484326087782, 519.588988284744346, 50.0, 22.0 ]
				}

			}
, 			{
				"box" : 				{
					"id" : "obj-326",
					"maxclass" : "newobj",
					"numinlets" : 2,
					"numoutlets" : 1,
					"outlettype" : [ "signal" ],
					"patching_rect" : [ 339.915170403297225, 588.800840807907207, 40.0, 22.0 ],
					"text" : "*~ 0.8"
				}

			}
, 			{
				"box" : 				{
					"id" : "obj-70",
					"maxclass" : "newobj",
					"numinlets" : 2,
					"numoutlets" : 1,
					"outlettype" : [ "signal" ],
					"patching_rect" : [ 339.915170403297225, 554.000024557113647, 41.0, 22.0 ],
					"text" : "*~"
				}

			}
, 			{
				"box" : 				{
					"id" : "obj-73",
					"maxclass" : "newobj",
					"numinlets" : 2,
					"numoutlets" : 1,
					"outlettype" : [ "signal" ],
					"patching_rect" : [ 270.773484326087782, 554.000024557113647, 34.0, 22.0 ],
					"text" : "*~ 1."
				}

			}
, 			{
				"box" : 				{
					"comment" : "signal",
					"id" : "obj-27",
					"index" : 0,
					"maxclass" : "outlet",
					"numinlets" : 1,
					"numoutlets" : 0,
					"patching_rect" : [ 339.915170403297225, 619.999998807907104, 30.0, 30.0 ]
				}

			}
, 			{
				"box" : 				{
					"format" : 6,
					"id" : "obj-20",
					"maxclass" : "flonum",
					"numinlets" : 1,
					"numoutlets" : 2,
					"outlettype" : [ "", "bang" ],
					"parameter_enable" : 0,
					"patching_rect" : [ 270.773484326087782, 418.66667103767395, 50.0, 22.0 ]
				}

			}
, 			{
				"box" : 				{
					"bgcolor" : [ 0.286274509803922, 0.290196078431373, 0.294117647058824, 1.0 ],
					"elementcolor" : [ 0.0, 0.0, 0.0, 1.0 ],
					"floatoutput" : 1,
					"id" : "obj-28",
					"knobcolor" : [ 0.850980392156863, 0.92156862745098, 0.313725490196078, 1.0 ],
					"knobshape" : 3,
					"maxclass" : "slider",
					"mult" : 0.01,
					"numinlets" : 1,
					"numoutlets" : 1,
					"orientation" : 1,
					"outlettype" : [ "" ],
					"parameter_enable" : 0,
					"patching_rect" : [ 292.12504506111145, 96.166670322418213, 99.094463229179382, 23.0 ],
					"presentation" : 1,
					"presentation_rect" : [ 38.429599904695579, 10.846644531004131, 202.898794614589747, 22.0 ],
					"size" : 100.0
				}

			}
, 			{
				"box" : 				{
					"fontface" : 1,
					"fontname" : "Lantinghei SC Extralight",
					"fontsize" : 11.0,
					"id" : "obj-29",
					"maxclass" : "comment",
					"numinlets" : 1,
					"numoutlets" : 0,
					"patching_rect" : [ 292.12504506111145, 129.591265791414116, 35.0, 22.0 ],
					"presentation" : 1,
					"presentation_rect" : [ 10.718479480714564, 10.846644531004131, 35.0, 22.0 ],
					"text" : "Dry",
					"textcolor" : [ 0.113725490196078, 0.113725490196078, 0.113725490196078, 1.0 ]
				}

			}
, 			{
				"box" : 				{
					"fontface" : 1,
					"fontname" : "Lantinghei SC Extralight",
					"fontsize" : 11.0,
					"id" : "obj-30",
					"maxclass" : "comment",
					"numinlets" : 1,
					"numoutlets" : 0,
					"patching_rect" : [ 360.719508290290833, 129.591265791414116, 33.0, 22.0 ],
					"presentation" : 1,
					"presentation_rect" : [ 243.328394519285325, 10.846644531004131, 33.0, 22.0 ],
					"text" : "Wet",
					"textcolor" : [ 0.113725490196078, 0.113725490196078, 0.113725490196078, 1.0 ]
				}

			}
, 			{
				"box" : 				{
					"fontname" : "Baskerville",
					"fontsize" : 16.0,
					"id" : "obj-100",
					"linecount" : 2,
					"maxclass" : "comment",
					"numinlets" : 1,
					"numoutlets" : 0,
					"patching_rect" : [ 19.12504506111145, 67.000013828277588, 227.0, 43.0 ],
					"text" : "Reverb based off of yafr and yafr2 objects.",
					"textcolor" : [ 0.050980392843485, 0.050980392843485, 0.050980392843485, 1.0 ]
				}

			}
, 			{
				"box" : 				{
					"fontface" : 3,
					"fontname" : "Times Roman",
					"fontsize" : 30.0,
					"id" : "obj-33",
					"maxclass" : "comment",
					"numinlets" : 1,
					"numoutlets" : 0,
					"patching_rect" : [ 19.12504506111145, 19.782204269351951, 347.0, 36.0 ],
					"presentation" : 1,
					"presentation_rect" : [ 4.0, 106.16668701171875, 223.0, 36.0 ],
					"text" : "MLE.reverb",
					"textcolor" : [ 0.0, 0.0, 0.0, 1.0 ]
				}

			}
, 			{
				"box" : 				{
					"comment" : "dry:wet mix",
					"id" : "obj-93",
					"index" : 0,
					"maxclass" : "inlet",
					"numinlets" : 0,
					"numoutlets" : 1,
					"outlettype" : [ "" ],
					"patching_rect" : [ 356.12504506111145, 45.782204269351951, 30.0, 30.0 ]
				}

			}
, 			{
				"box" : 				{
					"comment" : "signal",
					"id" : "obj-319",
					"index" : 0,
					"maxclass" : "inlet",
					"numinlets" : 0,
					"numoutlets" : 1,
					"outlettype" : [ "" ],
					"patching_rect" : [ 272.773484326087782, 194.733334064483643, 30.0, 30.0 ]
				}

			}
, 			{
				"box" : 				{
					"id" : "obj-308",
					"maxclass" : "newobj",
					"numinlets" : 1,
					"numoutlets" : 1,
					"outlettype" : [ "" ],
					"patching_rect" : [ 544.833342313766479, 448.000003814697266, 92.0, 22.0 ],
					"text" : "expr (1-$f1)*0.5"
				}

			}
, 			{
				"box" : 				{
					"format" : 6,
					"id" : "obj-307",
					"maxclass" : "flonum",
					"numinlets" : 1,
					"numoutlets" : 2,
					"outlettype" : [ "", "bang" ],
					"parameter_enable" : 0,
					"patching_rect" : [ 515.5833420753479, 480.000012278556824, 50.0, 22.0 ]
				}

			}
, 			{
				"box" : 				{
					"format" : 6,
					"id" : "obj-305",
					"maxclass" : "flonum",
					"numinlets" : 1,
					"numoutlets" : 2,
					"outlettype" : [ "", "bang" ],
					"parameter_enable" : 0,
					"patching_rect" : [ 918.683342218399048, 209.066673696041107, 50.0, 22.0 ]
				}

			}
, 			{
				"box" : 				{
					"id" : "obj-298",
					"maxclass" : "newobj",
					"numinlets" : 2,
					"numoutlets" : 1,
					"outlettype" : [ "float" ],
					"patching_rect" : [ 867.0, 382.66667103767395, 40.0, 22.0 ],
					"text" : "* 1.16"
				}

			}
, 			{
				"box" : 				{
					"id" : "obj-299",
					"maxclass" : "newobj",
					"numinlets" : 2,
					"numoutlets" : 1,
					"outlettype" : [ "float" ],
					"patching_rect" : [ 867.0, 349.0, 40.0, 22.0 ],
					"text" : "* 1.16"
				}

			}
, 			{
				"box" : 				{
					"id" : "obj-300",
					"maxclass" : "newobj",
					"numinlets" : 2,
					"numoutlets" : 1,
					"outlettype" : [ "float" ],
					"patching_rect" : [ 867.0, 317.5, 40.0, 22.0 ],
					"text" : "* 1.16"
				}

			}
, 			{
				"box" : 				{
					"id" : "obj-301",
					"maxclass" : "newobj",
					"numinlets" : 2,
					"numoutlets" : 1,
					"outlettype" : [ "float" ],
					"patching_rect" : [ 867.0, 290.0, 40.0, 22.0 ],
					"text" : "* 1.16"
				}

			}
, 			{
				"box" : 				{
					"format" : 6,
					"id" : "obj-290",
					"maxclass" : "flonum",
					"numinlets" : 1,
					"numoutlets" : 2,
					"outlettype" : [ "", "bang" ],
					"parameter_enable" : 0,
					"patching_rect" : [ 704.000017166137695, 352.66667103767395, 52.0, 22.0 ]
				}

			}
, 			{
				"box" : 				{
					"format" : 6,
					"id" : "obj-289",
					"maxclass" : "flonum",
					"numinlets" : 1,
					"numoutlets" : 2,
					"outlettype" : [ "", "bang" ],
					"parameter_enable" : 0,
					"patching_rect" : [ 704.000017166137695, 387.333351969718933, 52.0, 22.0 ]
				}

			}
, 			{
				"box" : 				{
					"format" : 6,
					"id" : "obj-288",
					"maxclass" : "flonum",
					"numinlets" : 1,
					"numoutlets" : 2,
					"outlettype" : [ "", "bang" ],
					"parameter_enable" : 0,
					"patching_rect" : [ 704.000017166137695, 418.66667103767395, 52.0, 22.0 ]
				}

			}
, 			{
				"box" : 				{
					"format" : 6,
					"id" : "obj-287",
					"maxclass" : "flonum",
					"numinlets" : 1,
					"numoutlets" : 2,
					"outlettype" : [ "", "bang" ],
					"parameter_enable" : 0,
					"patching_rect" : [ 704.000017166137695, 320.666671395301819, 52.0, 22.0 ]
				}

			}
, 			{
				"box" : 				{
					"id" : "obj-285",
					"maxclass" : "newobj",
					"numinlets" : 2,
					"numoutlets" : 1,
					"outlettype" : [ "" ],
					"patching_rect" : [ 771.666699767112732, 422.333338499069214, 76.0, 22.0 ],
					"text" : "expr $f1+$f2"
				}

			}
, 			{
				"box" : 				{
					"id" : "obj-284",
					"maxclass" : "newobj",
					"numinlets" : 2,
					"numoutlets" : 1,
					"outlettype" : [ "" ],
					"patching_rect" : [ 771.666699767112732, 388.333351969718933, 76.0, 22.0 ],
					"text" : "expr $f1+$f2"
				}

			}
, 			{
				"box" : 				{
					"id" : "obj-283",
					"maxclass" : "newobj",
					"numinlets" : 2,
					"numoutlets" : 1,
					"outlettype" : [ "" ],
					"patching_rect" : [ 771.666699767112732, 353.66667103767395, 76.0, 22.0 ],
					"text" : "expr $f1+$f2"
				}

			}
, 			{
				"box" : 				{
					"id" : "obj-282",
					"maxclass" : "newobj",
					"numinlets" : 2,
					"numoutlets" : 1,
					"outlettype" : [ "" ],
					"patching_rect" : [ 771.750033378601074, 321.666671395301819, 76.0, 22.0 ],
					"text" : "expr $f1+$f2"
				}

			}
, 			{
				"box" : 				{
					"fontname" : "Lato",
					"fontsize" : 11.595186999999999,
					"format" : 6,
					"id" : "obj-263",
					"maxclass" : "flonum",
					"numinlets" : 1,
					"numoutlets" : 2,
					"outlettype" : [ "", "bang" ],
					"parameter_enable" : 0,
					"patching_rect" : [ 1003.598051390045157, 459.000011324882507, 50.0, 22.0 ]
				}

			}
, 			{
				"box" : 				{
					"fontname" : "Lato",
					"fontsize" : 11.595186999999999,
					"id" : "obj-253",
					"maxclass" : "newobj",
					"numinlets" : 2,
					"numoutlets" : 1,
					"outlettype" : [ "float" ],
					"patching_rect" : [ 1003.598051390045157, 517.000011682510376, 35.470588999999997, 22.0 ],
					"text" : "* 1."
				}

			}
, 			{
				"box" : 				{
					"fontname" : "Lato",
					"fontsize" : 11.595186999999999,
					"id" : "obj-254",
					"maxclass" : "newobj",
					"numinlets" : 1,
					"numoutlets" : 2,
					"outlettype" : [ "bang", "float" ],
					"patching_rect" : [ 1003.598051390045157, 488.666678190231323, 35.470588999999997, 22.0 ],
					"text" : "t b f"
				}

			}
, 			{
				"box" : 				{
					"fontname" : "Lato",
					"fontsize" : 11.595186999999999,
					"id" : "obj-229",
					"maxclass" : "newobj",
					"numinlets" : 2,
					"numoutlets" : 1,
					"outlettype" : [ "signal" ],
					"patching_rect" : [ 693.962529361248016, 635.999999284744263, 30.0, 22.0 ],
					"text" : "*~ 1"
				}

			}
, 			{
				"box" : 				{
					"fontname" : "Lato",
					"fontsize" : 11.595186999999999,
					"id" : "obj-230",
					"maxclass" : "newobj",
					"numinlets" : 2,
					"numoutlets" : 1,
					"outlettype" : [ "signal" ],
					"patching_rect" : [ 766.166674971580505, 606.333333849906921, 39.0, 22.0 ],
					"text" : "*~ -1."
				}

			}
, 			{
				"box" : 				{
					"fontname" : "Lato",
					"fontsize" : 11.595186999999999,
					"id" : "obj-231",
					"maxclass" : "newobj",
					"numinlets" : 2,
					"numoutlets" : 1,
					"outlettype" : [ "float" ],
					"patching_rect" : [ 406.833342313766479, 558.000024676322937, 41.0, 22.0 ],
					"text" : "* 110."
				}

			}
, 			{
				"box" : 				{
					"fontname" : "Lato",
					"fontsize" : 11.595186999999999,
					"id" : "obj-232",
					"maxclass" : "newobj",
					"numinlets" : 2,
					"numoutlets" : 1,
					"outlettype" : [ "float" ],
					"patching_rect" : [ 610.333342313766479, 558.000024676322937, 41.0, 22.0 ],
					"text" : "* 135."
				}

			}
, 			{
				"box" : 				{
					"fontname" : "Lato",
					"fontsize" : 11.595186999999999,
					"id" : "obj-234",
					"maxclass" : "newobj",
					"numinlets" : 2,
					"numoutlets" : 1,
					"outlettype" : [ "float" ],
					"patching_rect" : [ 805.000034093856812, 558.000024676322937, 30.470589, 22.0 ],
					"text" : "* 3."
				}

			}
, 			{
				"box" : 				{
					"fontname" : "Lato",
					"fontsize" : 11.595186999999999,
					"id" : "obj-236",
					"maxclass" : "newobj",
					"numinlets" : 2,
					"numoutlets" : 1,
					"outlettype" : [ "float" ],
					"patching_rect" : [ 984.333364009857178, 558.000024676322937, 34.0, 22.0 ],
					"text" : "* 27."
				}

			}
, 			{
				"box" : 				{
					"fontname" : "Lato",
					"fontsize" : 11.595186999999999,
					"id" : "obj-245",
					"maxclass" : "newobj",
					"numinlets" : 5,
					"numoutlets" : 1,
					"outlettype" : [ "signal" ],
					"patching_rect" : [ 1024.916713356971741, 558.000024676322937, 134.0, 22.0 ],
					"text" : "comb~ 100. 27. 0. 1. 0."
				}

			}
, 			{
				"box" : 				{
					"fontname" : "Lato",
					"fontsize" : 11.595186999999999,
					"id" : "obj-247",
					"maxclass" : "newobj",
					"numinlets" : 5,
					"numoutlets" : 1,
					"outlettype" : [ "signal" ],
					"patching_rect" : [ 839.000032186508179, 558.000024676322937, 134.0, 22.0 ],
					"text" : "comb~ 100. 3. 0. 1. 0."
				}

			}
, 			{
				"box" : 				{
					"fontname" : "Lato",
					"fontsize" : 11.595186999999999,
					"id" : "obj-249",
					"maxclass" : "newobj",
					"numinlets" : 5,
					"numoutlets" : 1,
					"outlettype" : [ "signal" ],
					"patching_rect" : [ 656.333342313766479, 558.000024676322937, 134.0, 22.0 ],
					"text" : "comb~ 300. 135. 0. 1. 0."
				}

			}
, 			{
				"box" : 				{
					"fontname" : "Lato",
					"fontsize" : 11.595186999999999,
					"id" : "obj-250",
					"maxclass" : "newobj",
					"numinlets" : 5,
					"numoutlets" : 1,
					"outlettype" : [ "signal" ],
					"patching_rect" : [ 459.66669750213623, 558.000024676322937, 134.0, 22.0 ],
					"text" : "comb~ 300. 110. 0. 1. 0."
				}

			}
, 			{
				"box" : 				{
					"format" : 6,
					"id" : "obj-219",
					"maxclass" : "flonum",
					"numinlets" : 1,
					"numoutlets" : 2,
					"outlettype" : [ "", "bang" ],
					"parameter_enable" : 0,
					"patching_rect" : [ 945.666696190834045, 389.66667103767395, 50.0, 22.0 ]
				}

			}
, 			{
				"box" : 				{
					"format" : 6,
					"id" : "obj-218",
					"maxclass" : "flonum",
					"numinlets" : 1,
					"numoutlets" : 2,
					"outlettype" : [ "", "bang" ],
					"parameter_enable" : 0,
					"patching_rect" : [ 945.666696190834045, 429.333339333534241, 50.0, 22.0 ]
				}

			}
, 			{
				"box" : 				{
					"id" : "obj-216",
					"maxclass" : "newobj",
					"numinlets" : 2,
					"numoutlets" : 1,
					"outlettype" : [ "float" ],
					"patching_rect" : [ 1002.833345890045166, 389.66667103767395, 37.0, 22.0 ],
					"text" : "* -0.3"
				}

			}
, 			{
				"box" : 				{
					"id" : "obj-215",
					"maxclass" : "newobj",
					"numinlets" : 2,
					"numoutlets" : 1,
					"outlettype" : [ "float" ],
					"patching_rect" : [ 945.666696190834045, 361.999988794326782, 33.0, 22.0 ],
					"text" : "* 0.3"
				}

			}
, 			{
				"box" : 				{
					"format" : 6,
					"id" : "obj-209",
					"maxclass" : "flonum",
					"numinlets" : 1,
					"numoutlets" : 2,
					"outlettype" : [ "", "bang" ],
					"parameter_enable" : 0,
					"patching_rect" : [ 945.666696190834045, 322.999990463256836, 50.0, 22.0 ]
				}

			}
, 			{
				"box" : 				{
					"id" : "obj-207",
					"maxclass" : "newobj",
					"numinlets" : 2,
					"numoutlets" : 1,
					"outlettype" : [ "float" ],
					"patching_rect" : [ 945.666696190834045, 284.999990820884705, 81.0, 22.0 ],
					"text" : "snapshot~ 10"
				}

			}
, 			{
				"box" : 				{
					"id" : "obj-179",
					"maxclass" : "newobj",
					"numinlets" : 2,
					"numoutlets" : 1,
					"outlettype" : [ "signal" ],
					"patching_rect" : [ 945.666696190834045, 253.999990820884705, 63.0, 22.0 ],
					"text" : "cycle~ 0.1"
				}

			}
, 			{
				"box" : 				{
					"format" : 6,
					"id" : "obj-172",
					"maxclass" : "flonum",
					"numinlets" : 1,
					"numoutlets" : 2,
					"outlettype" : [ "", "bang" ],
					"parameter_enable" : 0,
					"patching_rect" : [ 597.962529361248016, 258.899989485740662, 50.0, 22.0 ]
				}

			}
, 			{
				"box" : 				{
					"fontname" : "Lato",
					"fontsize" : 11.117359,
					"id" : "obj-62",
					"maxclass" : "newobj",
					"numinlets" : 2,
					"numoutlets" : 1,
					"outlettype" : [ "float" ],
					"patching_rect" : [ 589.666674852371216, 480.000012278556824, 41.0, 22.0 ],
					"text" : "* 0.85"
				}

			}
, 			{
				"box" : 				{
					"fontname" : "Lato",
					"fontsize" : 11.117359,
					"format" : 6,
					"id" : "obj-61",
					"maxclass" : "flonum",
					"numinlets" : 1,
					"numoutlets" : 2,
					"outlettype" : [ "", "bang" ],
					"parameter_enable" : 0,
					"patching_rect" : [ 757.250033378601074, 258.899989485740662, 82.0, 22.0 ]
				}

			}
, 			{
				"box" : 				{
					"fontname" : "Lato",
					"fontsize" : 11.117359,
					"id" : "obj-63",
					"maxclass" : "newobj",
					"numinlets" : 1,
					"numoutlets" : 1,
					"outlettype" : [ "signal" ],
					"patching_rect" : [ 710.000025153160095, 517.000011682510376, 69.0, 22.0 ],
					"text" : "tapout~ 10."
				}

			}
, 			{
				"box" : 				{
					"fontname" : "Lato",
					"fontsize" : 11.117359,
					"id" : "obj-64",
					"maxclass" : "newobj",
					"numinlets" : 1,
					"numoutlets" : 1,
					"outlettype" : [ "tapconnect" ],
					"patching_rect" : [ 710.000025153160095, 488.666678190231323, 62.0, 22.0 ],
					"text" : "tapin~ 10."
				}

			}
, 			{
				"box" : 				{
					"fontname" : "Lato",
					"fontsize" : 11.117359,
					"id" : "obj-66",
					"maxclass" : "newobj",
					"numinlets" : 2,
					"numoutlets" : 1,
					"outlettype" : [ "signal" ],
					"patching_rect" : [ 710.000025153160095, 459.000011324882507, 41.0, 22.0 ],
					"text" : "*~ 0.2"
				}

			}
, 			{
				"box" : 				{
					"fontname" : "Lato",
					"fontsize" : 11.117359,
					"id" : "obj-88",
					"maxclass" : "newobj",
					"numinlets" : 3,
					"numoutlets" : 1,
					"outlettype" : [ "signal" ],
					"patching_rect" : [ 573.333342313766479, 519.666678428649902, 115.0, 22.0 ],
					"text" : "allpass~ 200 0. 0.38"
				}

			}
, 			{
				"box" : 				{
					"fontname" : "Lato",
					"fontsize" : 11.117359,
					"id" : "obj-95",
					"maxclass" : "newobj",
					"numinlets" : 3,
					"numoutlets" : 1,
					"outlettype" : [ "signal" ],
					"patching_rect" : [ 443.083342313766479, 519.666678428649902, 115.0, 22.0 ],
					"text" : "allpass~ 200 0. 0.35"
				}

			}
, 			{
				"box" : 				{
					"fontname" : "Lato",
					"fontsize" : 11.117359,
					"id" : "obj-98",
					"maxclass" : "newobj",
					"numinlets" : 2,
					"numoutlets" : 1,
					"outlettype" : [ "signal" ],
					"patching_rect" : [ 463.333342313766479, 480.000012278556824, 29.5, 22.0 ],
					"text" : "*~"
				}

			}
, 			{
				"box" : 				{
					"fontname" : "Lato",
					"fontsize" : 11.117359,
					"id" : "obj-99",
					"maxclass" : "newobj",
					"numinlets" : 2,
					"numoutlets" : 1,
					"outlettype" : [ "signal" ],
					"patching_rect" : [ 427.666676044464111, 480.000012278556824, 29.5, 22.0 ],
					"text" : "*~"
				}

			}
, 			{
				"box" : 				{
					"fontname" : "Lato",
					"fontsize" : 11.117359,
					"id" : "obj-102",
					"maxclass" : "newobj",
					"numinlets" : 3,
					"numoutlets" : 1,
					"outlettype" : [ "signal" ],
					"patching_rect" : [ 575.333342313766479, 418.66667103767395, 115.0, 22.0 ],
					"text" : "allpass~ 200 0. 0.63"
				}

			}
, 			{
				"box" : 				{
					"fontname" : "Lato",
					"fontsize" : 11.117359,
					"id" : "obj-103",
					"maxclass" : "newobj",
					"numinlets" : 3,
					"numoutlets" : 1,
					"outlettype" : [ "signal" ],
					"patching_rect" : [ 575.333342313766479, 390.66667103767395, 121.0, 22.0 ],
					"text" : "allpass~ 200 0. 0.662"
				}

			}
, 			{
				"box" : 				{
					"fontname" : "Lato",
					"fontsize" : 11.117359,
					"id" : "obj-104",
					"maxclass" : "newobj",
					"numinlets" : 3,
					"numoutlets" : 1,
					"outlettype" : [ "signal" ],
					"patching_rect" : [ 575.333342313766479, 362.66667103767395, 115.0, 22.0 ],
					"text" : "allpass~ 200 0. 0.72"
				}

			}
, 			{
				"box" : 				{
					"fontname" : "Lato",
					"fontsize" : 11.117359,
					"id" : "obj-105",
					"maxclass" : "newobj",
					"numinlets" : 3,
					"numoutlets" : 1,
					"outlettype" : [ "signal" ],
					"patching_rect" : [ 575.333342313766479, 335.66667103767395, 115.0, 22.0 ],
					"text" : "allpass~ 200 0. 0.75"
				}

			}
, 			{
				"box" : 				{
					"fontname" : "Lato",
					"fontsize" : 11.117359,
					"id" : "obj-125",
					"maxclass" : "newobj",
					"numinlets" : 2,
					"numoutlets" : 1,
					"outlettype" : [ "signal" ],
					"patching_rect" : [ 423.833342313766479, 440.66667103767395, 42.0, 22.0 ],
					"text" : "*~ -0.6"
				}

			}
, 			{
				"box" : 				{
					"fontname" : "Lato",
					"fontsize" : 11.117359,
					"id" : "obj-126",
					"maxclass" : "newobj",
					"numinlets" : 2,
					"numoutlets" : 1,
					"outlettype" : [ "signal" ],
					"patching_rect" : [ 423.833342313766479, 412.66667103767395, 108.0, 22.0 ],
					"text" : "onepole~ 1800 Hz."
				}

			}
, 			{
				"box" : 				{
					"fontname" : "Lato",
					"fontsize" : 11.117359,
					"id" : "obj-127",
					"maxclass" : "newobj",
					"numinlets" : 3,
					"numoutlets" : 1,
					"outlettype" : [ "signal" ],
					"patching_rect" : [ 423.833342313766479, 382.66667103767395, 108.0, 22.0 ],
					"text" : "allpass~ 80 50. 0.2"
				}

			}
, 			{
				"box" : 				{
					"fontname" : "Lato",
					"fontsize" : 11.117359,
					"id" : "obj-128",
					"maxclass" : "newobj",
					"numinlets" : 3,
					"numoutlets" : 1,
					"outlettype" : [ "signal" ],
					"patching_rect" : [ 423.833342313766479, 352.66667103767395, 108.0, 22.0 ],
					"text" : "allpass~ 80 50. 0.2"
				}

			}
, 			{
				"box" : 				{
					"fontname" : "Lato",
					"fontsize" : 11.117359,
					"id" : "obj-129",
					"maxclass" : "newobj",
					"numinlets" : 1,
					"numoutlets" : 1,
					"outlettype" : [ "signal" ],
					"patching_rect" : [ 423.833342313766479, 322.66667103767395, 75.0, 22.0 ],
					"text" : "tapout~ 130."
				}

			}
, 			{
				"box" : 				{
					"fontname" : "Lato",
					"fontsize" : 11.117359,
					"id" : "obj-130",
					"maxclass" : "newobj",
					"numinlets" : 1,
					"numoutlets" : 1,
					"outlettype" : [ "tapconnect" ],
					"patching_rect" : [ 423.833342313766479, 293.66667103767395, 68.0, 22.0 ],
					"text" : "tapin~ 130."
				}

			}
, 			{
				"box" : 				{
					"fontname" : "Lato",
					"fontsize" : 11.117359,
					"id" : "obj-133",
					"maxclass" : "newobj",
					"numinlets" : 2,
					"numoutlets" : 1,
					"outlettype" : [ "float" ],
					"patching_rect" : [ 683.962529361248016, 284.999990820884705, 34.0, 22.0 ],
					"text" : "* 30."
				}

			}
, 			{
				"box" : 				{
					"fontname" : "Lato",
					"fontsize" : 11.117359,
					"id" : "obj-134",
					"maxclass" : "newobj",
					"numinlets" : 2,
					"numoutlets" : 1,
					"outlettype" : [ "float" ],
					"patching_rect" : [ 643.962529361248016, 284.999990820884705, 34.0, 22.0 ],
					"text" : "* 76."
				}

			}
, 			{
				"box" : 				{
					"fontname" : "Lato",
					"fontsize" : 11.117359,
					"id" : "obj-135",
					"maxclass" : "newobj",
					"numinlets" : 2,
					"numoutlets" : 1,
					"outlettype" : [ "float" ],
					"patching_rect" : [ 597.962529361248016, 284.999990820884705, 41.0, 22.0 ],
					"text" : "* 122."
				}

			}
, 			{
				"box" : 				{
					"fontname" : "Lato",
					"fontsize" : 11.117359,
					"id" : "obj-137",
					"maxclass" : "newobj",
					"numinlets" : 2,
					"numoutlets" : 1,
					"outlettype" : [ "signal" ],
					"patching_rect" : [ 423.833342313766479, 255.500005006790161, 102.0, 22.0 ],
					"text" : "onepole~ 1400 Hz."
				}

			}
, 			{
				"box" : 				{
					"angle" : 270.0,
					"bordercolor" : [ 0.0, 0.0, 0.0, 1.0 ],
					"grad1" : [ 0.847058823529412, 0.843137254901961, 0.843137254901961, 1.0 ],
					"grad2" : [ 0.674509803921569, 0.674509803921569, 0.674509803921569, 1.0 ],
					"id" : "obj-43",
					"maxclass" : "panel",
					"mode" : 1,
					"numinlets" : 1,
					"numoutlets" : 0,
					"patching_rect" : [ 270.773484326087782, 27.640098193660378, 883.125057220458984, 146.808767040180555 ],
					"presentation" : 1,
					"presentation_rect" : [ -0.72918701171875, -1.833343505859375, 295.4583740234375, 153.846675048582256 ],
					"proportion" : 0.5
				}

			}
 ],
		"lines" : [ 			{
				"patchline" : 				{
					"destination" : [ "obj-98", 1 ],
					"midpoints" : [ 584.833342313766479, 441.0, 534.00000011920929, 441.0, 534.00000011920929, 465.0, 483.333342313766479, 465.0 ],
					"source" : [ "obj-102", 0 ]
				}

			}
, 			{
				"patchline" : 				{
					"destination" : [ "obj-102", 0 ],
					"source" : [ "obj-103", 0 ]
				}

			}
, 			{
				"patchline" : 				{
					"destination" : [ "obj-103", 0 ],
					"source" : [ "obj-104", 0 ]
				}

			}
, 			{
				"patchline" : 				{
					"destination" : [ "obj-104", 0 ],
					"source" : [ "obj-105", 0 ]
				}

			}
, 			{
				"patchline" : 				{
					"destination" : [ "obj-105", 0 ],
					"midpoints" : [ 433.333342313766479, 465.0, 530.0, 465.0, 530.0, 440.333333492279053, 560.0, 440.333333492279053, 560.0, 330.0, 584.833342313766479, 330.0 ],
					"order" : 0,
					"source" : [ "obj-125", 0 ]
				}

			}
, 			{
				"patchline" : 				{
					"destination" : [ "obj-130", 0 ],
					"midpoints" : [ 433.333342313766479, 473.000004410743713, 539.833342313766479, 473.000004410743713, 539.833342313766479, 284.66667103767395, 433.333342313766479, 284.66667103767395 ],
					"order" : 2,
					"source" : [ "obj-125", 0 ]
				}

			}
, 			{
				"patchline" : 				{
					"destination" : [ "obj-99", 0 ],
					"midpoints" : [ 433.333342313766479, 485.333335638046265, 437.166676044464111, 485.333335638046265 ],
					"order" : 1,
					"source" : [ "obj-125", 0 ]
				}

			}
, 			{
				"patchline" : 				{
					"destination" : [ "obj-125", 0 ],
					"source" : [ "obj-126", 0 ]
				}

			}
, 			{
				"patchline" : 				{
					"destination" : [ "obj-126", 0 ],
					"source" : [ "obj-127", 0 ]
				}

			}
, 			{
				"patchline" : 				{
					"destination" : [ "obj-127", 0 ],
					"source" : [ "obj-128", 0 ]
				}

			}
, 			{
				"patchline" : 				{
					"destination" : [ "obj-128", 0 ],
					"source" : [ "obj-129", 0 ]
				}

			}
, 			{
				"patchline" : 				{
					"destination" : [ "obj-129", 0 ],
					"source" : [ "obj-130", 0 ]
				}

			}
, 			{
				"patchline" : 				{
					"destination" : [ "obj-127", 1 ],
					"midpoints" : [ 693.462529361248016, 313.200003504753113, 542.333340764045715, 313.200003504753113, 542.333340764045715, 377.666669607162476, 477.833342313766479, 377.666669607162476 ],
					"source" : [ "obj-133", 0 ]
				}

			}
, 			{
				"patchline" : 				{
					"destination" : [ "obj-128", 1 ],
					"midpoints" : [ 653.462529361248016, 313.200003683567047, 516.333340764045715, 313.200003683567047, 516.333340764045715, 347.666669607162476, 477.833342313766479, 347.666669607162476 ],
					"source" : [ "obj-134", 0 ]
				}

			}
, 			{
				"patchline" : 				{
					"destination" : [ "obj-129", 0 ],
					"midpoints" : [ 607.462529361248016, 313.866670548915863, 506.333340764045715, 313.866670548915863, 506.333340764045715, 317.666669607162476, 433.333342313766479, 317.666669607162476 ],
					"source" : [ "obj-135", 0 ]
				}

			}
, 			{
				"patchline" : 				{
					"destination" : [ "obj-105", 0 ],
					"midpoints" : [ 433.333342313766479, 282.333336710929871, 584.833342313766479, 282.333336710929871 ],
					"order" : 0,
					"source" : [ "obj-137", 0 ]
				}

			}
, 			{
				"patchline" : 				{
					"destination" : [ "obj-130", 0 ],
					"order" : 1,
					"source" : [ "obj-137", 0 ]
				}

			}
, 			{
				"patchline" : 				{
					"destination" : [ "obj-140", 0 ],
					"source" : [ "obj-138", 0 ]
				}

			}
, 			{
				"patchline" : 				{
					"destination" : [ "obj-80", 0 ],
					"midpoints" : [ 280.273484326087782, 513.0, 280.273484326087782, 513.0 ],
					"source" : [ "obj-140", 0 ]
				}

			}
, 			{
				"patchline" : 				{
					"destination" : [ "obj-133", 0 ],
					"midpoints" : [ 607.462529361248016, 281.666656374931335, 693.462529361248016, 281.666656374931335 ],
					"order" : 0,
					"source" : [ "obj-172", 0 ]
				}

			}
, 			{
				"patchline" : 				{
					"destination" : [ "obj-134", 0 ],
					"midpoints" : [ 607.462529361248016, 283.799989700317383, 653.462529361248016, 283.799989700317383 ],
					"order" : 1,
					"source" : [ "obj-172", 0 ]
				}

			}
, 			{
				"patchline" : 				{
					"destination" : [ "obj-135", 0 ],
					"order" : 2,
					"source" : [ "obj-172", 0 ]
				}

			}
, 			{
				"patchline" : 				{
					"destination" : [ "obj-207", 0 ],
					"source" : [ "obj-179", 0 ]
				}

			}
, 			{
				"patchline" : 				{
					"destination" : [ "obj-138", 1 ],
					"order" : 1,
					"source" : [ "obj-20", 0 ]
				}

			}
, 			{
				"patchline" : 				{
					"destination" : [ "obj-82", 0 ],
					"midpoints" : [ 280.273484326087782, 450.0, 349.415170403297225, 450.0 ],
					"order" : 0,
					"source" : [ "obj-20", 0 ]
				}

			}
, 			{
				"patchline" : 				{
					"destination" : [ "obj-209", 0 ],
					"source" : [ "obj-207", 0 ]
				}

			}
, 			{
				"patchline" : 				{
					"destination" : [ "obj-215", 0 ],
					"order" : 1,
					"source" : [ "obj-209", 0 ]
				}

			}
, 			{
				"patchline" : 				{
					"destination" : [ "obj-216", 0 ],
					"midpoints" : [ 955.166696190834045, 354.333322167396545, 1012.333345890045166, 354.333322167396545 ],
					"order" : 0,
					"source" : [ "obj-209", 0 ]
				}

			}
, 			{
				"patchline" : 				{
					"destination" : [ "obj-219", 0 ],
					"source" : [ "obj-215", 0 ]
				}

			}
, 			{
				"patchline" : 				{
					"destination" : [ "obj-218", 0 ],
					"midpoints" : [ 1012.333345890045166, 423.999988675117493, 955.166696190834045, 423.999988675117493 ],
					"source" : [ "obj-216", 0 ]
				}

			}
, 			{
				"patchline" : 				{
					"destination" : [ "obj-282", 0 ],
					"midpoints" : [ 955.166696190834045, 450.0, 851.400000095367432, 450.0, 851.400000095367432, 315.600000143051147, 781.250033378601074, 315.600000143051147 ],
					"order" : 1,
					"source" : [ "obj-218", 0 ]
				}

			}
, 			{
				"patchline" : 				{
					"destination" : [ "obj-284", 0 ],
					"midpoints" : [ 955.166696190834045, 453.399999916553497, 851.400001347064972, 453.399999916553497, 851.400001347064972, 384.0, 781.166699767112732, 384.0 ],
					"order" : 0,
					"source" : [ "obj-218", 0 ]
				}

			}
, 			{
				"patchline" : 				{
					"destination" : [ "obj-283", 0 ],
					"midpoints" : [ 955.166696190834045, 411.0, 849.000000059604645, 411.0, 849.000000059604645, 348.0, 781.166699767112732, 348.0 ],
					"order" : 1,
					"source" : [ "obj-219", 0 ]
				}

			}
, 			{
				"patchline" : 				{
					"destination" : [ "obj-285", 0 ],
					"midpoints" : [ 955.166696190834045, 411.0, 848.800001084804535, 411.0, 848.800001084804535, 417.0, 781.166699767112732, 417.0 ],
					"order" : 0,
					"source" : [ "obj-219", 0 ]
				}

			}
, 			{
				"patchline" : 				{
					"destination" : [ "obj-70", 0 ],
					"midpoints" : [ 703.462529361248016, 660.0, 390.666668057441711, 660.0, 390.666668057441711, 548.666666388511658, 349.415170403297225, 548.666666388511658 ],
					"source" : [ "obj-229", 0 ]
				}

			}
, 			{
				"patchline" : 				{
					"destination" : [ "obj-229", 0 ],
					"midpoints" : [ 775.666674971580505, 627.333333253860474, 703.462529361248016, 627.333333253860474 ],
					"source" : [ "obj-230", 0 ]
				}

			}
, 			{
				"patchline" : 				{
					"destination" : [ "obj-250", 1 ],
					"midpoints" : [ 416.333342313766479, 582.0, 455.0, 582.0, 455.0, 555.0, 497.91669750213623, 555.0 ],
					"source" : [ "obj-231", 0 ]
				}

			}
, 			{
				"patchline" : 				{
					"destination" : [ "obj-249", 1 ],
					"midpoints" : [ 619.833342313766479, 582.0, 653.0, 582.0, 653.0, 552.0, 694.583342313766479, 552.0 ],
					"source" : [ "obj-232", 0 ]
				}

			}
, 			{
				"patchline" : 				{
					"destination" : [ "obj-247", 1 ],
					"midpoints" : [ 814.500034093856812, 582.0, 836.0, 582.0, 836.0, 543.0, 877.250032186508179, 543.0 ],
					"source" : [ "obj-234", 0 ]
				}

			}
, 			{
				"patchline" : 				{
					"destination" : [ "obj-245", 1 ],
					"midpoints" : [ 993.833364009857178, 582.0, 1019.0, 582.0, 1019.0, 543.0, 1063.166713356971741, 543.0 ],
					"source" : [ "obj-236", 0 ]
				}

			}
, 			{
				"patchline" : 				{
					"destination" : [ "obj-230", 0 ],
					"midpoints" : [ 1034.416713356971741, 595.999997735023499, 775.666674971580505, 595.999997735023499 ],
					"source" : [ "obj-245", 0 ]
				}

			}
, 			{
				"patchline" : 				{
					"destination" : [ "obj-229", 0 ],
					"midpoints" : [ 848.500032186508179, 596.999996423721313, 703.462529361248016, 596.999996423721313 ],
					"source" : [ "obj-247", 0 ]
				}

			}
, 			{
				"patchline" : 				{
					"destination" : [ "obj-229", 0 ],
					"midpoints" : [ 665.833342313766479, 614.666659951210022, 703.462529361248016, 614.666659951210022 ],
					"source" : [ "obj-249", 0 ]
				}

			}
, 			{
				"patchline" : 				{
					"destination" : [ "obj-229", 0 ],
					"midpoints" : [ 469.16669750213623, 614.666659951210022, 703.462529361248016, 614.666659951210022 ],
					"source" : [ "obj-250", 0 ]
				}

			}
, 			{
				"patchline" : 				{
					"destination" : [ "obj-231", 0 ],
					"midpoints" : [ 1013.098051390045157, 552.666667580604553, 416.333342313766479, 552.666667580604553 ],
					"order" : 3,
					"source" : [ "obj-253", 0 ]
				}

			}
, 			{
				"patchline" : 				{
					"destination" : [ "obj-232", 0 ],
					"midpoints" : [ 1013.098051390045157, 543.0, 619.833342313766479, 543.0 ],
					"order" : 2,
					"source" : [ "obj-253", 0 ]
				}

			}
, 			{
				"patchline" : 				{
					"destination" : [ "obj-234", 0 ],
					"midpoints" : [ 1013.098051390045157, 543.0, 814.500034093856812, 543.0 ],
					"order" : 1,
					"source" : [ "obj-253", 0 ]
				}

			}
, 			{
				"patchline" : 				{
					"destination" : [ "obj-236", 0 ],
					"midpoints" : [ 1013.098051390045157, 543.0, 993.833364009857178, 543.0 ],
					"order" : 0,
					"source" : [ "obj-253", 0 ]
				}

			}
, 			{
				"patchline" : 				{
					"destination" : [ "obj-253", 1 ],
					"source" : [ "obj-254", 1 ]
				}

			}
, 			{
				"patchline" : 				{
					"destination" : [ "obj-253", 0 ],
					"source" : [ "obj-254", 0 ]
				}

			}
, 			{
				"patchline" : 				{
					"destination" : [ "obj-254", 0 ],
					"source" : [ "obj-263", 0 ]
				}

			}
, 			{
				"patchline" : 				{
					"destination" : [ "obj-20", 0 ],
					"midpoints" : [ 301.62504506111145, 120.0, 257.0, 120.0, 257.0, 407.0, 280.273484326087782, 407.0 ],
					"source" : [ "obj-28", 0 ]
				}

			}
, 			{
				"patchline" : 				{
					"destination" : [ "obj-287", 0 ],
					"midpoints" : [ 781.250033378601074, 345.0, 759.800000071525574, 345.0, 759.800000071525574, 316.400000154972076, 713.500017166137695, 316.400000154972076 ],
					"source" : [ "obj-282", 0 ]
				}

			}
, 			{
				"patchline" : 				{
					"destination" : [ "obj-290", 0 ],
					"midpoints" : [ 781.166699767112732, 375.0, 755.0, 375.0, 755.0, 348.0, 713.500017166137695, 348.0 ],
					"source" : [ "obj-283", 0 ]
				}

			}
, 			{
				"patchline" : 				{
					"destination" : [ "obj-289", 0 ],
					"midpoints" : [ 781.166699767112732, 411.0, 755.0, 411.0, 755.0, 384.0, 713.500017166137695, 384.0 ],
					"source" : [ "obj-284", 0 ]
				}

			}
, 			{
				"patchline" : 				{
					"destination" : [ "obj-288", 0 ],
					"midpoints" : [ 781.166699767112732, 444.0, 755.0, 444.0, 755.0, 414.0, 713.500017166137695, 414.0 ],
					"source" : [ "obj-285", 0 ]
				}

			}
, 			{
				"patchline" : 				{
					"destination" : [ "obj-102", 1 ],
					"midpoints" : [ 713.500017166137695, 345.0, 698.0, 345.0, 698.0, 414.0, 632.833342313766479, 414.0 ],
					"source" : [ "obj-287", 0 ]
				}

			}
, 			{
				"patchline" : 				{
					"destination" : [ "obj-105", 1 ],
					"midpoints" : [ 713.500017166137695, 441.0, 692.0, 441.0, 692.0, 331.0, 632.833342313766479, 331.0 ],
					"source" : [ "obj-288", 0 ]
				}

			}
, 			{
				"patchline" : 				{
					"destination" : [ "obj-104", 1 ],
					"midpoints" : [ 713.500017166137695, 411.0, 698.0, 411.0, 698.0, 359.0, 632.833342313766479, 359.0 ],
					"source" : [ "obj-289", 0 ]
				}

			}
, 			{
				"patchline" : 				{
					"destination" : [ "obj-103", 1 ],
					"midpoints" : [ 713.500017166137695, 375.0, 692.0, 375.0, 692.0, 381.0, 635.833342313766479, 381.0 ],
					"source" : [ "obj-290", 0 ]
				}

			}
, 			{
				"patchline" : 				{
					"destination" : [ "obj-285", 1 ],
					"source" : [ "obj-298", 0 ]
				}

			}
, 			{
				"patchline" : 				{
					"destination" : [ "obj-284", 1 ],
					"order" : 1,
					"source" : [ "obj-299", 0 ]
				}

			}
, 			{
				"patchline" : 				{
					"destination" : [ "obj-298", 0 ],
					"order" : 0,
					"source" : [ "obj-299", 0 ]
				}

			}
, 			{
				"patchline" : 				{
					"destination" : [ "obj-283", 1 ],
					"order" : 1,
					"source" : [ "obj-300", 0 ]
				}

			}
, 			{
				"patchline" : 				{
					"destination" : [ "obj-299", 0 ],
					"order" : 0,
					"source" : [ "obj-300", 0 ]
				}

			}
, 			{
				"patchline" : 				{
					"destination" : [ "obj-282", 1 ],
					"order" : 1,
					"source" : [ "obj-301", 0 ]
				}

			}
, 			{
				"patchline" : 				{
					"destination" : [ "obj-300", 0 ],
					"order" : 0,
					"source" : [ "obj-301", 0 ]
				}

			}
, 			{
				"patchline" : 				{
					"destination" : [ "obj-308", 0 ],
					"midpoints" : [ 928.183342218399048, 458.66666567325592, 700.0, 458.66666567325592, 700.0, 450.99999988079071, 554.333342313766479, 450.99999988079071 ],
					"order" : 0,
					"source" : [ "obj-305", 0 ]
				}

			}
, 			{
				"patchline" : 				{
					"destination" : [ "obj-99", 1 ],
					"midpoints" : [ 928.183342218399048, 314.666667819023132, 547.333333492279053, 314.666667819023132, 547.333333492279053, 444.0, 476.0, 444.0, 476.0, 474.0, 447.666676044464111, 474.0 ],
					"order" : 1,
					"source" : [ "obj-305", 0 ]
				}

			}
, 			{
				"patchline" : 				{
					"destination" : [ "obj-98", 0 ],
					"midpoints" : [ 525.0833420753479, 506.666678786277771, 508.000008702278137, 506.666678786277771, 508.000008702278137, 475.000004768371582, 472.833342313766479, 475.000004768371582 ],
					"source" : [ "obj-307", 0 ]
				}

			}
, 			{
				"patchline" : 				{
					"destination" : [ "obj-307", 0 ],
					"midpoints" : [ 554.333342313766479, 480.833341956138611, 525.0833420753479, 480.833341956138611 ],
					"source" : [ "obj-308", 0 ]
				}

			}
, 			{
				"patchline" : 				{
					"destination" : [ "obj-137", 0 ],
					"midpoints" : [ 282.273484326087782, 249.0, 433.333342313766479, 249.0 ],
					"order" : 0,
					"source" : [ "obj-319", 0 ]
				}

			}
, 			{
				"patchline" : 				{
					"destination" : [ "obj-73", 0 ],
					"midpoints" : [ 282.273484326087782, 335.0, 257.0, 335.0, 257.0, 549.0, 280.273484326087782, 549.0 ],
					"order" : 1,
					"source" : [ "obj-319", 0 ]
				}

			}
, 			{
				"patchline" : 				{
					"destination" : [ "obj-305", 0 ],
					"midpoints" : [ 975.166696190834045, 75.0, 905.0, 75.0, 905.0, 204.0, 928.183342218399048, 204.0 ],
					"source" : [ "obj-325", 0 ]
				}

			}
, 			{
				"patchline" : 				{
					"destination" : [ "obj-27", 0 ],
					"source" : [ "obj-326", 0 ]
				}

			}
, 			{
				"patchline" : 				{
					"destination" : [ "obj-332", 0 ],
					"midpoints" : [ 607.462529361248016, 228.800000011920929, 766.750033378601074, 228.800000011920929 ],
					"order" : 0,
					"source" : [ "obj-331", 0 ]
				}

			}
, 			{
				"patchline" : 				{
					"destination" : [ "obj-336", 0 ],
					"order" : 1,
					"source" : [ "obj-331", 0 ]
				}

			}
, 			{
				"patchline" : 				{
					"destination" : [ "obj-61", 0 ],
					"source" : [ "obj-332", 0 ]
				}

			}
, 			{
				"patchline" : 				{
					"destination" : [ "obj-335", 0 ],
					"source" : [ "obj-333", 0 ]
				}

			}
, 			{
				"patchline" : 				{
					"destination" : [ "obj-331", 0 ],
					"source" : [ "obj-335", 0 ]
				}

			}
, 			{
				"patchline" : 				{
					"destination" : [ "obj-172", 0 ],
					"source" : [ "obj-336", 0 ]
				}

			}
, 			{
				"patchline" : 				{
					"destination" : [ "obj-342", 0 ],
					"source" : [ "obj-338", 0 ]
				}

			}
, 			{
				"patchline" : 				{
					"destination" : [ "obj-338", 0 ],
					"source" : [ "obj-340", 0 ]
				}

			}
, 			{
				"patchline" : 				{
					"destination" : [ "obj-137", 1 ],
					"midpoints" : [ 433.333342313766479, 250.200000882148743, 516.333342313766479, 250.200000882148743 ],
					"source" : [ "obj-341", 0 ]
				}

			}
, 			{
				"patchline" : 				{
					"destination" : [ "obj-341", 0 ],
					"source" : [ "obj-342", 0 ]
				}

			}
, 			{
				"patchline" : 				{
					"destination" : [ "obj-305", 0 ],
					"source" : [ "obj-343", 0 ]
				}

			}
, 			{
				"patchline" : 				{
					"destination" : [ "obj-343", 0 ],
					"source" : [ "obj-345", 0 ]
				}

			}
, 			{
				"patchline" : 				{
					"destination" : [ "obj-263", 0 ],
					"midpoints" : [ 1049.616714417934418, 444.0, 1013.098051390045157, 444.0 ],
					"source" : [ "obj-347", 0 ]
				}

			}
, 			{
				"patchline" : 				{
					"destination" : [ "obj-301", 0 ],
					"midpoints" : [ 766.750033378601074, 285.74999475479126, 876.5, 285.74999475479126 ],
					"order" : 0,
					"source" : [ "obj-61", 0 ]
				}

			}
, 			{
				"patchline" : 				{
					"destination" : [ "obj-62", 0 ],
					"midpoints" : [ 766.750033378601074, 452.333333134651184, 647.0, 452.333333134651184, 647.0, 474.0, 599.166674852371216, 474.0 ],
					"order" : 1,
					"source" : [ "obj-61", 0 ]
				}

			}
, 			{
				"patchline" : 				{
					"destination" : [ "obj-95", 1 ],
					"midpoints" : [ 766.750033378601074, 314.00000011920929, 542.0, 314.00000011920929, 542.0, 444.0, 500.583342313766479, 444.0 ],
					"order" : 2,
					"source" : [ "obj-61", 0 ]
				}

			}
, 			{
				"patchline" : 				{
					"destination" : [ "obj-88", 1 ],
					"midpoints" : [ 599.166674852371216, 513.0, 630.833342313766479, 513.0 ],
					"source" : [ "obj-62", 0 ]
				}

			}
, 			{
				"patchline" : 				{
					"destination" : [ "obj-105", 0 ],
					"midpoints" : [ 719.500025153160095, 540.0, 695.0, 540.0, 695.0, 414.0, 698.0, 414.0, 698.0, 321.0, 584.833342313766479, 321.0 ],
					"source" : [ "obj-63", 0 ]
				}

			}
, 			{
				"patchline" : 				{
					"destination" : [ "obj-63", 0 ],
					"source" : [ "obj-64", 0 ]
				}

			}
, 			{
				"patchline" : 				{
					"destination" : [ "obj-64", 0 ],
					"source" : [ "obj-66", 0 ]
				}

			}
, 			{
				"patchline" : 				{
					"destination" : [ "obj-326", 0 ],
					"midpoints" : [ 349.415170403297225, 592.99151528474431, 349.415170403297225, 592.99151528474431 ],
					"source" : [ "obj-70", 0 ]
				}

			}
, 			{
				"patchline" : 				{
					"destination" : [ "obj-326", 0 ],
					"midpoints" : [ 280.273484326087782, 580.34319980790724, 349.415170403297225, 580.34319980790724 ],
					"source" : [ "obj-73", 0 ]
				}

			}
, 			{
				"patchline" : 				{
					"destination" : [ "obj-73", 1 ],
					"midpoints" : [ 280.273484326087782, 549.0, 295.273484326087782, 549.0 ],
					"source" : [ "obj-80", 0 ]
				}

			}
, 			{
				"patchline" : 				{
					"destination" : [ "obj-70", 1 ],
					"midpoints" : [ 349.415170403297225, 549.0, 371.415170403297225, 549.0 ],
					"source" : [ "obj-82", 0 ]
				}

			}
, 			{
				"patchline" : 				{
					"destination" : [ "obj-245", 0 ],
					"midpoints" : [ 582.833342313766479, 543.0, 1034.416713356971741, 543.0 ],
					"order" : 0,
					"source" : [ "obj-88", 0 ]
				}

			}
, 			{
				"patchline" : 				{
					"destination" : [ "obj-249", 0 ],
					"midpoints" : [ 582.833342313766479, 554.999999642372131, 665.833342313766479, 554.999999642372131 ],
					"order" : 2,
					"source" : [ "obj-88", 0 ]
				}

			}
, 			{
				"patchline" : 				{
					"destination" : [ "obj-66", 0 ],
					"midpoints" : [ 582.833342313766479, 552.0, 695.0, 552.0, 695.0, 453.0, 719.500025153160095, 453.0 ],
					"order" : 1,
					"source" : [ "obj-88", 0 ]
				}

			}
, 			{
				"patchline" : 				{
					"destination" : [ "obj-20", 0 ],
					"midpoints" : [ 365.62504506111145, 87.0, 401.0, 87.0, 401.0, 405.0, 280.273484326087782, 405.0 ],
					"source" : [ "obj-93", 0 ]
				}

			}
, 			{
				"patchline" : 				{
					"destination" : [ "obj-137", 1 ],
					"midpoints" : [ 1012.333345890045166, 75.0, 560.0, 75.0, 560.0, 249.0, 516.333342313766479, 249.0 ],
					"source" : [ "obj-94", 0 ]
				}

			}
, 			{
				"patchline" : 				{
					"destination" : [ "obj-247", 0 ],
					"midpoints" : [ 452.583342313766479, 591.0, 836.0, 591.0, 836.0, 555.0, 848.500032186508179, 555.0 ],
					"order" : 0,
					"source" : [ "obj-95", 0 ]
				}

			}
, 			{
				"patchline" : 				{
					"destination" : [ "obj-250", 0 ],
					"midpoints" : [ 452.583342313766479, 552.0, 469.16669750213623, 552.0 ],
					"order" : 2,
					"source" : [ "obj-95", 0 ]
				}

			}
, 			{
				"patchline" : 				{
					"destination" : [ "obj-66", 0 ],
					"midpoints" : [ 452.583342313766479, 552.0, 695.0, 552.0, 695.0, 453.0, 719.500025153160095, 453.0 ],
					"order" : 1,
					"source" : [ "obj-95", 0 ]
				}

			}
, 			{
				"patchline" : 				{
					"destination" : [ "obj-263", 0 ],
					"midpoints" : [ 1046.233385443687439, 75.0, 1029.0, 75.0, 1029.0, 270.0, 1049.0, 270.0, 1049.0, 444.0, 1013.098051390045157, 444.0 ],
					"source" : [ "obj-96", 0 ]
				}

			}
, 			{
				"patchline" : 				{
					"destination" : [ "obj-172", 0 ],
					"midpoints" : [ 938.183342218399048, 75.0, 578.0, 75.0, 578.0, 255.0, 607.462529361248016, 255.0 ],
					"source" : [ "obj-97", 0 ]
				}

			}
, 			{
				"patchline" : 				{
					"destination" : [ "obj-88", 0 ],
					"midpoints" : [ 472.833342313766479, 511.000001549720764, 582.833342313766479, 511.000001549720764 ],
					"order" : 0,
					"source" : [ "obj-98", 0 ]
				}

			}
, 			{
				"patchline" : 				{
					"destination" : [ "obj-95", 0 ],
					"midpoints" : [ 472.833342313766479, 513.666668295860291, 452.583342313766479, 513.666668295860291 ],
					"order" : 1,
					"source" : [ "obj-98", 0 ]
				}

			}
, 			{
				"patchline" : 				{
					"destination" : [ "obj-88", 0 ],
					"midpoints" : [ 437.166676044464111, 511.000001549720764, 582.833342313766479, 511.000001549720764 ],
					"order" : 0,
					"source" : [ "obj-99", 0 ]
				}

			}
, 			{
				"patchline" : 				{
					"destination" : [ "obj-95", 0 ],
					"midpoints" : [ 437.166676044464111, 513.666668295860291, 452.583342313766479, 513.666668295860291 ],
					"order" : 1,
					"source" : [ "obj-99", 0 ]
				}

			}
 ],
		"dependency_cache" : [  ],
		"autosave" : 0,
		"styles" : [ 			{
				"name" : "AudioStatus_Menu",
				"default" : 				{
					"bgfillcolor" : 					{
						"type" : "color",
						"color" : [ 0.294118, 0.313726, 0.337255, 1 ],
						"color1" : [ 0.454902, 0.462745, 0.482353, 0.0 ],
						"color2" : [ 0.290196, 0.309804, 0.301961, 1.0 ],
						"angle" : 270.0,
						"proportion" : 0.39,
						"autogradient" : 0
					}

				}
,
				"parentstyle" : "",
				"multi" : 0
			}
, 			{
				"name" : "comment001",
				"default" : 				{
					"clearcolor" : [ 0.0, 0.0, 0.0, 0.0 ]
				}
,
				"parentstyle" : "velvet",
				"multi" : 0
			}
, 			{
				"name" : "comment002",
				"parentstyle" : "",
				"multi" : 0
			}
, 			{
				"name" : "rsliderGold",
				"default" : 				{
					"color" : [ 0.646639, 0.821777, 0.854593, 1.0 ],
					"bgcolor" : [ 0.764706, 0.592157, 0.101961, 1.0 ]
				}
,
				"parentstyle" : "",
				"multi" : 0
			}
 ]
	}

}
