{
	"patcher" : 	{
		"fileversion" : 1,
		"appversion" : 		{
			"major" : 8,
			"minor" : 0,
			"revision" : 8,
			"architecture" : "x64",
			"modernui" : 1
		}
,
		"classnamespace" : "box",
		"rect" : [ 59.0, 104.0, 815.0, 583.0 ],
		"bglocked" : 0,
		"openinpresentation" : 0,
		"default_fontsize" : 12.0,
		"default_fontface" : 0,
		"default_fontname" : "Arial",
		"gridonopen" : 1,
		"gridsize" : [ 15.0, 15.0 ],
		"gridsnaponopen" : 1,
		"objectsnaponopen" : 1,
		"statusbarvisible" : 2,
		"toolbarvisible" : 1,
		"lefttoolbarpinned" : 0,
		"toptoolbarpinned" : 0,
		"righttoolbarpinned" : 0,
		"bottomtoolbarpinned" : 0,
		"toolbars_unpinned_last_save" : 0,
		"tallnewobj" : 0,
		"boxanimatetime" : 200,
		"enablehscroll" : 1,
		"enablevscroll" : 1,
		"devicewidth" : 0.0,
		"description" : "",
		"digest" : "",
		"tags" : "",
		"style" : "",
		"subpatcher_template" : "",
		"boxes" : [ 			{
				"box" : 				{
					"id" : "obj-66",
					"maxclass" : "comment",
					"numinlets" : 1,
					"numoutlets" : 0,
					"patching_rect" : [ 741.0, 329.0, 106.0, 20.0 ],
					"text" : "play audio from all"
				}

			}
, 			{
				"box" : 				{
					"id" : "obj-64",
					"maxclass" : "newobj",
					"numinlets" : 1,
					"numoutlets" : 1,
					"outlettype" : [ "" ],
					"patching_rect" : [ 717.0, 293.0, 70.0, 22.0 ],
					"text" : "loadmess 0"
				}

			}
, 			{
				"box" : 				{
					"id" : "obj-63",
					"maxclass" : "toggle",
					"numinlets" : 1,
					"numoutlets" : 1,
					"outlettype" : [ "int" ],
					"parameter_enable" : 0,
					"patching_rect" : [ 713.0, 329.0, 24.0, 24.0 ]
				}

			}
, 			{
				"box" : 				{
					"id" : "obj-61",
					"maxclass" : "message",
					"numinlets" : 2,
					"numoutlets" : 1,
					"outlettype" : [ "" ],
					"patching_rect" : [ 705.0, 149.0, 68.0, 22.0 ],
					"presentation" : 1,
					"presentation_rect" : [ 36.0, 694.933346101604457, 68.0, 22.0 ],
					"text" : "Launchpad"
				}

			}
, 			{
				"box" : 				{
					"id" : "obj-35",
					"maxclass" : "message",
					"numinlets" : 2,
					"numoutlets" : 1,
					"outlettype" : [ "" ],
					"patching_rect" : [ 705.0, 180.666664898395538, 102.0, 22.0 ],
					"presentation" : 1,
					"presentation_rect" : [ 36.0, 726.600010999999995, 102.0, 22.0 ],
					"text" : "\"Launchpad Mini\""
				}

			}
, 			{
				"box" : 				{
					"id" : "obj-41",
					"maxclass" : "newobj",
					"numinlets" : 1,
					"numoutlets" : 0,
					"patching_rect" : [ 705.0, 214.666664898395538, 127.0, 22.0 ],
					"text" : "s LPmidiOutputAssign"
				}

			}
, 			{
				"box" : 				{
					"id" : "obj-59",
					"maxclass" : "newobj",
					"numinlets" : 3,
					"numoutlets" : 0,
					"patching_rect" : [ 633.0, 393.0, 89.0, 22.0 ],
					"text" : "GridDrums 8",
					"varname" : "GridDrums[6]"
				}

			}
, 			{
				"box" : 				{
					"id" : "obj-60",
					"maxclass" : "newobj",
					"numinlets" : 3,
					"numoutlets" : 0,
					"patching_rect" : [ 550.0, 393.0, 77.0, 22.0 ],
					"text" : "GridDrums 7",
					"varname" : "GridDrums[7]"
				}

			}
, 			{
				"box" : 				{
					"id" : "obj-57",
					"maxclass" : "newobj",
					"numinlets" : 3,
					"numoutlets" : 0,
					"patching_rect" : [ 464.0, 393.0, 77.0, 22.0 ],
					"text" : "GridDrums 6",
					"varname" : "GridDrums[4]"
				}

			}
, 			{
				"box" : 				{
					"id" : "obj-58",
					"maxclass" : "newobj",
					"numinlets" : 3,
					"numoutlets" : 0,
					"patching_rect" : [ 381.0, 393.0, 77.0, 22.0 ],
					"text" : "GridDrums 5",
					"varname" : "GridDrums[5]"
				}

			}
, 			{
				"box" : 				{
					"id" : "obj-55",
					"maxclass" : "newobj",
					"numinlets" : 3,
					"numoutlets" : 0,
					"patching_rect" : [ 297.0, 393.0, 77.0, 22.0 ],
					"text" : "GridDrums 4",
					"varname" : "GridDrums[2]"
				}

			}
, 			{
				"box" : 				{
					"id" : "obj-56",
					"maxclass" : "newobj",
					"numinlets" : 3,
					"numoutlets" : 0,
					"patching_rect" : [ 214.0, 393.0, 77.0, 22.0 ],
					"text" : "GridDrums 3",
					"varname" : "GridDrums[3]"
				}

			}
, 			{
				"box" : 				{
					"id" : "obj-54",
					"maxclass" : "comment",
					"numinlets" : 1,
					"numoutlets" : 0,
					"patching_rect" : [ 589.349995791912079, 117.0, 150.0, 20.0 ],
					"text" : "numPlayers"
				}

			}
, 			{
				"box" : 				{
					"id" : "obj-48",
					"maxclass" : "number",
					"numinlets" : 1,
					"numoutlets" : 2,
					"outlettype" : [ "", "bang" ],
					"parameter_enable" : 0,
					"patching_rect" : [ 54.0, 348.0, 50.0, 22.0 ]
				}

			}
, 			{
				"box" : 				{
					"id" : "obj-44",
					"maxclass" : "newobj",
					"numinlets" : 3,
					"numoutlets" : 1,
					"outlettype" : [ "" ],
					"patching_rect" : [ 52.0, 316.0, 146.0, 22.0 ],
					"text" : "if ($i2>0) then $i1 else $i3"
				}

			}
, 			{
				"box" : 				{
					"id" : "obj-37",
					"maxclass" : "newobj",
					"numinlets" : 2,
					"numoutlets" : 1,
					"outlettype" : [ "int" ],
					"patching_rect" : [ 537.349995791912079, 149.0, 29.5, 22.0 ],
					"text" : "* 4"
				}

			}
, 			{
				"box" : 				{
					"id" : "obj-36",
					"maxclass" : "number",
					"numinlets" : 1,
					"numoutlets" : 2,
					"outlettype" : [ "", "bang" ],
					"parameter_enable" : 0,
					"patching_rect" : [ 537.349995791912079, 117.0, 50.0, 22.0 ]
				}

			}
, 			{
				"box" : 				{
					"id" : "obj-29",
					"maxclass" : "newobj",
					"numinlets" : 2,
					"numoutlets" : 2,
					"outlettype" : [ "", "" ],
					"patching_rect" : [ 44.0, 137.0, 39.0, 22.0 ],
					"text" : "zl.join"
				}

			}
, 			{
				"box" : 				{
					"id" : "obj-28",
					"maxclass" : "toggle",
					"numinlets" : 1,
					"numoutlets" : 1,
					"outlettype" : [ "int" ],
					"parameter_enable" : 0,
					"patching_rect" : [ 44.0, 206.0, 24.0, 24.0 ]
				}

			}
, 			{
				"box" : 				{
					"id" : "obj-26",
					"maxclass" : "newobj",
					"numinlets" : 3,
					"numoutlets" : 1,
					"outlettype" : [ "" ],
					"patching_rect" : [ 44.0, 176.0, 202.0, 22.0 ],
					"text" : "if ($i1==$i3) || ($i2==0) then 1 else 0"
				}

			}
, 			{
				"box" : 				{
					"id" : "obj-22",
					"maxclass" : "message",
					"numinlets" : 2,
					"numoutlets" : 1,
					"outlettype" : [ "" ],
					"patching_rect" : [ 44.0, 97.0, 39.0, 22.0 ],
					"text" : "$3 $4"
				}

			}
, 			{
				"box" : 				{
					"id" : "obj-18",
					"maxclass" : "newobj",
					"numinlets" : 1,
					"numoutlets" : 1,
					"outlettype" : [ "" ],
					"patching_rect" : [ 44.0, 63.0, 53.0, 22.0 ],
					"text" : "LP.padX"
				}

			}
, 			{
				"box" : 				{
					"id" : "obj-15",
					"maxclass" : "newobj",
					"numinlets" : 3,
					"numoutlets" : 0,
					"patching_rect" : [ 135.0, 393.0, 77.0, 22.0 ],
					"text" : "GridDrums 2",
					"varname" : "GridDrums[1]"
				}

			}
, 			{
				"box" : 				{
					"id" : "obj-8",
					"maxclass" : "number",
					"numinlets" : 1,
					"numoutlets" : 2,
					"outlettype" : [ "", "bang" ],
					"parameter_enable" : 0,
					"patching_rect" : [ 109.0, 66.0, 50.0, 22.0 ]
				}

			}
, 			{
				"box" : 				{
					"id" : "obj-4",
					"maxclass" : "newobj",
					"numinlets" : 1,
					"numoutlets" : 1,
					"outlettype" : [ "" ],
					"patching_rect" : [ 109.0, 97.0, 81.0, 22.0 ],
					"text" : "MLE.playerID"
				}

			}
, 			{
				"box" : 				{
					"id" : "obj-71",
					"maxclass" : "comment",
					"numinlets" : 1,
					"numoutlets" : 0,
					"patching_rect" : [ 464.0, 68.0, 45.0, 20.0 ],
					"presentation" : 1,
					"presentation_rect" : [ 643.5, 17.799999237060547, 45.0, 20.0 ],
					"text" : "Tempo"
				}

			}
, 			{
				"box" : 				{
					"id" : "obj-180",
					"maxclass" : "number",
					"numinlets" : 1,
					"numoutlets" : 2,
					"outlettype" : [ "", "bang" ],
					"parameter_enable" : 0,
					"patching_rect" : [ 464.0, 93.0, 50.0, 22.0 ],
					"presentation" : 1,
					"presentation_rect" : [ 591.5, 17.799999237060547, 50.0, 22.0 ]
				}

			}
, 			{
				"box" : 				{
					"id" : "obj-146",
					"maxclass" : "newobj",
					"numinlets" : 3,
					"numoutlets" : 3,
					"outlettype" : [ "", "", "" ],
					"patching_rect" : [ 464.0, 187.0, 80.0, 22.0 ],
					"text" : "MLE.beat 4 2"
				}

			}
, 			{
				"box" : 				{
					"id" : "obj-1",
					"maxclass" : "newobj",
					"numinlets" : 3,
					"numoutlets" : 0,
					"patching_rect" : [ 52.0, 393.0, 77.0, 22.0 ],
					"text" : "GridDrums 1",
					"varname" : "GridDrums"
				}

			}
, 			{
				"box" : 				{
					"bgcolor" : [ 0.32156862745098, 0.588235294117647, 0.101960784313725, 1.0 ],
					"fontsize" : 18.0,
					"id" : "obj-69",
					"maxclass" : "newobj",
					"numinlets" : 1,
					"numoutlets" : 0,
					"patching_rect" : [ 44.0, 240.0, 146.0, 29.0 ],
					"presentation" : 1,
					"presentation_rect" : [ 569.0, 669.799999237060547, 119.0, 29.0 ],
					"text" : "spatialGridctrl",
					"varname" : "SpatialGridCtrl"
				}

			}
 ],
		"lines" : [ 			{
				"patchline" : 				{
					"destination" : [ "obj-1", 2 ],
					"order" : 7,
					"source" : [ "obj-146", 1 ]
				}

			}
, 			{
				"patchline" : 				{
					"destination" : [ "obj-15", 2 ],
					"order" : 6,
					"source" : [ "obj-146", 1 ]
				}

			}
, 			{
				"patchline" : 				{
					"destination" : [ "obj-55", 2 ],
					"order" : 4,
					"source" : [ "obj-146", 1 ]
				}

			}
, 			{
				"patchline" : 				{
					"destination" : [ "obj-56", 2 ],
					"order" : 5,
					"source" : [ "obj-146", 1 ]
				}

			}
, 			{
				"patchline" : 				{
					"destination" : [ "obj-57", 2 ],
					"order" : 2,
					"source" : [ "obj-146", 1 ]
				}

			}
, 			{
				"patchline" : 				{
					"destination" : [ "obj-58", 2 ],
					"order" : 3,
					"source" : [ "obj-146", 1 ]
				}

			}
, 			{
				"patchline" : 				{
					"destination" : [ "obj-59", 2 ],
					"order" : 0,
					"source" : [ "obj-146", 1 ]
				}

			}
, 			{
				"patchline" : 				{
					"destination" : [ "obj-60", 2 ],
					"order" : 1,
					"source" : [ "obj-146", 1 ]
				}

			}
, 			{
				"patchline" : 				{
					"destination" : [ "obj-22", 0 ],
					"source" : [ "obj-18", 0 ]
				}

			}
, 			{
				"patchline" : 				{
					"destination" : [ "obj-146", 0 ],
					"source" : [ "obj-180", 0 ]
				}

			}
, 			{
				"patchline" : 				{
					"destination" : [ "obj-29", 0 ],
					"source" : [ "obj-22", 0 ]
				}

			}
, 			{
				"patchline" : 				{
					"destination" : [ "obj-28", 0 ],
					"source" : [ "obj-26", 0 ]
				}

			}
, 			{
				"patchline" : 				{
					"destination" : [ "obj-69", 0 ],
					"source" : [ "obj-28", 0 ]
				}

			}
, 			{
				"patchline" : 				{
					"destination" : [ "obj-26", 0 ],
					"order" : 1,
					"source" : [ "obj-29", 0 ]
				}

			}
, 			{
				"patchline" : 				{
					"destination" : [ "obj-44", 0 ],
					"order" : 0,
					"source" : [ "obj-29", 0 ]
				}

			}
, 			{
				"patchline" : 				{
					"destination" : [ "obj-41", 0 ],
					"source" : [ "obj-35", 0 ]
				}

			}
, 			{
				"patchline" : 				{
					"destination" : [ "obj-37", 0 ],
					"source" : [ "obj-36", 0 ]
				}

			}
, 			{
				"patchline" : 				{
					"destination" : [ "obj-146", 1 ],
					"source" : [ "obj-37", 0 ]
				}

			}
, 			{
				"patchline" : 				{
					"destination" : [ "obj-48", 0 ],
					"source" : [ "obj-44", 0 ]
				}

			}
, 			{
				"patchline" : 				{
					"destination" : [ "obj-1", 0 ],
					"order" : 7,
					"source" : [ "obj-48", 0 ]
				}

			}
, 			{
				"patchline" : 				{
					"destination" : [ "obj-15", 0 ],
					"order" : 6,
					"source" : [ "obj-48", 0 ]
				}

			}
, 			{
				"patchline" : 				{
					"destination" : [ "obj-55", 0 ],
					"order" : 4,
					"source" : [ "obj-48", 0 ]
				}

			}
, 			{
				"patchline" : 				{
					"destination" : [ "obj-56", 0 ],
					"order" : 5,
					"source" : [ "obj-48", 0 ]
				}

			}
, 			{
				"patchline" : 				{
					"destination" : [ "obj-57", 0 ],
					"order" : 2,
					"source" : [ "obj-48", 0 ]
				}

			}
, 			{
				"patchline" : 				{
					"destination" : [ "obj-58", 0 ],
					"order" : 3,
					"source" : [ "obj-48", 0 ]
				}

			}
, 			{
				"patchline" : 				{
					"destination" : [ "obj-59", 0 ],
					"order" : 0,
					"source" : [ "obj-48", 0 ]
				}

			}
, 			{
				"patchline" : 				{
					"destination" : [ "obj-60", 0 ],
					"order" : 1,
					"source" : [ "obj-48", 0 ]
				}

			}
, 			{
				"patchline" : 				{
					"destination" : [ "obj-41", 0 ],
					"source" : [ "obj-61", 0 ]
				}

			}
, 			{
				"patchline" : 				{
					"destination" : [ "obj-1", 1 ],
					"order" : 7,
					"source" : [ "obj-63", 0 ]
				}

			}
, 			{
				"patchline" : 				{
					"destination" : [ "obj-15", 1 ],
					"order" : 6,
					"source" : [ "obj-63", 0 ]
				}

			}
, 			{
				"patchline" : 				{
					"destination" : [ "obj-55", 1 ],
					"order" : 4,
					"source" : [ "obj-63", 0 ]
				}

			}
, 			{
				"patchline" : 				{
					"destination" : [ "obj-56", 1 ],
					"order" : 5,
					"source" : [ "obj-63", 0 ]
				}

			}
, 			{
				"patchline" : 				{
					"destination" : [ "obj-57", 1 ],
					"order" : 2,
					"source" : [ "obj-63", 0 ]
				}

			}
, 			{
				"patchline" : 				{
					"destination" : [ "obj-58", 1 ],
					"order" : 3,
					"source" : [ "obj-63", 0 ]
				}

			}
, 			{
				"patchline" : 				{
					"destination" : [ "obj-59", 1 ],
					"order" : 0,
					"source" : [ "obj-63", 0 ]
				}

			}
, 			{
				"patchline" : 				{
					"destination" : [ "obj-60", 1 ],
					"order" : 1,
					"source" : [ "obj-63", 0 ]
				}

			}
, 			{
				"patchline" : 				{
					"destination" : [ "obj-63", 0 ],
					"source" : [ "obj-64", 0 ]
				}

			}
, 			{
				"patchline" : 				{
					"destination" : [ "obj-29", 1 ],
					"order" : 1,
					"source" : [ "obj-8", 0 ]
				}

			}
, 			{
				"patchline" : 				{
					"destination" : [ "obj-4", 0 ],
					"order" : 0,
					"source" : [ "obj-8", 0 ]
				}

			}
 ],
		"parameters" : 		{
			"obj-15::obj-3::obj-46::obj-2" : [ "live.grid[19]", "live.grid", 0 ],
			"obj-60::obj-268::obj-251::obj-210::obj-46::obj-2" : [ "live.grid[88]", "live.grid", 0 ],
			"obj-60::obj-26" : [ "live.grid[96]", "live.grid", 0 ],
			"obj-15::obj-268::obj-248::obj-210::obj-46::obj-2" : [ "live.grid[13]", "live.grid", 0 ],
			"obj-56::obj-268::obj-251::obj-210::obj-46::obj-2" : [ "live.grid[40]", "live.grid", 0 ],
			"obj-60::obj-268::obj-248::obj-210::obj-46::obj-2" : [ "live.grid[87]", "live.grid", 0 ],
			"obj-58::obj-268::obj-251::obj-210::obj-46::obj-2" : [ "live.grid[64]", "live.grid", 0 ],
			"obj-60::obj-3::obj-46::obj-2" : [ "live.grid[91]", "live.grid", 0 ],
			"obj-55::obj-3::obj-46::obj-2" : [ "live.grid[31]", "live.grid", 0 ],
			"obj-55::obj-268::obj-248::obj-210::obj-46::obj-2" : [ "live.grid[27]", "live.grid", 0 ],
			"obj-56::obj-268::obj-248::obj-210::obj-46::obj-2" : [ "live.grid[39]", "live.grid", 0 ],
			"obj-55::obj-26" : [ "live.grid[37]", "live.grid", 0 ],
			"obj-58::obj-268::obj-248::obj-210::obj-46::obj-2" : [ "live.grid[63]", "live.grid", 0 ],
			"obj-56::obj-3::obj-46::obj-2" : [ "live.grid[43]", "live.grid", 0 ],
			"obj-55::obj-268::obj-251::obj-210::obj-46::obj-2" : [ "live.grid[28]", "live.grid", 0 ],
			"obj-58::obj-3::obj-46::obj-2" : [ "live.grid[67]", "live.grid", 0 ],
			"obj-15::obj-26" : [ "live.grid[26]", "live.grid", 0 ],
			"obj-58::obj-26" : [ "live.grid[72]", "live.grid", 0 ],
			"obj-59::obj-26" : [ "live.grid[86]", "live.grid", 0 ],
			"obj-57::obj-268::obj-251::obj-210::obj-46::obj-2" : [ "live.grid[52]", "live.grid", 0 ],
			"obj-59::obj-268::obj-251::obj-210::obj-46::obj-2" : [ "live.grid[76]", "live.grid", 0 ],
			"obj-1::obj-268::obj-248::obj-210::obj-46::obj-2" : [ "live.grid[1]", "live.grid", 0 ],
			"obj-15::obj-268::obj-251::obj-210::obj-46::obj-2" : [ "live.grid[17]", "live.grid", 0 ],
			"obj-56::obj-26" : [ "live.grid[47]", "live.grid", 0 ],
			"obj-146::obj-46::obj-2" : [ "live.grid[10]", "live.grid", 0 ],
			"obj-57::obj-26" : [ "live.grid[61]", "live.grid", 0 ],
			"obj-57::obj-268::obj-248::obj-210::obj-46::obj-2" : [ "live.grid[51]", "live.grid", 0 ],
			"obj-59::obj-268::obj-248::obj-210::obj-46::obj-2" : [ "live.grid[75]", "live.grid", 0 ],
			"obj-57::obj-3::obj-46::obj-2" : [ "live.grid[55]", "live.grid", 0 ],
			"obj-59::obj-3::obj-46::obj-2" : [ "live.grid[79]", "live.grid", 0 ],
			"obj-1::obj-3::obj-46::obj-2" : [ "live.grid[7]", "live.grid", 0 ],
			"obj-1::obj-26" : [ "live.grid", "live.grid", 0 ],
			"obj-1::obj-268::obj-251::obj-210::obj-46::obj-2" : [ "live.grid[2]", "live.grid", 0 ],
			"parameterbanks" : 			{

			}

		}
,
		"dependency_cache" : [ 			{
				"name" : "SpatialGridCtrl.maxpat",
				"bootpath" : "/Users/famle/CML/MLE/compositions/S20/Drafts/Spatial Grid/dependencies",
				"patcherrelativepath" : "../Spatial Grid/dependencies",
				"type" : "JSON",
				"implicit" : 1
			}
, 			{
				"name" : "MLE.UDPsend.maxpat",
				"bootpath" : "~/Dropbox/MIT/Teaching/2019Fall/M470_Fall2019/Concertmedia",
				"patcherrelativepath" : "../../../../../../../ianhattwick/Dropbox/MIT/Teaching/2019Fall/M470_Fall2019/Concertmedia",
				"type" : "JSON",
				"implicit" : 1
			}
, 			{
				"name" : "initS.maxpat",
				"bootpath" : "~/Dropbox/MIT/Teaching/2019Fall/M470_Fall2019/Concertmedia",
				"patcherrelativepath" : "../../../../../../../ianhattwick/Dropbox/MIT/Teaching/2019Fall/M470_Fall2019/Concertmedia",
				"type" : "JSON",
				"implicit" : 1
			}
, 			{
				"name" : "MLE.noteEntry.maxpat",
				"bootpath" : "/Users/famle/CML/MLE/patchers/utilities",
				"patcherrelativepath" : "../../../../patchers/utilities",
				"type" : "JSON",
				"implicit" : 1
			}
, 			{
				"name" : "init.maxpat",
				"bootpath" : "/Users/famle/CML/MLE/patchers/utilities",
				"patcherrelativepath" : "../../../../patchers/utilities",
				"type" : "JSON",
				"implicit" : 1
			}
, 			{
				"name" : "MLE.UDPreceive.maxpat",
				"bootpath" : "~/Dropbox/MIT/Teaching/2019Fall/M470_Fall2019/Concertmedia",
				"patcherrelativepath" : "../../../../../../../ianhattwick/Dropbox/MIT/Teaching/2019Fall/M470_Fall2019/Concertmedia",
				"type" : "JSON",
				"implicit" : 1
			}
, 			{
				"name" : "LP.out.maxpat",
				"bootpath" : "/Users/famle/CML/LP/launchpad/output",
				"patcherrelativepath" : "../../../../../LP/launchpad/output",
				"type" : "JSON",
				"implicit" : 1
			}
, 			{
				"name" : "LP.8row.maxpat",
				"bootpath" : "/Users/famle/CML/LP/launchpad/mapping",
				"patcherrelativepath" : "../../../../../LP/launchpad/mapping",
				"type" : "JSON",
				"implicit" : 1
			}
, 			{
				"name" : "LP.row.maxpat",
				"bootpath" : "/Users/famle/CML/LP/launchpad/mapping",
				"patcherrelativepath" : "../../../../../LP/launchpad/mapping",
				"type" : "JSON",
				"implicit" : 1
			}
, 			{
				"name" : "initPV.maxpat",
				"bootpath" : "/Users/famle/CML/MLE/patchers/utilities",
				"patcherrelativepath" : "../../../../patchers/utilities",
				"type" : "JSON",
				"implicit" : 1
			}
, 			{
				"name" : "LP.padY.maxpat",
				"bootpath" : "/Users/famle/CML/LP/launchpad/input",
				"patcherrelativepath" : "../../../../../LP/launchpad/input",
				"type" : "JSON",
				"implicit" : 1
			}
, 			{
				"name" : "LP.seq8.maxpat",
				"bootpath" : "/Users/famle/CML/LP/launchpad/mapping",
				"patcherrelativepath" : "../../../../../LP/launchpad/mapping",
				"type" : "JSON",
				"implicit" : 1
			}
, 			{
				"name" : "LP.ledBar.maxpat",
				"bootpath" : "/Users/famle/CML/LP/launchpad/feedback",
				"patcherrelativepath" : "../../../../../LP/launchpad/feedback",
				"type" : "JSON",
				"implicit" : 1
			}
, 			{
				"name" : "MLE.playerID.maxpat",
				"bootpath" : "/Users/famle/CML/MLE/patchers/sandbox",
				"patcherrelativepath" : "../../../../patchers/sandbox",
				"type" : "JSON",
				"implicit" : 1
			}
, 			{
				"name" : "LP.led1.maxpat",
				"bootpath" : "/Users/famle/CML/LP/launchpad/feedback",
				"patcherrelativepath" : "../../../../../LP/launchpad/feedback",
				"type" : "JSON",
				"implicit" : 1
			}
, 			{
				"name" : "LP.grid.maxpat",
				"bootpath" : "/Users/famle/CML/LP/launchpad/input",
				"patcherrelativepath" : "../../../../../LP/launchpad/input",
				"type" : "JSON",
				"implicit" : 1
			}
, 			{
				"name" : "GridDrums.maxpat",
				"bootpath" : "/Users/famle/CML/MLE/compositions/S20/Drafts/GridDrums",
				"patcherrelativepath" : ".",
				"type" : "JSON",
				"implicit" : 1
			}
, 			{
				"name" : "MLE.keyGrid.maxpat",
				"bootpath" : "/Users/famle/CML/MLE/patchers/controllers",
				"patcherrelativepath" : "../../../../patchers/controllers",
				"type" : "JSON",
				"implicit" : 1
			}
, 			{
				"name" : "asciiLinearMapping.txt",
				"bootpath" : "/Users/famle/CML/MLE/code",
				"patcherrelativepath" : "../../../../code",
				"type" : "TEXT",
				"implicit" : 1
			}
, 			{
				"name" : "mleKeyGridLCD.js",
				"bootpath" : "/Users/famle/CML/MLE/compositions/S20/Drafts/Spatial Grid/dependencies",
				"patcherrelativepath" : "../Spatial Grid/dependencies",
				"type" : "TEXT",
				"implicit" : 1
			}
, 			{
				"name" : "keyGrid.json",
				"bootpath" : "/Users/famle/CML/MLE/compositions/S20/Drafts/Spatial Grid/dependencies",
				"patcherrelativepath" : "../Spatial Grid/dependencies",
				"type" : "JSON",
				"implicit" : 1
			}
, 			{
				"name" : "MLE.beat.maxpat",
				"bootpath" : "/Users/famle/CML/MLE/patchers/network",
				"patcherrelativepath" : "../../../../patchers/network",
				"type" : "JSON",
				"implicit" : 1
			}
, 			{
				"name" : "MLE.swing.maxpat",
				"bootpath" : "/Users/famle/CML/MLE/patchers/sandbox",
				"patcherrelativepath" : "../../../../patchers/sandbox",
				"type" : "JSON",
				"implicit" : 1
			}
, 			{
				"name" : "LP.dot.maxpat",
				"bootpath" : "/Users/famle/CML/LP/launchpad/feedback",
				"patcherrelativepath" : "../../../../../LP/launchpad/feedback",
				"type" : "JSON",
				"implicit" : 1
			}
, 			{
				"name" : "LP.padX.maxpat",
				"bootpath" : "/Users/famle/CML/LP/launchpad/input",
				"patcherrelativepath" : "../../../../../LP/launchpad/input",
				"type" : "JSON",
				"implicit" : 1
			}
, 			{
				"name" : "link.phasor~.mxo",
				"type" : "iLaX"
			}
 ],
		"autosave" : 0,
		"styles" : [ 			{
				"name" : "AudioStatus_Menu",
				"default" : 				{
					"bgfillcolor" : 					{
						"type" : "color",
						"color" : [ 0.294118, 0.313726, 0.337255, 1 ],
						"color1" : [ 0.454902, 0.462745, 0.482353, 0.0 ],
						"color2" : [ 0.290196, 0.309804, 0.301961, 1.0 ],
						"angle" : 270.0,
						"proportion" : 0.39,
						"autogradient" : 0
					}

				}
,
				"parentstyle" : "",
				"multi" : 0
			}
, 			{
				"name" : "newobjBlue-1",
				"default" : 				{
					"accentcolor" : [ 0.317647, 0.654902, 0.976471, 1.0 ]
				}
,
				"parentstyle" : "",
				"multi" : 0
			}
, 			{
				"name" : "newobjBlue-2",
				"default" : 				{
					"accentcolor" : [ 0.317647, 0.654902, 0.976471, 1.0 ]
				}
,
				"parentstyle" : "",
				"multi" : 0
			}
, 			{
				"name" : "newobjBlue-3",
				"default" : 				{
					"accentcolor" : [ 0.317647, 0.654902, 0.976471, 1.0 ]
				}
,
				"parentstyle" : "",
				"multi" : 0
			}
, 			{
				"name" : "newobjGreen-1",
				"default" : 				{
					"accentcolor" : [ 0.0, 0.533333, 0.168627, 1.0 ]
				}
,
				"parentstyle" : "",
				"multi" : 0
			}
, 			{
				"name" : "newobjGreen-2",
				"default" : 				{
					"accentcolor" : [ 0.0, 0.533333, 0.168627, 1.0 ]
				}
,
				"parentstyle" : "",
				"multi" : 0
			}
, 			{
				"name" : "newobjGreen-3",
				"default" : 				{
					"accentcolor" : [ 0.0, 0.533333, 0.168627, 1.0 ]
				}
,
				"parentstyle" : "",
				"multi" : 0
			}
, 			{
				"name" : "newobjYellow-1",
				"default" : 				{
					"fontsize" : [ 12.059008 ],
					"accentcolor" : [ 0.82517, 0.78181, 0.059545, 1.0 ]
				}
,
				"parentstyle" : "",
				"multi" : 0
			}
, 			{
				"name" : "newobjYellow-2",
				"default" : 				{
					"fontsize" : [ 12.059008 ],
					"accentcolor" : [ 0.82517, 0.78181, 0.059545, 1.0 ]
				}
,
				"parentstyle" : "",
				"multi" : 0
			}
, 			{
				"name" : "newobjYellow-3",
				"default" : 				{
					"fontsize" : [ 12.059008 ],
					"accentcolor" : [ 0.82517, 0.78181, 0.059545, 1.0 ]
				}
,
				"parentstyle" : "",
				"multi" : 0
			}
, 			{
				"name" : "tap",
				"default" : 				{
					"fontname" : [ "Lato Light" ]
				}
,
				"parentstyle" : "",
				"multi" : 0
			}
 ]
	}

}
